{
.appVersion = "1340";
DisplayStrings = (
"/psili.case"
);
copyright = "Copyright 2015 The Arima Project Authors (info@ndiscovered.com)";
customParameters = (
{
name = fsType;
value = (
);
},
{
name = license;
value = "This Font Software is licensed under the SIL Open Font License, Version 1.1. This license is available with a FAQ at: http://scripts.sil.org/OFL";
},
{
name = licenseURL;
value = "http://scripts.sil.org/OFL";
},
{
name = vendorID;
value = NDIS;
}
);
date = "2016-02-15 12:51:07 +0000";
designer = "Joana Correia and Natanael Gama";
designerURL = www.ndiscover.com;
familyName = "Arima Naxos";
featurePrefixes = (
{
automatic = 1;
code = "languagesystem DFLT dflt;\012\012languagesystem latn dflt;\012languagesystem latn ROM;\012languagesystem latn MOL;\012languagesystem latn CAT;\012";
name = Languagesystems;
}
);
features = (
{
automatic = 1;
code = "feature subs;\012feature sups;\012feature frac;\012feature ss01;\012feature ss02;\012feature locl;\012feature ordn;\012feature sinf;\012feature case;\012";
name = aalt;
},
{
automatic = 1;
code = "lookup ccmp_latn_1 {\012	lookupflag 0;\012	sub brevecomb acutecomb by brevecomb_acutecomb;\012	sub brevecomb gravecomb by brevecomb_gravecomb;\012	sub brevecomb hookabovecomb by brevecomb_hookabovecomb;\012	sub brevecomb tildecomb by brevecomb_tildecomb;\012	sub circumflexcomb acutecomb by circumflexcomb_acutecomb;\012	sub circumflexcomb gravecomb by circumflexcomb_gravecomb;\012	sub circumflexcomb hookabovecomb by circumflexcomb_hookabovecomb;\012	sub circumflexcomb tildecomb by circumflexcomb_tildecomb;\012} ccmp_latn_1;\012\012script latn;\012lookup ccmp_latn_1;\012";
name = ccmp;
},
{
automatic = 1;

glyphs = (
{
glyphname = A;
lastChange = "2015-10-29 13:05:33 +0000";
layers = (
{
anchors = (
{
name = bottom;
position = "{287, 0}";
},
{
name = ogonek;
position = "{521, -4}";
},
{
name = top;
position = "{280, 688}";
}
);
layerId = "60CFBDE8-BC08-4808-BF41-F011F3E03A54";
paths = (
{
closed = 1;
nodes = (
"275 700 OFFCURVE",
"268 698 OFFCURVE",
"260 692 CURVE",
"33 34 LINE SMOOTH",
"31 27 OFFCURVE",
"27 17 OFFCURVE",
"27 10 CURVE SMOOTH",
"26 -1 OFFCURVE",
"34 -8 OFFCURVE",
"45 -8 CURVE SMOOTH",
"51 -8 OFFCURVE",
"55 -8 OFFCURVE",
"61 -6 CURVE",
"59 -2 OFFCURVE",
"59 4 OFFCURVE",
"59 8 CURVE SMOOTH",
"59 14 OFFCURVE",
"62 24 OFFCURVE",
"64 29 CURVE SMOOTH",
"287 686 LINE",
"275 686 LINE",
"508 6 LINE SMOOTH",
"511 -3 OFFCURVE",
"520 -8 OFFCURVE",
"530 -8 CURVE SMOOTH",
"536 -8 OFFCURVE",
"541 -6 OFFCURVE",
"547 1 CURVE",
"542 7 OFFCURVE",
"536 18 OFFCURVE",
"531 31 CURVE SMOOTH",
"307 683 LINE SMOOTH",
"303 694 OFFCURVE",
"294 700 OFFCURVE",
"282 700 CURVE SMOOTH"
);
},
{
closed = 1;
nodes = (
"130 234 LINE",
"435 234 LINE",
"435 260 LINE",
"130 260 LINE"
);
}
);
width = 562;
},
{
anchors = (
{
name = bottom;
position = "{315, 0}";
},
{
name = ogonek;
position = "{551, -13}";
},
{
name = top;
position = "{320, 698}";
}
);
layerId = "EBFFFCD3-BAE4-48A5-9442-B72A90AD34A8";
paths = (
{
closed = 1;
nodes = (
"304 713 OFFCURVE",
"265 707 OFFCURVE",
"225 694 CURVE",
"31 115 LINE SMOOTH",
"22 87 OFFCURVE",
"17 61 OFFCURVE",
"17 44 CURVE SMOOTH",
"17 3 OFFCURVE",
"41 -14 OFFCURVE",
"95 -14 CURVE SMOOTH",
"130 -14 OFFCURVE",
"151 -7 OFFCURVE",
"171 1 CURVE",
"164 8 OFFCURVE",
"160 18 OFFCURVE",
"160 34 CURVE SMOOTH",
"160 49 OFFCURVE",
"163 64 OFFCURVE",
"167 80 CURVE SMOOTH",
"311 657 LINE",
"297 660 LINE",
"459 40 LINE SMOOTH",
"467 4 OFFCURVE",
"500 -14 OFFCURVE",
"543 -14 CURVE SMOOTH",
"589 -14 OFFCURVE",
"613 3 OFFCURVE",
"625 17 CURVE",
"608 35 OFFCURVE",
"597 65 OFFCURVE",
"592 82 CURVE SMOOTH",
"418 668 LINE SMOOTH",
"408 704 OFFCURVE",
"376 713 OFFCURVE",
"343 713 CURVE SMOOTH"
);
},
{
closed = 1;
nodes = (
"161 203 LINE",
"493 203 LINE",
"493 277 LINE",
"161 277 LINE"
);
}
);
width = 628;
}
);
leftKerningGroup = A;
rightKerningGroup = A;
unicode = 0041;
},
{
color = 4;
glyphname = AE;
lastChange = "2015-10-29 13:05:33 +0000";
layers = (
{
anchors = (
{
name = bottom;
position = "{194, 0}";
},
{
name = ogonek;
position = "{403, -4}";
},
{
name = top;
position = "{194, 688}";
},
{
name = topleft;
position = "{464, 688}";
}
);
layerId = "60CFBDE8-BC08-4808-BF41-F011F3E03A54";
paths = (
{
closed = 1;
nodes = (
"50 -8 OFFCURVE",
"54 -8 OFFCURVE",
"59 -6 CURVE",
"57 -2 OFFCURVE",
"57 4 OFFCURVE",
"57 8 CURVE SMOOTH",
"57 14 OFFCURVE",
"59 24 OFFCURVE",
"62 29 CURVE",
"386 634 LINE",
"387 624 OFFCURVE",
"387 613 OFFCURVE",
"387 600 CURVE SMOOTH",
"389 22 LINE SMOOTH",
"389 8 OFFCURVE",
"395 0 OFFCURVE",
"406 0 CURVE SMOOTH",
"723 0 LINE SMOOTH",
"735 0 OFFCURVE",
"733 22 OFFCURVE",
"723 26 CURVE",
"621 26 OFFCURVE",
"520 25 OFFCURVE",
"418 25 CURVE",
"416 662 LINE",
"514 662 OFFCURVE",
"612 662 OFFCURVE",
"710 662 CURVE",
"721 665 OFFCURVE",
"727 688 OFFCURVE",
"713 688 CURVE SMOOTH",
"435 688 LINE",
"419 688 OFFCURVE",
"403 688 OFFCURVE",
"387 688 CURVE",
"33 34 LINE SMOOTH",
"29 27 OFFCURVE",
"27 17 OFFCURVE",
"27 10 CURVE",
"26 -1 OFFCURVE",
"34 -8 OFFCURVE",
"45 -8 CURVE SMOOTH"
);
},
{
closed = 1;
nodes = (
"399 234 LINE",
"399 260 LINE",
"166 260 LINE",
"166 234 LINE"
);
},
{
closed = 1;
nodes = (
"691 354 LINE",
"694 363 OFFCURVE",
"694 371 OFFCURVE",
"691 380 CURVE",
"411 380 LINE",
"411 354 LINE"
);
}
);
width = 803;
},
{
anchors = (
{
name = bottom;
position = "{300, 0}";
},
{
name = ogonek;
position = "{509, -4}";
},
{
name = top;
position = "{300, 688}";
}
);
associatedMasterId = "60CFBDE8-BC08-4808-BF41-F011F3E03A54";
components = (
{
name = E;
transform = "{1, 0, 0, 1, 550, 0}";
}
);
layerId = "BFFA3DC0-208A-495A-88DD-E554074831AB";
name = "Light Sep 23 15, 16:04";
paths = (
{
closed = 1;
nodes = (
"320 -8 OFFCURVE",
"324 -8 OFFCURVE",
"329 -6 CURVE",
"327 -2 OFFCURVE",
"327 4 OFFCURVE",
"327 8 CURVE SMOOTH",
"327 14 OFFCURVE",
"329 24 OFFCURVE",
"332 29 CURVE SMOOTH",
"679 676 LINE",
"657 687 LINE",
"303 34 LINE SMOOTH",
"299 27 OFFCURVE",
"297 17 OFFCURVE",
"297 10 CURVE SMOOTH",
"296 -1 OFFCURVE",
"304 -8 OFFCURVE",
"315 -8 CURVE SMOOTH"
);
},
{
closed = 1;
nodes = (
"669 234 LINE",
"669 260 LINE",
"436 260 LINE",
"436 234 LINE"
);
}
);
width = 1073;
},
{
anchors = (
{
name = bottom;
position = "{9, 0}";
},
{
name = ogonek;
position = "{267, -15}";
},
{
name = top;
position = "{9, 700}";
}
);
associatedMasterId = "60CFBDE8-BC08-4808-BF41-F011F3E03A54";
components = (
{
name = E;
transform = "{1, 0, 0, 1, 324, 0}";
}
);
layerId = "3346EF75-EA29-4C89-AF45-D7777B10A2DC";
name = "Bold Sep 23 15, 16:06";
paths = (
{
closed = 1;
nodes = (
"417 694 OFFCURVE",
"355 687 OFFCURVE",
"309 672 CURVE",
"31 132 LINE SMOOTH",
"16 103 OFFCURVE",
"15 71 OFFCURVE",
"15 51 CURVE SMOOTH",
"15 4 OFFCURVE",
"42 -15 OFFCURVE",
"106 -15 CURVE SMOOTH",
"147 -15 OFFCURVE",
"171 -7 OFFCURVE",
"194 2 CURVE",
"187 10 OFFCURVE",
"182 21 OFFCURVE",
"182 40 CURVE SMOOTH",
"182 57 OFFCURVE",
"182 73 OFFCURVE",
"189 91 CURVE SMOOTH",
"410 629 LINE",
"463 694 LINE"
);
},
{
closed = 1;
nodes = (
"213 196 LINE",
"551 196 LINE",
"551 281 LINE",
"213 281 LINE"
);
}
);
width = 885;
},
{
anchors = (
{
name = bottom;
position = "{47, 0}";
},
{
name = ogonek;
position = "{296, -13}";
},
{
name = top;
position = "{47, 698}";
},
{
name = topleft;
position = "{370, 698}";
}
);
layerId = "EBFFFCD3-BAE4-48A5-9442-B72A90AD34A8";
paths = (
{
closed = 1;
nodes = (
"135 -14 OFFCURVE",
"155 -7 OFFCURVE",
"175 1 CURVE",
"169 8 OFFCURVE",
"165 18 OFFCURVE",
"165 34 CURVE SMOOTH",
"165 49 OFFCURVE",
"165 64 OFFCURVE",
"172 80 CURVE",
"399 603 LINE",
"404 577 OFFCURVE",
"404 554 OFFCURVE",
"404 533 CURVE SMOOTH",
"405 71 LINE SMOOTH",
"405 26 OFFCURVE",
"439 0 OFFCURVE",
"484 0 CURVE SMOOTH",
"802 0 LINE SMOOTH",
"847 0 OFFCURVE",
"845 103 OFFCURVE",
"810 125 CURVE",
"757 98 OFFCURVE",
"633 69 OFFCURVE",
"544 66 CURVE",
"544 632 LINE",
"629 629 OFFCURVE",
"717 608 OFFCURVE",
"785 576 CURVE",
"822 593 OFFCURVE",
"838 698 OFFCURVE",
"800 698 CURVE SMOOTH",
"518 698 LINE",
"466 698 OFFCURVE",
"372 688 OFFCURVE",
"328 675 CURVE",
"36 115 LINE SMOOTH",
"23 90 OFFCURVE",
"17 71 OFFCURVE",
"17 53 CURVE",
"17 12 OFFCURVE",
"46 -14 OFFCURVE",
"100 -14 CURVE SMOOTH"
);
},
{
closed = 1;
nodes = (
"529 203 LINE",
"529 277 LINE",
"210 277 LINE",
"210 203 LINE"
);
},
{
closed = 1;
nodes = (
"755 324 LINE",
"760 345 OFFCURVE",
"762 373 OFFCURVE",
"755 398 CURVE",
"518 398 LINE",
"518 324 LINE"
);
}
);
width = 875;
}
);
leftKerningGroup = AE;
leftMetricsKey = A;
rightKerningGroup = E;
rightMetricsKey = E;
unicode = 00C6;
},
{
glyphname = B;
lastChange = "2015-10-29 13:05:33 +0000";
layers = (
{
anchors = (
{
name = bottom;
position = "{275, 0}";
},
{
name = top;
position = "{275, 688}";
}
);
layerId = "60CFBDE8-BC08-4808-BF41-F011F3E03A54";
paths = (
{
closed = 1;
nodes = (
"209 0 LINE SMOOTH",
"385 0 OFFCURVE",
"484 31 OFFCURVE",
"484 178 CURVE SMOOTH",
"484 281 OFFCURVE",
"435 340 OFFCURVE",
"329 358 CURVE",
"410 385 OFFCURVE",
"449 447 OFFCURVE",
"449 530 CURVE SMOOTH",
"449 651 OFFCURVE",
"369 700 OFFCURVE",
"205 700 CURVE SMOOTH",
"124 700 OFFCURVE",
"104 689 OFFCURVE",
"101 687 CURVE",
"106 670 OFFCURVE",
"108 609 OFFCURVE",
"108 600 CURVE SMOOTH",
"108 22 LINE",
"109 8 OFFCURVE",
"115 0 OFFCURVE",
"127 0 CURVE SMOOTH"
);
},
{
closed = 1;
nodes = (
"138 672 LINE",
"148 675 OFFCURVE",
"168 676 OFFCURVE",
"195 676 CURVE SMOOTH",
"350 676 OFFCURVE",
"417 639 OFFCURVE",
"417 531 CURVE SMOOTH",
"417 415 OFFCURVE",
"335 370 OFFCURVE",
"254 370 CURVE SMOOTH",
"123 370 LINE",
"130 344 LINE",
"219 344 LINE SMOOTH",
"363 344 OFFCURVE",
"452 308 OFFCURVE",
"452 180 CURVE SMOOTH",
"452 48 OFFCURVE",
"359 28 OFFCURVE",
"220 28 CURVE SMOOTH",
"138 28 LINE"
);
}
);
width = 559;
},
{
anchors = (
{
name = bottom;
position = "{301, 0}";
},
{
name = top;
position = "{301, 698}";
}
);
layerId = "EBFFFCD3-BAE4-48A5-9442-B72A90AD34A8";
paths = (
{
closed = 1;
nodes = (
"276 0 LINE SMOOTH",
"457 0 OFFCURVE",
"562 66 OFFCURVE",
"562 199 CURVE SMOOTH",
"562 303 OFFCURVE",
"495 364 OFFCURVE",
"400 377 CURVE",
"480 398 OFFCURVE",
"528 462 OFFCURVE",
"528 544 CURVE SMOOTH",
"528 665 OFFCURVE",
"424 712 OFFCURVE",
"251 712 CURVE SMOOTH",
"165 712 OFFCURVE",
"105 701 OFFCURVE",
"63 681 CURVE",
"80 636 OFFCURVE",
"83 583 OFFCURVE",
"83 551 CURVE SMOOTH",
"83 71 LINE",
"83 26 OFFCURVE",
"117 0 OFFCURVE",
"163 0 CURVE SMOOTH"
);
},
{
closed = 1;
nodes = (
"223 664 LINE",
"232 664 OFFCURVE",
"242 664 OFFCURVE",
"253 664 CURVE SMOOTH",
"349 664 OFFCURVE",
"380 610 OFFCURVE",
"380 532 CURVE SMOOTH",
"380 451 OFFCURVE",
"349 393 OFFCURVE",
"269 395 CURVE SMOOTH",
"200 395 LINE",
"207 347 LINE",
"272 347 LINE SMOOTH",
"351 347 OFFCURVE",
"410 317 OFFCURVE",
"410 196 CURVE SMOOTH",
"410 113 OFFCURVE",
"373 48 OFFCURVE",
"270 48 CURVE SMOOTH",
"223 48 LINE"
);
}
);
width = 603;
}
);
leftKerningGroup = H;
leftMetricsKey = H;
rightKerningGroup = B;
unicode = 0042;
},
{
glyphname = C;
lastChange = "2015-10-29 13:05:33 +0000";
layers = (
{
anchors = (
{
name = bottom;
position = "{316, 0}";
},
{
name = top;
position = "{319, 688}";
}
);
guideLines = (
{
position = "{291, 345}";
},
{
angle = 50;
position = "{261, 345}";
},
{
angle = -50;
position = "{261, 345}";
}
);
layerId = "60CFBDE8-BC08-4808-BF41-F011F3E03A54";
paths = (
{
closed = 1;
nodes = (
"516 55 OFFCURVE",
"516 99 CURVE SMOOTH",
"516 112 OFFCURVE",
"505 114 OFFCURVE",
"492 114 CURVE",
"474 53 OFFCURVE",
"392 16 OFFCURVE",
"319 16 CURVE SMOOTH",
"183 16 OFFCURVE",
"102 128 OFFCURVE",
"102 344 CURVE SMOOTH",
"102 560 OFFCURVE",
"183 672 OFFCURVE",
"319 672 CURVE SMOOTH",
"402 672 OFFCURVE",
"458 643 OFFCURVE",
"470 603 CURVE",
"482 598 OFFCURVE",
"495 606 OFFCURVE",
"495 617 CURVE SMOOTH",
"495 654 OFFCURVE",
"425 700 OFFCURVE",
"319 700 CURVE SMOOTH",
"162 700 OFFCURVE",
"70 578 OFFCURVE",
"70 344 CURVE SMOOTH",
"70 110 OFFCURVE",
"162 -12 OFFCURVE",
"319 -12 CURVE SMOOTH",
"429 -12 OFFCURVE"
);
}
);
width = 576;
},
{
anchors = (
{
name = bottom;
position = "{314, 0}";
},
{
name = top;
position = "{337, 698}";
}
);
layerId = "EBFFFCD3-BAE4-48A5-9442-B72A90AD34A8";
paths = (
{
closed = 1;
nodes = (
"584 33 OFFCURVE",
"584 129 CURVE SMOOTH",
"584 184 OFFCURVE",
"522 207 OFFCURVE",
"467 199 CURVE",
"453 86 OFFCURVE",
"408 33 OFFCURVE",
"338 33 CURVE SMOOTH",
"243 33 OFFCURVE",
"201 138 OFFCURVE",
"201 349 CURVE SMOOTH",
"201 560 OFFCURVE",
"244 665 OFFCURVE",
"342 665 CURVE SMOOTH",
"407 665 OFFCURVE",
"445 617 OFFCURVE",
"455 511 CURVE",
"529 510 OFFCURVE",
"567 551 OFFCURVE",
"567 591 CURVE SMOOTH",
"567 670 OFFCURVE",
"448 712 OFFCURVE",
"340 712 CURVE SMOOTH",
"156 712 OFFCURVE",
"47 580 OFFCURVE",
"47 349 CURVE SMOOTH",
"47 118 OFFCURVE",
"152 -14 OFFCURVE",
"330 -14 CURVE SMOOTH",
"453 -14 OFFCURVE"
);
}
);
width = 619;
}
);
leftKerningGroup = O;
leftMetricsKey = O;
rightKerningGroup = C;
unicode = 0043;
},
{
color = 4;
glyphname = D;
lastChange = "2015-10-29 13:05:33 +0000";
layers = (
{
anchors = (
{
name = bottom;
position = "{285, 0}";
},
{
name = center;
position = "{310, 344}";
},
{
name = top;
position = "{303, 688}";
}
);
layerId = "60CFBDE8-BC08-4808-BF41-F011F3E03A54";
paths = (
{
closed = 1;
nodes = (
"295 0 LINE",
"463 0 OFFCURVE",
"559 100 OFFCURVE",
"559 344 CURVE SMOOTH",
"559 588 OFFCURVE",
"463 700 OFFCURVE",
"295 700 CURVE SMOOTH",
"247 700 OFFCURVE",
"153 698 OFFCURVE",
"101 695 CURVE",
"105 679 OFFCURVE",
"107 640 OFFCURVE",
"107 600 CURVE SMOOTH",
"109 22 LINE SMOOTH",
"109 8 OFFCURVE",
"115 0 OFFCURVE",
"126 0 CURVE"
);
},
{
closed = 1;
nodes = (
"136 672 LINE",
"295 672 LINE SMOOTH",
"440 672 OFFCURVE",
"527 570 OFFCURVE",
"527 344 CURVE SMOOTH",
"527 118 OFFCURVE",
"440 28 OFFCURVE",
"295 28 CURVE SMOOTH",
"138 28 LINE"
);
}
);
width = 629;
},
{
associatedMasterId = "60CFBDE8-BC08-4808-BF41-F011F3E03A54";
background = {
paths = (
{
closed = 1;
nodes = (
"233 634 LINE SMOOTH",
"233 685 OFFCURVE",
"193 715 OFFCURVE",
"140 715 CURVE SMOOTH",
"95 715 OFFCURVE",
"61 692 OFFCURVE",
"47 680 CURVE",
"67 629 OFFCURVE",
"70 578 OFFCURVE",
"70 540 CURVE SMOOTH",
"70 65 LINE SMOOTH",
"70 14 OFFCURVE",
"110 -16 OFFCURVE",
"163 -16 CURVE SMOOTH",
"208 -16 OFFCURVE",
"243 7 OFFCURVE",
"256 19 CURVE",
"236 70 OFFCURVE",
"233 121 OFFCURVE",
"233 159 CURVE SMOOTH"
);
}
);
};
layerId = "FC75D164-7CB1-4239-BF62-E7CB9325E57B";
name = "Bold Aug 11 15, 17:20";
paths = (
{
closed = 1;
nodes = (
"294 0 LINE SMOOTH",
"502 0 OFFCURVE",
"625 110 OFFCURVE",
"625 350 CURVE SMOOTH",
"625 590 OFFCURVE",
"502 710 OFFCURVE",
"294 710 CURVE SMOOTH",
"211 710 OFFCURVE",
"91 715 OFFCURVE",
"47 680 CURVE",
"67 629 OFFCURVE",
"70 578 OFFCURVE",
"70 540 CURVE SMOOTH",
"70 80 LINE SMOOTH",
"70 31 OFFCURVE",
"107 0 OFFCURVE",
"165 0 CURVE SMOOTH"
);
},
{
closed = 1;
nodes = (
"233 663 LINE",
"284 663 LINE SMOOTH",
"393 663 OFFCURVE",
"436 570 OFFCURVE",
"436 350 CURVE SMOOTH",
"436 130 OFFCURVE",
"393 52 OFFCURVE",
"284 52 CURVE SMOOTH",
"233 52 LINE"
);
}
);
width = 653;
},
{
associatedMasterId = "60CFBDE8-BC08-4808-BF41-F011F3E03A54";
background = {
paths = (
{
closed = 1;
nodes = (
"233 634 LINE SMOOTH",
"233 685 OFFCURVE",
"193 715 OFFCURVE",
"140 715 CURVE SMOOTH",
"95 715 OFFCURVE",
"61 692 OFFCURVE",
"47 680 CURVE",
"67 629 OFFCURVE",
"70 578 OFFCURVE",
"70 540 CURVE SMOOTH",
"70 65 LINE SMOOTH",
"70 14 OFFCURVE",
"110 -16 OFFCURVE",
"163 -16 CURVE SMOOTH",
"208 -16 OFFCURVE",
"243 7 OFFCURVE",
"256 19 CURVE",
"236 70 OFFCURVE",
"233 121 OFFCURVE",
"233 159 CURVE SMOOTH"
);
}
);
};
layerId = "81B3D987-C109-47C6-91D6-D189F1FB11A7";
name = "Bold Aug 24 15, 16:17";
paths = (
{
closed = 1;
nodes = (
"294 0 LINE SMOOTH",
"496 0 OFFCURVE",
"616 110 OFFCURVE",
"616 362 CURVE SMOOTH",
"616 590 OFFCURVE",
"496 710 OFFCURVE",
"294 710 CURVE SMOOTH",
"211 710 OFFCURVE",
"91 715 OFFCURVE",
"47 680 CURVE",
"67 629 OFFCURVE",
"70 578 OFFCURVE",
"70 540 CURVE SMOOTH",
"70 80 LINE SMOOTH",
"70 31 OFFCURVE",
"107 0 OFFCURVE",
"165 0 CURVE SMOOTH"
);
},
{
closed = 1;
nodes = (
"233 663 LINE",
"284 663 LINE SMOOTH",
"393 663 OFFCURVE",
"436 570 OFFCURVE",
"436 350 CURVE SMOOTH",
"436 130 OFFCURVE",
"393 52 OFFCURVE",
"284 52 CURVE SMOOTH",
"233 52 LINE"
);
}
);
width = 660;
},
{
associatedMasterId = "60CFBDE8-BC08-4808-BF41-F011F3E03A54";
background = {
paths = (
{
closed = 1;
nodes = (
"241 634 LINE SMOOTH",
"241 685 OFFCURVE",
"201 715 OFFCURVE",
"148 715 CURVE SMOOTH",
"103 715 OFFCURVE",
"69 692 OFFCURVE",
"55 680 CURVE",
"75 629 OFFCURVE",
"78 578 OFFCURVE",
"78 540 CURVE SMOOTH",
"78 65 LINE SMOOTH",
"78 14 OFFCURVE",
"118 -16 OFFCURVE",
"171 -16 CURVE SMOOTH",
"216 -16 OFFCURVE",
"251 7 OFFCURVE",
"264 19 CURVE",
"244 70 OFFCURVE",
"241 121 OFFCURVE",
"241 159 CURVE SMOOTH"
);
}
);
};
layerId = "A3D8210A-0071-458B-940B-6E6D612FAE4B";
name = "Bold Sep 16 15, 11:44";
paths = (
{
closed = 1;
nodes = (
"302 0 LINE SMOOTH",
"504 0 OFFCURVE",
"624 110 OFFCURVE",
"624 362 CURVE SMOOTH",
"624 590 OFFCURVE",
"504 710 OFFCURVE",
"302 710 CURVE SMOOTH",
"219 710 OFFCURVE",
"99 715 OFFCURVE",
"55 680 CURVE",
"75 629 OFFCURVE",
"78 578 OFFCURVE",
"78 540 CURVE SMOOTH",
"78 80 LINE SMOOTH",
"78 31 OFFCURVE",
"115 0 OFFCURVE",
"173 0 CURVE SMOOTH"
);
},
{
closed = 1;
nodes = (
"241 658 LINE",
"292 658 LINE SMOOTH",
"401 658 OFFCURVE",
"444 565 OFFCURVE",
"444 350 CURVE SMOOTH",
"444 130 OFFCURVE",
"401 52 OFFCURVE",
"292 52 CURVE SMOOTH",
"241 52 LINE"
);
}
);
width = 666;
},
{
associatedMasterId = "60CFBDE8-BC08-4808-BF41-F011F3E03A54";
background = {
paths = (
{
closed = 1;
nodes = (
"241 634 LINE SMOOTH",
"241 685 OFFCURVE",
"201 715 OFFCURVE",
"148 715 CURVE SMOOTH",
"103 715 OFFCURVE",
"69 692 OFFCURVE",
"55 680 CURVE",
"75 629 OFFCURVE",
"78 578 OFFCURVE",
"78 540 CURVE SMOOTH",
"78 65 LINE SMOOTH",
"78 14 OFFCURVE",
"118 -16 OFFCURVE",
"171 -16 CURVE SMOOTH",
"216 -16 OFFCURVE",
"251 7 OFFCURVE",
"264 19 CURVE",
"244 70 OFFCURVE",
"241 121 OFFCURVE",
"241 159 CURVE SMOOTH"
);
}
);
};
layerId = "E8FCF7F6-6C47-4C01-AEFB-830D027D0CA6";
name = "Bold Sep 16 15, 11:45";
paths = (
{
closed = 1;
nodes = (
"302 0 LINE SMOOTH",
"504 0 OFFCURVE",
"624 110 OFFCURVE",
"624 362 CURVE SMOOTH",
"624 590 OFFCURVE",
"504 710 OFFCURVE",
"292 710 CURVE SMOOTH",
"219 710 OFFCURVE",
"109 700 OFFCURVE",
"55 680 CURVE",
"75 629 OFFCURVE",
"78 578 OFFCURVE",
"78 540 CURVE SMOOTH",
"78 80 LINE SMOOTH",
"78 31 OFFCURVE",
"115 0 OFFCURVE",
"173 0 CURVE SMOOTH"
);
},
{
closed = 1;
nodes = (
"241 658 LINE",
"292 658 LINE SMOOTH",
"401 658 OFFCURVE",
"444 565 OFFCURVE",
"444 350 CURVE SMOOTH",
"444 130 OFFCURVE",
"401 52 OFFCURVE",
"292 52 CURVE SMOOTH",
"241 52 LINE"
);
}
);
width = 666;
},
{
anchors = (
{
name = bottom;
position = "{293, 0}";
},
{
name = center;
position = "{323, 349}";
},
{
name = top;
position = "{316, 698}";
}
);
layerId = "EBFFFCD3-BAE4-48A5-9442-B72A90AD34A8";
paths = (
{
closed = 1;
nodes = (
"295 0 LINE",
"491 0 OFFCURVE",
"607 108 OFFCURVE",
"607 359 CURVE SMOOTH",
"607 590 OFFCURVE",
"491 708 OFFCURVE",
"287 708 CURVE SMOOTH",
"218 708 OFFCURVE",
"118 707 OFFCURVE",
"63 699 CURVE",
"80 654 OFFCURVE",
"77 589 OFFCURVE",
"77 551 CURVE SMOOTH",
"78 70 LINE SMOOTH",
"78 27 OFFCURVE",
"109 0 OFFCURVE",
"159 0 CURVE"
);
},
{
closed = 1;
nodes = (
"217 660 LINE",
"287 660 LINE SMOOTH",
"402 660 OFFCURVE",
"453 566 OFFCURVE",
"453 349 CURVE SMOOTH",
"453 128 OFFCURVE",
"402 48 OFFCURVE",
"287 48 CURVE SMOOTH",
"217 48 LINE"
);
}
);
width = 654;
}
);
leftKerningGroup = H;
leftMetricsKey = H;
rightKerningGroup = O;
rightMetricsKey = O;
unicode = 0044;
},
{
color = 4;
glyphname = Eth;
lastChange = "2015-10-29 13:05:33 +0000";
layers = (
{
components = (
{
name = D;
}
);
layerId = "60CFBDE8-BC08-4808-BF41-F011F3E03A54";
paths = (
{
closed = 1;
nodes = (
"23 353 OFFCURVE",
"23 344 OFFCURVE",
"27 336 CURVE",
"310 336 LINE",
"314 344 OFFCURVE",
"314 353 OFFCURVE",
"310 361 CURVE",
"27 361 LINE"
);
}
);
width = 619;
},
{
components = (
{
name = D;
}
);
layerId = "EBFFFCD3-BAE4-48A5-9442-B72A90AD34A8";
paths = (
{
closed = 1;
nodes = (
"15 358 OFFCURVE",
"15 342 OFFCURVE",
"21 324 CURVE",
"341 324 LINE",
"346 342 OFFCURVE",
"346 358 OFFCURVE",
"341 375 CURVE",
"21 375 LINE"
);
}
);
width = 658;
}
);
leftKerningGroup = Eth;
rightKerningGroup = O;
unicode = 00D0;
},
{
glyphname = E;
lastChange = "2015-10-29 13:05:33 +0000";
layers = (
{
anchors = (
{
name = bottom;
position = "{262, 0}";
},
{
name = ogonek;
position = "{378, 2}";
},
{
name = top;
position = "{276, 688}";
},
{
name = topleft;
position = "{20, 688}";
}
);
layerId = "60CFBDE8-BC08-4808-BF41-F011F3E03A54";
paths = (
{
closed = 1;
nodes = (
"443 0 LINE",
"455 0 OFFCURVE",
"453 22 OFFCURVE",
"443 26 CURVE",
"341 26 OFFCURVE",
"240 25 OFFCURVE",
"138 25 CURVE",
"136 662 LINE",
"238 662 OFFCURVE",
"328 662 OFFCURVE",
"430 662 CURVE",
"441 665 OFFCURVE",
"447 688 OFFCURVE",
"433 688 CURVE",
"119 688 LINE SMOOTH",
"110 688 OFFCURVE",
"105 685 OFFCURVE",
"101 680 CURVE",
"105 664 OFFCURVE",
"107 640 OFFCURVE",
"107 600 CURVE SMOOTH",
"109 22 LINE SMOOTH",
"109 8 OFFCURVE",
"115 0 OFFCURVE",
"126 0 CURVE SMOOTH"
);
},
{
closed = 1;
nodes = (
"411 354 LINE",
"414 363 OFFCURVE",
"414 371 OFFCURVE",
"411 380 CURVE",
"131 380 LINE",
"131 354 LINE"
);
}
);
width = 523;
},
{
associatedMasterId = "60CFBDE8-BC08-4808-BF41-F011F3E03A54";
layerId = "DABC5CA4-B7A8-4A1F-94B2-EB6056A49D21";
name = "Bold Aug 11 15, 17:13";
paths = (
{
closed = 1;
nodes = (
"316 591 OFFCURVE",
"419 592 OFFCURVE",
"481 574 CURVE",
"524 616 OFFCURVE",
"524 700 OFFCURVE",
"481 700 CURVE SMOOTH",
"198 700 LINE SMOOTH",
"123 700 OFFCURVE",
"89 695 OFFCURVE",
"47 659 CURVE",
"67 608 OFFCURVE",
"70 557 OFFCURVE",
"70 519 CURVE SMOOTH",
"70 81 LINE SMOOTH",
"70 30 OFFCURVE",
"110 0 OFFCURVE",
"163 0 CURVE SMOOTH",
"481 0 LINE SMOOTH",
"533 0 OFFCURVE",
"551 109 OFFCURVE",
"491 146 CURVE",
"448 113 OFFCURVE",
"319 109 OFFCURVE",
"233 106 CURVE",
"233 594 LINE"
);
},
{
closed = 1;
nodes = (
"203 317 LINE",
"431 317 LINE",
"458 337 OFFCURVE",
"476 390 OFFCURVE",
"445 423 CURVE",
"203 423 LINE"
);
}
);
width = 600;
},
{
associatedMasterId = "60CFBDE8-BC08-4808-BF41-F011F3E03A54";
layerId = "D7C35F38-5724-4C79-A23F-4927B29C2A1B";
name = "Bold Aug 24 15, 17:15";
paths = (
{
closed = 1;
nodes = (
"481 0 LINE SMOOTH",
"533 0 OFFCURVE",
"531 121 OFFCURVE",
"491 146 CURVE",
"448 113 OFFCURVE",
"319 58 OFFCURVE",
"233 55 CURVE",
"233 645 LINE",
"316 642 OFFCURVE",
"401 596 OFFCURVE",
"463 557 CURVE",
"506 577 OFFCURVE",
"524 700 OFFCURVE",
"481 700 CURVE SMOOTH",
"198 700 LINE SMOOTH",
"123 700 OFFCURVE",
"89 695 OFFCURVE",
"47 659 CURVE",
"67 608 OFFCURVE",
"70 557 OFFCURVE",
"70 519 CURVE SMOOTH",
"70 81 LINE SMOOTH",
"70 30 OFFCURVE",
"110 0 OFFCURVE",
"163 0 CURVE SMOOTH"
);
},
{
closed = 1;
nodes = (
"431 317 LINE",
"436 341 OFFCURVE",
"439 373 OFFCURVE",
"431 402 CURVE",
"203 402 LINE",
"203 317 LINE"
);
}
);
width = 541;
},
{
anchors = (
{
name = bottom;
position = "{278, 0}";
},
{
name = ogonek;
position = "{423, -10}";
},
{
name = top;
position = "{280, 698}";
},
{
name = topleft;
position = "{20, 698}";
}
);
layerId = "EBFFFCD3-BAE4-48A5-9442-B72A90AD34A8";
paths = (
{
closed = 1;
nodes = (
"481 0 LINE",
"526 0 OFFCURVE",
"524 103 OFFCURVE",
"489 125 CURVE",
"436 98 OFFCURVE",
"311 69 OFFCURVE",
"223 66 CURVE",
"222 632 LINE",
"309 629 OFFCURVE",
"395 608 OFFCURVE",
"464 576 CURVE",
"501 593 OFFCURVE",
"517 698 OFFCURVE",
"479 698 CURVE",
"190 698 LINE SMOOTH",
"127 698 OFFCURVE",
"98 693 OFFCURVE",
"63 663 CURVE",
"80 618 OFFCURVE",
"83 572 OFFCURVE",
"83 533 CURVE SMOOTH",
"83 71 LINE SMOOTH",
"83 26 OFFCURVE",
"117 0 OFFCURVE",
"163 0 CURVE SMOOTH"
);
},
{
closed = 1;
nodes = (
"434 324 LINE",
"439 345 OFFCURVE",
"441 373 OFFCURVE",
"434 398 CURVE",
"197 398 LINE",
"197 324 LINE"
);
}
);
width = 554;
}
);
leftKerningGroup = H;
leftMetricsKey = H;
rightKerningGroup = E;
unicode = 0045;
},
{
glyphname = F;
lastChange = "2015-10-29 13:05:33 +0000";
layers = (
{
anchors = (
{
name = bottom;
position = "{253, 0}";
},
{
name = top;
position = "{253, 688}";
}
);
layerId = "60CFBDE8-BC08-4808-BF41-F011F3E03A54";
paths = (
{
closed = 1;
nodes = (
"135 -8 OFFCURVE",
"140 -4 OFFCURVE",
"144 0 CURVE",
"140 16 OFFCURVE",
"138 47 OFFCURVE",
"138 87 CURVE SMOOTH",
"136 662 LINE",
"238 662 OFFCURVE",
"328 662 OFFCURVE",
"430 662 CURVE",
"441 665 OFFCURVE",
"447 688 OFFCURVE",
"433 688 CURVE",
"119 688 LINE SMOOTH",
"110 688 OFFCURVE",
"105 685 OFFCURVE",
"101 680 CURVE",
"105 664 OFFCURVE",
"107 640 OFFCURVE",
"107 600 CURVE SMOOTH",
"109 14 LINE SMOOTH",
"109 0 OFFCURVE",
"115 -8 OFFCURVE",
"126 -8 CURVE SMOOTH"
);
},
{
closed = 1;
nodes = (
"409 346 LINE",
"412 355 OFFCURVE",
"412 363 OFFCURVE",
"409 372 CURVE",
"131 372 LINE",
"131 346 LINE"
);
}
);
width = 505;
},
{
associatedMasterId = "60CFBDE8-BC08-4808-BF41-F011F3E03A54";
layerId = "19184986-F610-420D-B269-5F2EA25FA4BA";
name = "Bold Aug 24 15, 16:50";
paths = (
{
closed = 1;
nodes = (
"208 -16 OFFCURVE",
"243 7 OFFCURVE",
"256 19 CURVE",
"236 70 OFFCURVE",
"233 121 OFFCURVE",
"233 159 CURVE SMOOTH",
"233 649 LINE",
"316 646 OFFCURVE",
"401 596 OFFCURVE",
"463 557 CURVE",
"506 577 OFFCURVE",
"524 700 OFFCURVE",
"481 700 CURVE SMOOTH",
"198 700 LINE SMOOTH",
"123 700 OFFCURVE",
"89 695 OFFCURVE",
"47 659 CURVE",
"67 608 OFFCURVE",
"70 557 OFFCURVE",
"70 519 CURVE SMOOTH",
"70 65 LINE SMOOTH",
"70 14 OFFCURVE",
"110 -16 OFFCURVE",
"163 -16 CURVE SMOOTH"
);
},
{
closed = 1;
nodes = (
"431 317 LINE",
"436 341 OFFCURVE",
"439 373 OFFCURVE",
"431 402 CURVE",
"203 402 LINE",
"203 317 LINE"
);
}
);
width = 526;
},
{
anchors = (
{
name = bottom;
position = "{266.992, 0}";
},
{
name = top;
position = "{267, 698}";
}
);
layerId = "EBFFFCD3-BAE4-48A5-9442-B72A90AD34A8";
paths = (
{
closed = 1;
nodes = (
"202 -15 OFFCURVE",
"231 5 OFFCURVE",
"243 16 CURVE",
"225 60 OFFCURVE",
"223 108 OFFCURVE",
"223 146 CURVE SMOOTH",
"222 632 LINE",
"309 629 OFFCURVE",
"395 608 OFFCURVE",
"464 576 CURVE",
"501 593 OFFCURVE",
"517 698 OFFCURVE",
"479 698 CURVE",
"190 698 LINE SMOOTH",
"127 698 OFFCURVE",
"98 693 OFFCURVE",
"63 663 CURVE",
"80 618 OFFCURVE",
"83 572 OFFCURVE",
"83 533 CURVE SMOOTH",
"83 56 LINE SMOOTH",
"83 12 OFFCURVE",
"117 -15 OFFCURVE",
"163 -15 CURVE SMOOTH"
);
},
{
closed = 1;
nodes = (
"434 322 LINE",
"438 343 OFFCURVE",
"441 371 OFFCURVE",
"434 397 CURVE",
"197 397 LINE",
"197 322 LINE"
);
}
);
width = 534;
}
);
leftKerningGroup = H;
leftMetricsKey = H;
rightKerningGroup = F;
unicode = 0046;
},
{
glyphname = G;
lastChange = "2015-10-29 13:05:33 +0000";
layers = (
{
anchors = (
{
name = bottom;
position = "{322, 0}";
},
{
name = top;
position = "{322, 688}";
}
);
layerId = "60CFBDE8-BC08-4808-BF41-F011F3E03A54";
paths = (
{
closed = 1;
nodes = (
"517 -12 OFFCURVE",
"534 144 OFFCURVE",
"534 218 CURVE SMOOTH",
"534 345 OFFCURVE",
"484 380 OFFCURVE",
"443 380 CURVE SMOOTH",
"425 380 OFFCURVE",
"415 373 OFFCURVE",
"416 359 CURVE",
"467 359 OFFCURVE",
"503 321 OFFCURVE",
"503 220 CURVE SMOOTH",
"503 146 OFFCURVE",
"484 16 OFFCURVE",
"326 16 CURVE SMOOTH",
"180 16 OFFCURVE",
"102 128 OFFCURVE",
"102 344 CURVE SMOOTH",
"102 560 OFFCURVE",
"180 672 OFFCURVE",
"324 672 CURVE SMOOTH",
"398 672 OFFCURVE",
"459 643 OFFCURVE",
"470 603 CURVE",
"484 598 OFFCURVE",
"495 606 OFFCURVE",
"495 619 CURVE SMOOTH",
"495 653 OFFCURVE",
"423 700 OFFCURVE",
"322 700 CURVE SMOOTH",
"160 700 OFFCURVE",
"70 578 OFFCURVE",
"70 343 CURVE SMOOTH",
"70 110 OFFCURVE",
"159 -12 OFFCURVE",
"327 -12 CURVE SMOOTH"
);
}
);
width = 599;
},
{
associatedMasterId = "60CFBDE8-BC08-4808-BF41-F011F3E03A54";
layerId = "94348DB7-D152-4170-9078-3768E8045D1E";
name = "Light Aug 11 15, 17:25";
paths = (
{
closed = 1;
nodes = (
"507 -12 OFFCURVE",
"524 139 OFFCURVE",
"524 259 CURVE SMOOTH",
"524 339 OFFCURVE",
"474 380 OFFCURVE",
"433 380 CURVE SMOOTH",
"415 380 OFFCURVE",
"405 373 OFFCURVE",
"406 359 CURVE",
"457 359 OFFCURVE",
"493 322 OFFCURVE",
"493 258 CURVE SMOOTH",
"493 139 OFFCURVE",
"474 16 OFFCURVE",
"309 16 CURVE SMOOTH",
"173 16 OFFCURVE",
"92 128 OFFCURVE",
"92 346 CURVE SMOOTH",
"92 559 OFFCURVE",
"170 672 OFFCURVE",
"314 672 CURVE SMOOTH",
"388 672 OFFCURVE",
"449 643 OFFCURVE",
"460 603 CURVE",
"474 598 OFFCURVE",
"485 606 OFFCURVE",
"485 619 CURVE SMOOTH",
"485 653 OFFCURVE",
"413 700 OFFCURVE",
"312 700 CURVE SMOOTH",
"150 700 OFFCURVE",
"60 577 OFFCURVE",
"60 345 CURVE SMOOTH",
"60 110 OFFCURVE",
"152 -12 OFFCURVE",
"309 -12 CURVE SMOOTH"
);
}
);
width = 600;
},
{
anchors = (
{
name = bottom;
position = "{345, 0}";
},
{
name = top;
position = "{344, 698}";
}
);
layerId = "EBFFFCD3-BAE4-48A5-9442-B72A90AD34A8";
paths = (
{
closed = 1;
nodes = (
"483 -14 OFFCURVE",
"610 70 OFFCURVE",
"610 257 CURVE SMOOTH",
"610 352 OFFCURVE",
"561 398 OFFCURVE",
"492 398 CURVE SMOOTH",
"457 398 OFFCURVE",
"422 385 OFFCURVE",
"409 357 CURVE",
"460 332 OFFCURVE",
"468 273 OFFCURVE",
"468 222 CURVE SMOOTH",
"468 144 OFFCURVE",
"449 33 OFFCURVE",
"354 33 CURVE SMOOTH",
"247 33 OFFCURVE",
"201 138 OFFCURVE",
"201 349 CURVE SMOOTH",
"201 560 OFFCURVE",
"248 665 OFFCURVE",
"358 665 CURVE SMOOTH",
"419 665 OFFCURVE",
"455 617 OFFCURVE",
"465 511 CURVE",
"539 510 OFFCURVE",
"577 551 OFFCURVE",
"577 592 CURVE SMOOTH",
"577 669 OFFCURVE",
"460 712 OFFCURVE",
"356 712 CURVE SMOOTH",
"162 712 OFFCURVE",
"47 580 OFFCURVE",
"47 349 CURVE SMOOTH",
"47 118 OFFCURVE",
"157 -14 OFFCURVE",
"346 -14 CURVE SMOOTH"
);
}
);
width = 656;
}
);
leftKerningGroup = O;
leftMetricsKey = O;
rightKerningGroup = G;
unicode = 0047;
},
{
glyphname = H;
lastChange = "2015-10-29 13:05:33 +0000";
layers = (
{
anchors = (
{
name = bottom;
position = "{331, 0}";
},
{
name = center;
position = "{331, 344}";
},
{
name = top;
position = "{331, 688}";
},
{
name = topleft;
position = "{20, 688}";
}
);
layerId = "60CFBDE8-BC08-4808-BF41-F011F3E03A54";
paths = (
{
closed = 1;
nodes = (
"138 673 LINE SMOOTH",
"138 687 OFFCURVE",
"130 695 OFFCURVE",
"119 695 CURVE SMOOTH",
"110 695 OFFCURVE",
"105 691 OFFCURVE",
"101 687 CURVE",
"105 671 OFFCURVE",
"107 640 OFFCURVE",
"107 600 CURVE SMOOTH",
"109 14 LINE SMOOTH",
"109 0 OFFCURVE",
"115 -8 OFFCURVE",
"126 -8 CURVE SMOOTH",
"135 -8 OFFCURVE",
"140 -4 OFFCURVE",
"144 0 CURVE",
"140 16 OFFCURVE",
"138 47 OFFCURVE",
"138 87 CURVE SMOOTH"
);
},
{
closed = 1;
nodes = (
"555 673 LINE SMOOTH",
"555 687 OFFCURVE",
"547 695 OFFCURVE",
"536 695 CURVE SMOOTH",
"527 695 OFFCURVE",
"522 691 OFFCURVE",
"518 687 CURVE",
"522 671 OFFCURVE",
"524 640 OFFCURVE",
"524 600 CURVE SMOOTH",
"526 14 LINE SMOOTH",
"526 0 OFFCURVE",
"532 -8 OFFCURVE",
"543 -8 CURVE SMOOTH",
"552 -8 OFFCURVE",
"557 -4 OFFCURVE",
"561 0 CURVE",
"557 16 OFFCURVE",
"555 47 OFFCURVE",
"555 87 CURVE SMOOTH"
);
},
{
closed = 1;
nodes = (
"130 354 LINE",
"541 354 LINE",
"541 380 LINE",
"130 380 LINE"
);
}
);
width = 662;
},
{
associatedMasterId = "60CFBDE8-BC08-4808-BF41-F011F3E03A54";
layerId = "8147B843-1D1E-4E40-A23A-CDDF041F227C";
name = "Bold Aug 11 15, 17:13";
paths = (
{
closed = 1;
nodes = (
"233 634 LINE SMOOTH",
"233 685 OFFCURVE",
"193 715 OFFCURVE",
"140 715 CURVE SMOOTH",
"95 715 OFFCURVE",
"61 692 OFFCURVE",
"47 680 CURVE",
"67 629 OFFCURVE",
"70 578 OFFCURVE",
"70 540 CURVE SMOOTH",
"70 65 LINE SMOOTH",
"70 14 OFFCURVE",
"110 -16 OFFCURVE",
"163 -16 CURVE SMOOTH",
"208 -16 OFFCURVE",
"243 7 OFFCURVE",
"256 19 CURVE",
"236 70 OFFCURVE",
"233 121 OFFCURVE",
"233 159 CURVE SMOOTH"
);
},
{
closed = 1;
nodes = (
"613 634 LINE SMOOTH",
"613 685 OFFCURVE",
"573 715 OFFCURVE",
"520 715 CURVE SMOOTH",
"475 715 OFFCURVE",
"441 692 OFFCURVE",
"427 680 CURVE",
"447 629 OFFCURVE",
"450 578 OFFCURVE",
"450 540 CURVE SMOOTH",
"450 65 LINE SMOOTH",
"450 14 OFFCURVE",
"490 -16 OFFCURVE",
"543 -16 CURVE SMOOTH",
"588 -16 OFFCURVE",
"623 7 OFFCURVE",
"636 19 CURVE",
"616 70 OFFCURVE",
"613 121 OFFCURVE",
"613 159 CURVE SMOOTH"
);
},
{
closed = 1;
nodes = (
"169 338 LINE",
"497 338 LINE",
"497 423 LINE",
"169 423 LINE"
);
}
);
width = 691;
},
{
associatedMasterId = "60CFBDE8-BC08-4808-BF41-F011F3E03A54";
layerId = "5116D27B-B252-4277-ADD8-AC29A88BC019";
name = "Bold Aug 25 15, 13:54";
paths = (
{
closed = 1;
nodes = (
"233 634 LINE SMOOTH",
"233 685 OFFCURVE",
"193 715 OFFCURVE",
"140 715 CURVE SMOOTH",
"95 715 OFFCURVE",
"61 692 OFFCURVE",
"47 680 CURVE",
"67 629 OFFCURVE",
"70 578 OFFCURVE",
"70 540 CURVE SMOOTH",
"70 65 LINE SMOOTH",
"70 14 OFFCURVE",
"110 -16 OFFCURVE",
"163 -16 CURVE SMOOTH",
"208 -16 OFFCURVE",
"243 7 OFFCURVE",
"256 19 CURVE",
"236 70 OFFCURVE",
"233 121 OFFCURVE",
"233 159 CURVE SMOOTH"
);
},
{
closed = 1;
nodes = (
"613 634 LINE SMOOTH",
"613 685 OFFCURVE",
"573 715 OFFCURVE",
"520 715 CURVE SMOOTH",
"475 715 OFFCURVE",
"441 692 OFFCURVE",
"427 680 CURVE",
"447 629 OFFCURVE",
"450 578 OFFCURVE",
"450 540 CURVE SMOOTH",
"450 65 LINE SMOOTH",
"450 14 OFFCURVE",
"490 -16 OFFCURVE",
"543 -16 CURVE SMOOTH",
"588 -16 OFFCURVE",
"623 7 OFFCURVE",
"636 19 CURVE",
"616 70 OFFCURVE",
"613 121 OFFCURVE",
"613 159 CURVE SMOOTH"
);
},
{
closed = 1;
nodes = (
"169 321 LINE",
"497 321 LINE",
"497 406 LINE",
"169 406 LINE"
);
}
);
width = 691;
},
{
associatedMasterId = "60CFBDE8-BC08-4808-BF41-F011F3E03A54";
layerId = "3617BBFE-9914-4BDC-A393-8825D1DED523";
name = "Light Aug 25 15, 14:26";
paths = (
{
closed = 1;
nodes = (
"127 673 LINE SMOOTH",
"127 687 OFFCURVE",
"121 695 OFFCURVE",
"110 695 CURVE SMOOTH",
"101 695 OFFCURVE",
"96 691 OFFCURVE",
"92 687 CURVE",
"96 671 OFFCURVE",
"98 640 OFFCURVE",
"98 600 CURVE SMOOTH",
"100 14 LINE SMOOTH",
"100 0 OFFCURVE",
"106 -8 OFFCURVE",
"117 -8 CURVE SMOOTH",
"126 -8 OFFCURVE",
"131 -4 OFFCURVE",
"135 0 CURVE",
"131 16 OFFCURVE",
"129 47 OFFCURVE",
"129 87 CURVE SMOOTH"
);
},
{
closed = 1;
nodes = (
"544 673 LINE SMOOTH",
"544 687 OFFCURVE",
"538 695 OFFCURVE",
"527 695 CURVE SMOOTH",
"518 695 OFFCURVE",
"513 691 OFFCURVE",
"509 687 CURVE",
"513 671 OFFCURVE",
"515 640 OFFCURVE",
"515 600 CURVE SMOOTH",
"517 14 LINE SMOOTH",
"517 0 OFFCURVE",
"523 -8 OFFCURVE",
"534 -8 CURVE SMOOTH",
"543 -8 OFFCURVE",
"548 -4 OFFCURVE",
"552 0 CURVE",
"548 16 OFFCURVE",
"546 47 OFFCURVE",
"546 87 CURVE SMOOTH"
);
},
{
closed = 1;
nodes = (
"121 354 LINE",
"532 354 LINE",
"532 380 LINE",
"121 380 LINE"
);
}
);
width = 644;
},
{
associatedMasterId = "60CFBDE8-BC08-4808-BF41-F011F3E03A54";
layerId = "C3948034-F613-405E-AE60-FC0C71D6F68C";
name = "Light Aug 25 15, 14:27";
paths = (
{
closed = 1;
nodes = (
"122 673 LINE SMOOTH",
"122 687 OFFCURVE",
"116 695 OFFCURVE",
"105 695 CURVE SMOOTH",
"96 695 OFFCURVE",
"91 691 OFFCURVE",
"87 687 CURVE",
"91 671 OFFCURVE",
"93 640 OFFCURVE",
"93 600 CURVE SMOOTH",
"95 14 LINE SMOOTH",
"95 0 OFFCURVE",
"101 -8 OFFCURVE",
"112 -8 CURVE SMOOTH",
"121 -8 OFFCURVE",
"126 -4 OFFCURVE",
"130 0 CURVE",
"126 16 OFFCURVE",
"124 47 OFFCURVE",
"124 87 CURVE SMOOTH"
);
},
{
closed = 1;
nodes = (
"539 673 LINE SMOOTH",
"539 687 OFFCURVE",
"533 695 OFFCURVE",
"522 695 CURVE SMOOTH",
"513 695 OFFCURVE",
"508 691 OFFCURVE",
"504 687 CURVE",
"508 671 OFFCURVE",
"510 640 OFFCURVE",
"510 600 CURVE SMOOTH",
"512 14 LINE SMOOTH",
"512 0 OFFCURVE",
"518 -8 OFFCURVE",
"529 -8 CURVE SMOOTH",
"538 -8 OFFCURVE",
"543 -4 OFFCURVE",
"547 0 CURVE",
"543 16 OFFCURVE",
"541 47 OFFCURVE",
"541 87 CURVE SMOOTH"
);
},
{
closed = 1;
nodes = (
"116 354 LINE",
"527 354 LINE",
"527 380 LINE",
"116 380 LINE"
);
}
);
width = 644;
},
{
associatedMasterId = "60CFBDE8-BC08-4808-BF41-F011F3E03A54";
layerId = "676EC7C0-28BE-4D1A-B7D5-C414F8EFD7B7";
name = "Light Aug 26 15, 10:42";
paths = (
{
closed = 1;
nodes = (
"150 673 LINE SMOOTH",
"150 687 OFFCURVE",
"144 695 OFFCURVE",
"133 695 CURVE SMOOTH",
"124 695 OFFCURVE",
"119 691 OFFCURVE",
"115 687 CURVE",
"119 671 OFFCURVE",
"121 640 OFFCURVE",
"121 600 CURVE SMOOTH",
"123 14 LINE SMOOTH",
"123 0 OFFCURVE",
"129 -8 OFFCURVE",
"140 -8 CURVE SMOOTH",
"149 -8 OFFCURVE",
"154 -4 OFFCURVE",
"158 0 CURVE",
"154 16 OFFCURVE",
"152 47 OFFCURVE",
"152 87 CURVE SMOOTH"
);
},
{
closed = 1;
nodes = (
"567 673 LINE SMOOTH",
"567 687 OFFCURVE",
"561 695 OFFCURVE",
"550 695 CURVE SMOOTH",
"541 695 OFFCURVE",
"536 691 OFFCURVE",
"532 687 CURVE",
"536 671 OFFCURVE",
"538 640 OFFCURVE",
"538 600 CURVE SMOOTH",
"540 14 LINE SMOOTH",
"540 0 OFFCURVE",
"546 -8 OFFCURVE",
"557 -8 CURVE SMOOTH",
"566 -8 OFFCURVE",
"571 -4 OFFCURVE",
"575 0 CURVE",
"571 16 OFFCURVE",
"569 47 OFFCURVE",
"569 87 CURVE SMOOTH"
);
},
{
closed = 1;
nodes = (
"144 354 LINE",
"555 354 LINE",
"555 380 LINE",
"144 380 LINE"
);
}
);
width = 690;
},
{
anchors = (
{
name = bottom;
position = "{351, 0}";
},
{
name = center;
position = "{351, 349}";
},
{
name = top;
position = "{351, 698}";
},
{
name = topleft;
position = "{20, 698}";
}
);
layerId = "EBFFFCD3-BAE4-48A5-9442-B72A90AD34A8";
paths = (
{
closed = 1;
nodes = (
"223 641 LINE SMOOTH",
"223 685 OFFCURVE",
"188 711 OFFCURVE",
"143 711 CURVE SMOOTH",
"104 711 OFFCURVE",
"75 692 OFFCURVE",
"63 681 CURVE",
"80 636 OFFCURVE",
"83 589 OFFCURVE",
"83 551 CURVE SMOOTH",
"83 56 LINE SMOOTH",
"83 12 OFFCURVE",
"117 -15 OFFCURVE",
"163 -15 CURVE SMOOTH",
"202 -15 OFFCURVE",
"231 5 OFFCURVE",
"243 16 CURVE",
"225 60 OFFCURVE",
"223 108 OFFCURVE",
"223 146 CURVE SMOOTH"
);
},
{
closed = 1;
nodes = (
"618 641 LINE SMOOTH",
"618 685 OFFCURVE",
"583 711 OFFCURVE",
"538 711 CURVE SMOOTH",
"499 711 OFFCURVE",
"470 692 OFFCURVE",
"458 681 CURVE",
"475 636 OFFCURVE",
"478 589 OFFCURVE",
"478 551 CURVE SMOOTH",
"478 56 LINE SMOOTH",
"478 12 OFFCURVE",
"512 -15 OFFCURVE",
"558 -15 CURVE SMOOTH",
"597 -15 OFFCURVE",
"626 5 OFFCURVE",
"638 16 CURVE",
"620 60 OFFCURVE",
"618 108 OFFCURVE",
"618 146 CURVE SMOOTH"
);
},
{
closed = 1;
nodes = (
"169 327 LINE",
"520 327 LINE",
"520 401 LINE",
"169 401 LINE"
);
}
);
width = 701;
}
);
leftKerningGroup = H;
rightKerningGroup = H;
unicode = 0048;
},
{
color = 4;
glyphname = Hbar;
lastChange = "2015-10-29 13:05:33 +0000";
layers = (
{
components = (
{
name = H;
}
);
layerId = "60CFBDE8-BC08-4808-BF41-F011F3E03A54";
paths = (
{
closed = 1;
nodes = (
"52 570 OFFCURVE",
"52 561 OFFCURVE",
"56 553 CURVE",
"605 553 LINE",
"609 561 OFFCURVE",
"609 570 OFFCURVE",
"605 578 CURVE",
"56 578 LINE"
);
}
);
width = 662;
},
{
components = (
{
name = H;
}
);
layerId = "EBFFFCD3-BAE4-48A5-9442-B72A90AD34A8";
paths = (
{
closed = 1;
nodes = (
"26 549 OFFCURVE",
"26 532 OFFCURVE",
"32 515 CURVE",
"661 515 LINE",
"667 532 OFFCURVE",
"667 549 OFFCURVE",
"661 566 CURVE",
"32 566 LINE"
);
}
);
width = 701;
}
);
leftKerningGroup = H;
rightKerningGroup = H;
unicode = 0126;
},
{
glyphname = I;
lastChange = "2015-10-29 13:05:33 +0000";
layers = (
{
anchors = (
{
name = bottom;
position = "{123, 0}";
},
{
name = ogonek;
position = "{124, -1}";
},
{
name = top;
position = "{119, 688}";
},
{
name = topleft;
position = "{20, 688}";
}
);
layerId = "60CFBDE8-BC08-4808-BF41-F011F3E03A54";
paths = (
{
closed = 1;
nodes = (
"135 -8 OFFCURVE",
"140 -4 OFFCURVE",
"144 0 CURVE",
"140 16 OFFCURVE",
"138 47 OFFCURVE",
"138 87 CURVE SMOOTH",
"138 673 LINE SMOOTH",
"138 687 OFFCURVE",
"130 695 OFFCURVE",
"119 695 CURVE SMOOTH",
"110 695 OFFCURVE",
"105 691 OFFCURVE",
"101 687 CURVE",
"105 671 OFFCURVE",
"107 640 OFFCURVE",
"107 600 CURVE SMOOTH",
"109 14 LINE SMOOTH",
"109 0 OFFCURVE",
"115 -8 OFFCURVE",
"126 -8 CURVE SMOOTH"
);
}
);
width = 245;
},
{
anchors = (
{
name = bottom;
position = "{167, 0}";
},
{
name = ogonek;
position = "{173, -8}";
},
{
name = top;
position = "{139, 698}";
},
{
name = topleft;
position = "{20, 698}";
}
);
layerId = "EBFFFCD3-BAE4-48A5-9442-B72A90AD34A8";
paths = (
{
closed = 1;
nodes = (
"202 -15 OFFCURVE",
"231 5 OFFCURVE",
"243 16 CURVE",
"225 60 OFFCURVE",
"223 108 OFFCURVE",
"223 146 CURVE SMOOTH",
"223 641 LINE SMOOTH",
"223 685 OFFCURVE",
"188 711 OFFCURVE",
"143 711 CURVE SMOOTH",
"104 711 OFFCURVE",
"75 692 OFFCURVE",
"63 681 CURVE",
"80 636 OFFCURVE",
"83 589 OFFCURVE",
"83 551 CURVE SMOOTH",
"83 56 LINE SMOOTH",
"83 12 OFFCURVE",
"117 -15 OFFCURVE",
"163 -15 CURVE SMOOTH"
);
}
);
width = 306;
}
);
leftKerningGroup = H;
leftMetricsKey = H;
rightKerningGroup = H;
rightMetricsKey = H;
unicode = 0049;
},
{
glyphname = J;
lastChange = "2015-10-29 13:05:33 +0000";
layers = (
{
anchors = (
{
name = bottom;
position = "{212, 0}";
},
{
name = top;
position = "{212, 688}";
}
);
layerId = "60CFBDE8-BC08-4808-BF41-F011F3E03A54";
paths = (
{
closed = 1;
nodes = (
"303 -12 OFFCURVE",
"317 91 OFFCURVE",
"317 161 CURVE SMOOTH",
"317 631 LINE SMOOTH",
"317 653 OFFCURVE",
"317 676 OFFCURVE",
"320 698 CURVE",
"305 696 OFFCURVE",
"287 693 OFFCURVE",
"258 694 CURVE SMOOTH",
"223 695 OFFCURVE",
"162 700 OFFCURVE",
"145 700 CURVE SMOOTH",
"104 700 OFFCURVE",
"84 672 OFFCURVE",
"84 646 CURVE SMOOTH",
"84 615 OFFCURVE",
"102 594 OFFCURVE",
"121 594 CURVE SMOOTH",
"125 594 OFFCURVE",
"133 594 OFFCURVE",
"139 599 CURVE",
"122 607 OFFCURVE",
"112 618 OFFCURVE",
"112 640 CURVE SMOOTH",
"112 676 OFFCURVE",
"142 679 OFFCURVE",
"163 677 CURVE SMOOTH",
"213 674 OFFCURVE",
"246 671 OFFCURVE",
"287 672 CURVE",
"287 659 OFFCURVE",
"287 646 OFFCURVE",
"287 633 CURVE",
"287 164 LINE SMOOTH",
"287 72 OFFCURVE",
"265 16 OFFCURVE",
"172 16 CURVE SMOOTH",
"135 16 OFFCURVE",
"80 35 OFFCURVE",
"80 100 CURVE SMOOTH",
"80 107 OFFCURVE",
"80 114 OFFCURVE",
"82 122 CURVE",
"81 122 OFFCURVE",
"80 122 OFFCURVE",
"79 122 CURVE SMOOTH",
"60 122 OFFCURVE",
"53 104 OFFCURVE",
"53 90 CURVE SMOOTH",
"53 37 OFFCURVE",
"95 -12 OFFCURVE",
"174 -12 CURVE SMOOTH"
);
}
);
width = 419;
},
{
associatedMasterId = "60CFBDE8-BC08-4808-BF41-F011F3E03A54";
layerId = "58FBF628-3C4D-4C23-BCE2-FE5AC3B82DAD";
name = "Bold Aug 24 15, 16:17";
paths = (
{
closed = 1;
nodes = (
"404 -15 OFFCURVE",
"463 73 OFFCURVE",
"463 207 CURVE SMOOTH",
"463 634 LINE SMOOTH",
"463 682 OFFCURVE",
"467 702 OFFCURVE",
"470 715 CURVE",
"440 712 OFFCURVE",
"397 709 OFFCURVE",
"356 709 CURVE SMOOTH",
"288 709 OFFCURVE",
"250 715 OFFCURVE",
"206 715 CURVE SMOOTH",
"121 715 OFFCURVE",
"76 680 OFFCURVE",
"76 621 CURVE SMOOTH",
"76 560 OFFCURVE",
"123 531 OFFCURVE",
"168 531 CURVE SMOOTH",
"193 531 OFFCURVE",
"216 537 OFFCURVE",
"232 549 CURVE",
"216 560 OFFCURVE",
"199 580 OFFCURVE",
"199 613 CURVE SMOOTH",
"199 655 OFFCURVE",
"224 665 OFFCURVE",
"248 665 CURVE SMOOTH",
"259 665 OFFCURVE",
"294 664 OFFCURVE",
"311 663 CURVE",
"300 648 OFFCURVE",
"300 617 OFFCURVE",
"300 582 CURVE SMOOTH",
"300 186 LINE SMOOTH",
"300 110 OFFCURVE",
"295 30 OFFCURVE",
"245 30 CURVE SMOOTH",
"212 30 OFFCURVE",
"198 64 OFFCURVE",
"198 99 CURVE SMOOTH",
"198 124 OFFCURVE",
"204 147 OFFCURVE",
"217 171 CURVE",
"202 196 OFFCURVE",
"180 207 OFFCURVE",
"145 207 CURVE SMOOTH",
"83 207 OFFCURVE",
"55 158 OFFCURVE",
"55 106 CURVE SMOOTH",
"55 47 OFFCURVE",
"101 -15 OFFCURVE",
"244 -15 CURVE SMOOTH"
);
}
);
width = 540;
},
{
associatedMasterId = "60CFBDE8-BC08-4808-BF41-F011F3E03A54";
layerId = "C419A7FD-F881-4D21-A74D-E19334A6A7B4";
name = "Bold Aug 24 15, 16:50";
paths = (
{
closed = 1;
nodes = (
"404 -15 OFFCURVE",
"463 73 OFFCURVE",
"463 207 CURVE SMOOTH",
"463 634 LINE SMOOTH",
"463 682 OFFCURVE",
"467 702 OFFCURVE",
"470 715 CURVE",
"440 712 OFFCURVE",
"397 709 OFFCURVE",
"356 709 CURVE SMOOTH",
"288 709 OFFCURVE",
"250 715 OFFCURVE",
"206 715 CURVE SMOOTH",
"121 715 OFFCURVE",
"76 680 OFFCURVE",
"76 621 CURVE SMOOTH",
"76 560 OFFCURVE",
"123 531 OFFCURVE",
"168 531 CURVE SMOOTH",
"193 531 OFFCURVE",
"216 537 OFFCURVE",
"232 549 CURVE",
"216 560 OFFCURVE",
"199 580 OFFCURVE",
"199 613 CURVE SMOOTH",
"199 650 OFFCURVE",
"224 660 OFFCURVE",
"248 660 CURVE SMOOTH",
"259 660 OFFCURVE",
"294 659 OFFCURVE",
"311 658 CURVE",
"300 643 OFFCURVE",
"300 617 OFFCURVE",
"300 582 CURVE SMOOTH",
"300 186 LINE SMOOTH",
"300 110 OFFCURVE",
"295 37 OFFCURVE",
"245 37 CURVE SMOOTH",
"212 37 OFFCURVE",
"198 71 OFFCURVE",
"198 99 CURVE SMOOTH",
"198 124 OFFCURVE",
"204 147 OFFCURVE",
"217 171 CURVE",
"202 196 OFFCURVE",
"180 207 OFFCURVE",
"145 207 CURVE SMOOTH",
"83 207 OFFCURVE",
"55 158 OFFCURVE",
"55 106 CURVE SMOOTH",
"55 47 OFFCURVE",
"101 -15 OFFCURVE",
"244 -15 CURVE SMOOTH"
);
}
);
width = 540;
},
{
associatedMasterId = "60CFBDE8-BC08-4808-BF41-F011F3E03A54";
layerId = "AAEAA38A-8CFF-4733-B1FC-BACF8BDBCA4B";
name = "Bold Aug 25 15, 14:45";
paths = (
{
closed = 1;
nodes = (
"404 -15 OFFCURVE",
"463 73 OFFCURVE",
"463 207 CURVE SMOOTH",
"463 634 LINE SMOOTH",
"463 682 OFFCURVE",
"467 702 OFFCURVE",
"470 715 CURVE",
"440 712 OFFCURVE",
"397 709 OFFCURVE",
"356 709 CURVE SMOOTH",
"288 709 OFFCURVE",
"243 715 OFFCURVE",
"199 715 CURVE SMOOTH",
"114 715 OFFCURVE",
"69 680 OFFCURVE",
"69 621 CURVE SMOOTH",
"69 560 OFFCURVE",
"116 531 OFFCURVE",
"161 531 CURVE SMOOTH",
"186 531 OFFCURVE",
"209 537 OFFCURVE",
"225 549 CURVE",
"209 560 OFFCURVE",
"192 580 OFFCURVE",
"192 613 CURVE SMOOTH",
"192 650 OFFCURVE",
"217 660 OFFCURVE",
"241 660 CURVE SMOOTH",
"252 660 OFFCURVE",
"294 659 OFFCURVE",
"311 658 CURVE",
"300 643 OFFCURVE",
"300 617 OFFCURVE",
"300 582 CURVE SMOOTH",
"300 186 LINE SMOOTH",
"300 110 OFFCURVE",
"295 37 OFFCURVE",
"245 37 CURVE SMOOTH",
"212 37 OFFCURVE",
"198 71 OFFCURVE",
"198 99 CURVE SMOOTH",
"198 124 OFFCURVE",
"204 147 OFFCURVE",
"217 171 CURVE",
"202 196 OFFCURVE",
"180 207 OFFCURVE",
"145 207 CURVE SMOOTH",
"83 207 OFFCURVE",
"55 158 OFFCURVE",
"55 106 CURVE SMOOTH",
"55 47 OFFCURVE",
"101 -15 OFFCURVE",
"244 -15 CURVE SMOOTH"
);
}
);
width = 540;
},
{
anchors = (
{
name = bottom;
position = "{252, 0}";
},
{
name = top;
position = "{252, 698}";
}
);
layerId = "EBFFFCD3-BAE4-48A5-9442-B72A90AD34A8";
paths = (
{
closed = 1;
nodes = (
"368 -14 OFFCURVE",
"420 76 OFFCURVE",
"420 199 CURVE SMOOTH",
"420 633 LINE SMOOTH",
"420 677 OFFCURVE",
"423 697 OFFCURVE",
"426 712 CURVE",
"398 709 OFFCURVE",
"360 706 OFFCURVE",
"321 706 CURVE SMOOTH",
"259 707 OFFCURVE",
"211 712 OFFCURVE",
"172 712 CURVE SMOOTH",
"95 712 OFFCURVE",
"54 679 OFFCURVE",
"54 625 CURVE SMOOTH",
"54 570 OFFCURVE",
"96 542 OFFCURVE",
"136 542 CURVE SMOOTH",
"158 542 OFFCURVE",
"178 547 OFFCURVE",
"192 558 CURVE",
"176 568 OFFCURVE",
"160 587 OFFCURVE",
"160 618 CURVE SMOOTH",
"160 650 OFFCURVE",
"186 659 OFFCURVE",
"210 659 CURVE SMOOTH",
"227 658 OFFCURVE",
"268 657 OFFCURVE",
"289 656 CURVE",
"280 642 OFFCURVE",
"280 618 OFFCURVE",
"280 591 CURVE",
"280 182 LINE SMOOTH",
"280 103 OFFCURVE",
"272 33 OFFCURVE",
"214 33 CURVE SMOOTH",
"181 33 OFFCURVE",
"159 65 OFFCURVE",
"159 99 CURVE SMOOTH",
"159 121 OFFCURVE",
"164 141 OFFCURVE",
"175 162 CURVE",
"163 183 OFFCURVE",
"145 192 OFFCURVE",
"116 192 CURVE SMOOTH",
"61 192 OFFCURVE",
"37 148 OFFCURVE",
"37 103 CURVE SMOOTH",
"37 45 OFFCURVE",
"82 -14 OFFCURVE",
"214 -14 CURVE SMOOTH"
);
}
);
width = 499;
}
);
leftKerningGroup = J;
rightKerningGroup = J;
unicode = 004A;
},
{
glyphname = K;
lastChange = "2015-10-29 13:05:33 +0000";
layers = (
{
anchors = (
{
name = bottom;
position = "{281, 0}";
},
{
name = top;
position = "{281, 688}";
}
);
layerId = "60CFBDE8-BC08-4808-BF41-F011F3E03A54";
paths = (
{
closed = 1;
nodes = (
"509 -8 OFFCURVE",
"536 1 OFFCURVE",
"536 22 CURVE SMOOTH",
"536 27 OFFCURVE",
"535 32 OFFCURVE",
"531 37 CURVE",
"522 22 OFFCURVE",
"505 20 OFFCURVE",
"498 20 CURVE SMOOTH",
"483 20 OFFCURVE",
"470 29 OFFCURVE",
"460 61 CURVE SMOOTH",
"410 223 LINE SMOOTH",
"388 292 OFFCURVE",
"347 345 OFFCURVE",
"247 355 CURVE",
"241 344 LINE",
"394 387 OFFCURVE",
"452 516 OFFCURVE",
"452 621 CURVE SMOOTH",
"452 677 OFFCURVE",
"437 699 OFFCURVE",
"422 699 CURVE SMOOTH",
"415 699 OFFCURVE",
"408 694 OFFCURVE",
"402 687 CURVE",
"409 676 OFFCURVE",
"420 655 OFFCURVE",
"420 614 CURVE SMOOTH",
"420 503 OFFCURVE",
"332 361 OFFCURVE",
"171 361 CURVE SMOOTH",
"159 361 OFFCURVE",
"142 361 OFFCURVE",
"130 361 CURVE",
"131 335 LINE",
"171 335 LINE SMOOTH",
"331 335 OFFCURVE",
"355 283 OFFCURVE",
"379 221 CURVE SMOOTH",
"434 45 LINE SMOOTH",
"444 12 OFFCURVE",
"471 -8 OFFCURVE",
"494 -8 CURVE SMOOTH"
);
},
{
closed = 1;
nodes = (
"135 -8 OFFCURVE",
"140 -4 OFFCURVE",
"144 0 CURVE",
"140 16 OFFCURVE",
"138 47 OFFCURVE",
"138 87 CURVE",
"136 673 LINE",
"136 687 OFFCURVE",
"130 695 OFFCURVE",
"119 695 CURVE SMOOTH",
"110 695 OFFCURVE",
"105 691 OFFCURVE",
"101 687 CURVE",
"105 671 OFFCURVE",
"107 640 OFFCURVE",
"107 600 CURVE SMOOTH",
"109 14 LINE SMOOTH",
"109 0 OFFCURVE",
"115 -8 OFFCURVE",
"126 -8 CURVE SMOOTH"
);
}
);
width = 554;
},
{
associatedMasterId = "60CFBDE8-BC08-4808-BF41-F011F3E03A54";
layerId = "DEAEA600-0143-4D22-A67D-623B785DCEFB";
name = "Bold Aug 24 15, 15:38";
paths = (
{
closed = 1;
nodes = (
"208 -16 OFFCURVE",
"243 7 OFFCURVE",
"256 19 CURVE",
"236 70 OFFCURVE",
"233 121 OFFCURVE",
"233 159 CURVE SMOOTH",
"233 634 LINE SMOOTH",
"233 685 OFFCURVE",
"193 715 OFFCURVE",
"140 715 CURVE SMOOTH",
"95 715 OFFCURVE",
"61 692 OFFCURVE",
"47 680 CURVE",
"67 629 OFFCURVE",
"70 578 OFFCURVE",
"70 540 CURVE SMOOTH",
"70 65 LINE SMOOTH",
"70 14 OFFCURVE",
"110 -16 OFFCURVE",
"163 -16 CURVE SMOOTH"
);
},
{
closed = 1;
nodes = (
"568 -22 OFFCURVE",
"624 4 OFFCURVE",
"624 64 CURVE SMOOTH",
"624 76 OFFCURVE",
"621 90 OFFCURVE",
"615 106 CURVE",
"607 102 OFFCURVE",
"600 100 OFFCURVE",
"593 101 CURVE SMOOTH",
"572 102 OFFCURVE",
"554 125 OFFCURVE",
"532 177 CURVE",
"494 259 LINE SMOOTH",
"461 314 OFFCURVE",
"412 353 OFFCURVE",
"301 350 CURVE",
"247 304 LINE",
"306 302 OFFCURVE",
"326 260 OFFCURVE",
"345 210 CURVE SMOOTH",
"366 151 LINE SMOOTH",
"409 43 OFFCURVE",
"432 -22 OFFCURVE",
"533 -22 CURVE SMOOTH"
);
},
{
closed = 1;
nodes = (
"500 417 OFFCURVE",
"568 501 OFFCURVE",
"568 607 CURVE SMOOTH",
"568 700 OFFCURVE",
"506 708 OFFCURVE",
"460 708 CURVE SMOOTH",
"439 708 OFFCURVE",
"418 702 OFFCURVE",
"401 695 CURVE",
"408 684 OFFCURVE",
"421 673 OFFCURVE",
"421 634 CURVE SMOOTH",
"421 543 OFFCURVE",
"366 416 OFFCURVE",
"259 354 CURVE",
"286 320 LINE"
);
}
);
width = 600;
},
{
associatedMasterId = "60CFBDE8-BC08-4808-BF41-F011F3E03A54";
layerId = "FF607C59-724C-4CCC-8163-C3D66920AAF8";
name = "Light Aug 24 15, 17:20";
paths = (
{
closed = 1;
nodes = (
"126 -8 OFFCURVE",
"131 -4 OFFCURVE",
"135 0 CURVE",
"131 16 OFFCURVE",
"129 47 OFFCURVE",
"129 87 CURVE SMOOTH",
"127 673 LINE SMOOTH",
"127 687 OFFCURVE",
"121 695 OFFCURVE",
"110 695 CURVE SMOOTH",
"101 695 OFFCURVE",
"96 691 OFFCURVE",
"92 687 CURVE",
"96 671 OFFCURVE",
"98 640 OFFCURVE",
"98 600 CURVE SMOOTH",
"100 14 LINE SMOOTH",
"100 0 OFFCURVE",
"106 -8 OFFCURVE",
"117 -8 CURVE SMOOTH"
);
},
{
closed = 1;
nodes = (
"165 364 OFFCURVE",
"134 364 OFFCURVE",
"106 365 CURVE",
"113 338 LINE",
"246 338 LINE SMOOTH",
"321 338 OFFCURVE",
"333 282 OFFCURVE",
"366 200 CURVE SMOOTH",
"428 45 LINE SMOOTH",
"441 12 OFFCURVE",
"465 -8 OFFCURVE",
"488 -8 CURVE SMOOTH",
"503 -8 OFFCURVE",
"530 1 OFFCURVE",
"530 22 CURVE SMOOTH",
"530 27 OFFCURVE",
"529 32 OFFCURVE",
"525 37 CURVE",
"516 22 OFFCURVE",
"499 20 OFFCURVE",
"492 20 CURVE SMOOTH",
"477 20 OFFCURVE",
"467 29 OFFCURVE",
"454 61 CURVE SMOOTH",
"397 202 LINE SMOOTH",
"360 293 OFFCURVE",
"346 364 OFFCURVE",
"245 364 CURVE"
);
},
{
closed = 1;
nodes = (
"413 410 OFFCURVE",
"465 517 OFFCURVE",
"465 622 CURVE SMOOTH",
"465 678 OFFCURVE",
"450 700 OFFCURVE",
"435 700 CURVE SMOOTH",
"428 700 OFFCURVE",
"421 695 OFFCURVE",
"415 688 CURVE",
"422 677 OFFCURVE",
"433 656 OFFCURVE",
"433 615 CURVE SMOOTH",
"433 514 OFFCURVE",
"346 391 OFFCURVE",
"218 365 CURVE",
"242 353 LINE"
);
}
);
width = 600;
},
{
associatedMasterId = "60CFBDE8-BC08-4808-BF41-F011F3E03A54";
layerId = "F15CB726-9DCD-440A-BBDC-A5FCE582A295";
name = "Light Aug 24 15, 17:24";
paths = (
{
closed = 1;
nodes = (
"490 -8 OFFCURVE",
"517 1 OFFCURVE",
"517 22 CURVE SMOOTH",
"517 27 OFFCURVE",
"516 32 OFFCURVE",
"512 37 CURVE",
"503 22 OFFCURVE",
"486 20 OFFCURVE",
"479 20 CURVE SMOOTH",
"464 20 OFFCURVE",
"451 29 OFFCURVE",
"441 61 CURVE SMOOTH",
"391 226 LINE SMOOTH",
"369 298 OFFCURVE",
"342 353 OFFCURVE",
"253 360 CURVE",
"247 349 LINE",
"382 392 OFFCURVE",
"433 520 OFFCURVE",
"433 621 CURVE SMOOTH",
"433 677 OFFCURVE",
"418 699 OFFCURVE",
"403 699 CURVE SMOOTH",
"396 699 OFFCURVE",
"389 694 OFFCURVE",
"383 687 CURVE",
"390 676 OFFCURVE",
"401 655 OFFCURVE",
"401 614 CURVE SMOOTH",
"401 506 OFFCURVE",
"324 364 OFFCURVE",
"182 364 CURVE SMOOTH",
"162 364 OFFCURVE",
"142 364 OFFCURVE",
"121 364 CURVE",
"122 338 LINE",
"209 338 LINE SMOOTH",
"321 338 OFFCURVE",
"340 286 OFFCURVE",
"360 224 CURVE SMOOTH",
"415 45 LINE SMOOTH",
"425 12 OFFCURVE",
"452 -8 OFFCURVE",
"475 -8 CURVE SMOOTH"
);
},
{
closed = 1;
nodes = (
"126 -8 OFFCURVE",
"131 -4 OFFCURVE",
"135 0 CURVE",
"131 16 OFFCURVE",
"129 47 OFFCURVE",
"129 87 CURVE",
"127 673 LINE",
"127 687 OFFCURVE",
"121 695 OFFCURVE",
"110 695 CURVE SMOOTH",
"101 695 OFFCURVE",
"96 691 OFFCURVE",
"92 687 CURVE",
"96 671 OFFCURVE",
"98 640 OFFCURVE",
"98 600 CURVE SMOOTH",
"100 14 LINE SMOOTH",
"100 0 OFFCURVE",
"106 -8 OFFCURVE",
"117 -8 CURVE SMOOTH"
);
}
);
width = 600;
},
{
anchors = (
{
name = bottom;
position = "{335, 0}";
},
{
name = top;
position = "{312, 698}";
}
);
layerId = "EBFFFCD3-BAE4-48A5-9442-B72A90AD34A8";
paths = (
{
closed = 1;
nodes = (
"571 -20 OFFCURVE",
"605 14 OFFCURVE",
"605 56 CURVE SMOOTH",
"605 67 OFFCURVE",
"602 80 OFFCURVE",
"597 94 CURVE",
"588 88 OFFCURVE",
"581 86 OFFCURVE",
"573 87 CURVE SMOOTH",
"550 89 OFFCURVE",
"539 105 OFFCURVE",
"515 156 CURVE SMOOTH",
"471 258 LINE SMOOTH",
"445 317 OFFCURVE",
"404 349 OFFCURVE",
"309 353 CURVE",
"307 342 LINE",
"475 397 OFFCURVE",
"544 509 OFFCURVE",
"544 605 CURVE SMOOTH",
"544 691 OFFCURVE",
"490 706 OFFCURVE",
"448 706 CURVE SMOOTH",
"426 706 OFFCURVE",
"411 702 OFFCURVE",
"391 694 CURVE",
"398 683 OFFCURVE",
"409 655 OFFCURVE",
"409 614 CURVE SMOOTH",
"409 531 OFFCURVE",
"357 405 OFFCURVE",
"245 370 CURVE SMOOTH",
"234 366 OFFCURVE",
"221 363 OFFCURVE",
"208 361 CURVE",
"209 313 LINE",
"238 313 LINE SMOOTH",
"308 313 OFFCURVE",
"333 257 OFFCURVE",
"348 214 CURVE SMOOTH",
"375 132 LINE SMOOTH",
"399 64 OFFCURVE",
"430 -20 OFFCURVE",
"516 -20 CURVE SMOOTH"
);
},
{
closed = 1;
nodes = (
"202 -15 OFFCURVE",
"231 5 OFFCURVE",
"243 16 CURVE",
"225 60 OFFCURVE",
"223 108 OFFCURVE",
"223 146 CURVE",
"222 641 LINE",
"222 685 OFFCURVE",
"188 711 OFFCURVE",
"143 711 CURVE SMOOTH",
"104 711 OFFCURVE",
"75 692 OFFCURVE",
"63 681 CURVE",
"80 636 OFFCURVE",
"83 589 OFFCURVE",
"83 551 CURVE SMOOTH",
"83 56 LINE SMOOTH",
"83 12 OFFCURVE",
"117 -15 OFFCURVE",
"163 -15 CURVE SMOOTH"
);
}
);
width = 621;
}
);
leftKerningGroup = H;
leftMetricsKey = H;
rightKerningGroup = K;
unicode = 004B;
},
{
glyphname = L;
lastChange = "2015-10-29 13:05:33 +0000";
layers = (
{
anchors = (
{
name = bottom;
position = "{261, 0}";
},
{
name = center;
position = "{228, 344}";
},
{
name = top;
position = "{136, 687}";
},
{
name = topright;
position = "{436, 688}";
}
);
layerId = "60CFBDE8-BC08-4808-BF41-F011F3E03A54";
paths = (
{
closed = 1;
nodes = (
"136 687 OFFCURVE",
"130 695 OFFCURVE",
"119 695 CURVE SMOOTH",
"110 695 OFFCURVE",
"105 691 OFFCURVE",
"101 687 CURVE",
"105 671 OFFCURVE",
"107 640 OFFCURVE",
"107 600 CURVE SMOOTH",
"109 22 LINE SMOOTH",
"109 8 OFFCURVE",
"115 0 OFFCURVE",
"126 0 CURVE SMOOTH",
"413 0 LINE",
"425 0 OFFCURVE",
"423 22 OFFCURVE",
"413 26 CURVE",
"321 26 OFFCURVE",
"230 25 OFFCURVE",
"138 25 CURVE",
"136 673 LINE SMOOTH"
);
}
);
width = 456;
},
{
anchors = (
{
name = bottom;
position = "{282, 0}";
},
{
name = center;
position = "{254, 349}";
},
{
name = top;
position = "{165, 698}";
},
{
name = topright;
position = "{297, 698}";
}
);
layerId = "EBFFFCD3-BAE4-48A5-9442-B72A90AD34A8";
paths = (
{
closed = 1;
nodes = (
"222 685 OFFCURVE",
"188 711 OFFCURVE",
"143 711 CURVE SMOOTH",
"104 711 OFFCURVE",
"75 692 OFFCURVE",
"63 681 CURVE",
"80 636 OFFCURVE",
"83 589 OFFCURVE",
"83 551 CURVE SMOOTH",
"83 71 LINE SMOOTH",
"83 26 OFFCURVE",
"117 0 OFFCURVE",
"163 0 CURVE SMOOTH",
"459 0 LINE",
"504 0 OFFCURVE",
"502 110 OFFCURVE",
"467 133 CURVE",
"416 103 OFFCURVE",
"310 76 OFFCURVE",
"223 74 CURVE",
"222 641 LINE SMOOTH"
);
}
);
width = 508;
}
);
leftKerningGroup = H;
leftMetricsKey = H;
rightKerningGroup = L;
unicode = 004C;
},
{
glyphname = Lcaron;
lastChange = "2015-10-29 13:05:33 +0000";
layers = (
{
components = (
{
name = L;
}
);
layerId = "60CFBDE8-BC08-4808-BF41-F011F3E03A54";
paths = (
{
closed = 1;
nodes = (
"263 727 OFFCURVE",
"275 727 OFFCURVE",
"286 724 CURVE",
"288 685 OFFCURVE",
"286 646 OFFCURVE",
"280 607 CURVE",
"258 607 LINE",
"261 644 OFFCURVE",
"259 683 OFFCURVE",
"252 724 CURVE"
);
}
);
width = 456;
},
{
components = (
{
name = L;
}
);
layerId = "EBFFFCD3-BAE4-48A5-9442-B72A90AD34A8";
paths = (
{
closed = 1;
nodes = (
"326 763 OFFCURVE",
"377 762 OFFCURVE",
"411 750 CURVE",
"411 683 OFFCURVE",
"389 612 OFFCURVE",
"364 562 CURVE",
"306 562 LINE",
"312 614 OFFCURVE",
"310 692 OFFCURVE",
"288 750 CURVE"
);
}
);
width = 508;
}
);
leftKerningGroup = H;
leftMetricsKey = L;
rightKerningGroup = L;
rightMetricsKey = L;
unicode = 013D;
},
{
color = 4;
glyphname = Lslash;
lastChange = "2015-10-29 13:05:33 +0000";
layers = (
{
components = (
{
name = L;
}
);
layerId = "60CFBDE8-BC08-4808-BF41-F011F3E03A54";
paths = (
{
closed = 1;
nodes = (
"39 176 OFFCURVE",
"45 171 OFFCURVE",
"55 169 CURVE",
"277 389 LINE",
"274 398 OFFCURVE",
"268 404 OFFCURVE",
"259 407 CURVE",
"37 186 LINE"
);
}
);
width = 456;
},
{
components = (
{
name = L;
}
);
layerId = "EBFFFCD3-BAE4-48A5-9442-B72A90AD34A8";
paths = (
{
closed = 1;
nodes = (
"5 146 OFFCURVE",
"17 133 OFFCURVE",
"34 129 CURVE",
"354 450 LINE",
"350 468 OFFCURVE",
"337 481 OFFCURVE",
"318 486 CURVE",
"-1 165 LINE"
);
}
);
width = 508;
}
);
leftKerningGroup = H;
rightKerningGroup = L;
unicode = 0141;
},
{
glyphname = M;
lastChange = "2015-10-29 13:05:33 +0000";
layers = (
{
anchors = (
{
name = bottom;
position = "{425, 0}";
},
{
name = top;
position = "{425, 688}";
}
);
layerId = "60CFBDE8-BC08-4808-BF41-F011F3E03A54";
paths = (
{
closed = 1;
nodes = (
"741 673 LINE",
"741 687 OFFCURVE",
"735 695 OFFCURVE",
"724 695 CURVE SMOOTH",
"719 695 OFFCURVE",
"713 694 OFFCURVE",
"709 691 CURVE",
"615 515 OFFCURVE",
"520 332 OFFCURVE",
"426 156 CURVE",
"434 161 LINE",
"334 336 OFFCURVE",
"232 511 OFFCURVE",
"132 686 CURVE",
"129 692 OFFCURVE",
"124 695 OFFCURVE",
"117 695 CURVE SMOOTH",
"109 695 OFFCURVE",
"105 691 OFFCURVE",
"101 687 CURVE",
"105 671 OFFCURVE",
"107 640 OFFCURVE",
"107 600 CURVE SMOOTH",
"109 14 LINE SMOOTH",
"109 0 OFFCURVE",
"114 -8 OFFCURVE",
"124 -8 CURVE SMOOTH",
"133 -8 OFFCURVE",
"138 -4 OFFCURVE",
"142 0 CURVE",
"138 16 OFFCURVE",
"136 47 OFFCURVE",
"136 87 CURVE",
"134 635 LINE",
"130 629 LINE",
"225 466 OFFCURVE",
"320 299 OFFCURVE",
"415 136 CURVE",
"425 129 OFFCURVE",
"436 129 OFFCURVE",
"446 136 CURVE",
"718 645 LINE",
"712 647 LINE",
"714 14 LINE SMOOTH",
"714 0 OFFCURVE",
"720 -8 OFFCURVE",
"731 -8 CURVE SMOOTH",
"740 -8 OFFCURVE",
"745 -4 OFFCURVE",
"749 0 CURVE",
"745 16 OFFCURVE",
"743 47 OFFCURVE",
"743 87 CURVE SMOOTH"
);
}
);
width = 850;
},
{
associatedMasterId = "60CFBDE8-BC08-4808-BF41-F011F3E03A54";
layerId = "00E9146C-174D-48DB-8E36-3DDC2A90225B";
name = "Bold Aug 24 15, 15:40";
paths = (
{
closed = 1;
nodes = (
"103 -15 OFFCURVE",
"141 7 OFFCURVE",
"149 19 CURVE",
"129 70 OFFCURVE",
"129 95 OFFCURVE",
"126 159 CURVE SMOOTH",
"106 634 LINE SMOOTH",
"104 685 OFFCURVE",
"106 716 OFFCURVE",
"74 716 CURVE SMOOTH",
"45 716 OFFCURVE",
"30 700 OFFCURVE",
"16 680 CURVE",
"36 629 OFFCURVE",
"39 578 OFFCURVE",
"39 540 CURVE SMOOTH",
"39 65 LINE SMOOTH",
"39 -8 OFFCURVE",
"66 -15 OFFCURVE",
"83 -15 CURVE SMOOTH"
);
},
{
closed = 1;
nodes = (
"698 -16 OFFCURVE",
"733 7 OFFCURVE",
"746 19 CURVE",
"726 70 OFFCURVE",
"723 121 OFFCURVE",
"723 159 CURVE SMOOTH",
"723 634 LINE SMOOTH",
"723 685 OFFCURVE",
"683 715 OFFCURVE",
"630 715 CURVE SMOOTH",
"585 715 OFFCURVE",
"551 692 OFFCURVE",
"537 680 CURVE",
"557 629 OFFCURVE",
"560 578 OFFCURVE",
"560 540 CURVE SMOOTH",
"560 65 LINE SMOOTH",
"560 14 OFFCURVE",
"600 -16 OFFCURVE",
"653 -16 CURVE SMOOTH"
);
},
{
closed = 1;
nodes = (
"384 254 LINE",
"98 709 LINE",
"64 477 LINE",
"335 74 LINE"
);
},
{
closed = 1;
nodes = (
"610 655 LINE",
"537 680 LINE",
"311 158 LINE",
"346 90 LINE"
);
}
);
width = 836;
},
{
associatedMasterId = "60CFBDE8-BC08-4808-BF41-F011F3E03A54";
layerId = "F9E44A40-062C-4DFC-A419-E9923DCF4831";
name = "Bold Aug 24 15, 15:59";
paths = (
{
closed = 1;
nodes = (
"127 -15 OFFCURVE",
"159 -2 OFFCURVE",
"173 19 CURVE",
"153 70 OFFCURVE",
"151 95 OFFCURVE",
"150 159 CURVE SMOOTH",
"146 640 LINE SMOOTH",
"146 691 OFFCURVE",
"82 698 OFFCURVE",
"50 698 CURVE",
"50 65 LINE SMOOTH",
"50 13 OFFCURVE",
"70 -15 OFFCURVE",
"114 -15 CURVE SMOOTH"
);
},
{
closed = 1;
nodes = (
"676 -16 OFFCURVE",
"711 7 OFFCURVE",
"724 19 CURVE",
"704 70 OFFCURVE",
"701 121 OFFCURVE",
"701 159 CURVE SMOOTH",
"701 634 LINE SMOOTH",
"701 685 OFFCURVE",
"661 715 OFFCURVE",
"608 715 CURVE SMOOTH",
"563 715 OFFCURVE",
"529 692 OFFCURVE",
"515 680 CURVE",
"535 629 OFFCURVE",
"538 578 OFFCURVE",
"538 540 CURVE SMOOTH",
"538 65 LINE SMOOTH",
"538 14 OFFCURVE",
"578 -16 OFFCURVE",
"631 -16 CURVE SMOOTH"
);
},
{
closed = 1;
nodes = (
"355 83 OFFCURVE",
"423 111 CURVE",
"485 244 OFFCURVE",
"592 598 OFFCURVE",
"608 659 CURVE",
"608 715 LINE",
"557 715 OFFCURVE",
"552 711 OFFCURVE",
"504 700 CURVE",
"477 600 OFFCURVE",
"406 298 OFFCURVE",
"356 133 CURVE",
"403 127 LINE",
"256 685 LINE",
"215 720 OFFCURVE",
"105 728 OFFCURVE",
"51 697 CURVE",
"70 676 OFFCURVE",
"100 658 OFFCURVE",
"106 640 CURVE SMOOTH",
"268 119 LINE",
"307 92 OFFCURVE"
);
}
);
width = 836;
},
{
associatedMasterId = "60CFBDE8-BC08-4808-BF41-F011F3E03A54";
layerId = "9C76D656-C1C3-4235-A9B3-0CDB6015CB1E";
name = "Bold Aug 24 15, 16:00";
paths = (
{
closed = 1;
nodes = (
"694 -16 OFFCURVE",
"729 7 OFFCURVE",
"742 19 CURVE",
"722 70 OFFCURVE",
"719 121 OFFCURVE",
"719 159 CURVE SMOOTH",
"719 634 LINE SMOOTH",
"719 685 OFFCURVE",
"679 715 OFFCURVE",
"626 715 CURVE SMOOTH",
"581 715 OFFCURVE",
"547 692 OFFCURVE",
"533 680 CURVE",
"553 629 OFFCURVE",
"556 578 OFFCURVE",
"556 540 CURVE SMOOTH",
"556 65 LINE SMOOTH",
"556 14 OFFCURVE",
"596 -16 OFFCURVE",
"649 -16 CURVE SMOOTH"
);
},
{
closed = 1;
nodes = (
"317 92 OFFCURVE",
"365 83 OFFCURVE",
"433 111 CURVE",
"503 244 OFFCURVE",
"610 598 OFFCURVE",
"626 659 CURVE",
"626 715 LINE",
"575 715 OFFCURVE",
"570 711 OFFCURVE",
"522 700 CURVE",
"495 600 OFFCURVE",
"416 298 OFFCURVE",
"366 133 CURVE",
"413 127 LINE",
"243 685 LINE",
"202 720 OFFCURVE",
"94 731 OFFCURVE",
"40 700 CURVE",
"59 679 OFFCURVE",
"87 658 OFFCURVE",
"93 640 CURVE SMOOTH",
"278 119 LINE"
);
},
{
closed = 1;
nodes = (
"114 722 OFFCURVE",
"53 717 OFFCURVE",
"38 695 CURVE",
"44 649 OFFCURVE",
"45 608 OFFCURVE",
"45 544 CURVE SMOOTH",
"45 45 LINE SMOOTH",
"45 8 OFFCURVE",
"58 -17 OFFCURVE",
"98 -17 CURVE SMOOTH",
"117 -17 OFFCURVE",
"139 -10 OFFCURVE",
"153 3 CURVE",
"133 54 OFFCURVE",
"130 121 OFFCURVE",
"130 158 CURVE SMOOTH",
"129 705 LINE"
);
}
);
width = 836;
},
{
associatedMasterId = "60CFBDE8-BC08-4808-BF41-F011F3E03A54";
guideLines = (
{
position = "{408, 458}";
}
);
layerId = "9E70CF9E-ADE5-4FA5-8502-431F49DDC9F8";
name = "Bold Aug 25 15, 13:47";
paths = (
{
closed = 1;
nodes = (
"752 685 LINE",
"747 699 OFFCURVE",
"699 715 OFFCURVE",
"651 715 CURVE SMOOTH",
"629 715 OFFCURVE",
"586 713 OFFCURVE",
"546 700 CURVE",
"512 562 OFFCURVE",
"435 316 OFFCURVE",
"391 171 CURVE",
"429 171 LINE",
"374 334 OFFCURVE",
"321 506 OFFCURVE",
"270 685 CURVE",
"246 705 OFFCURVE",
"210 715 OFFCURVE",
"162 715 CURVE SMOOTH",
"96 715 OFFCURVE",
"61 708 OFFCURVE",
"47 695 CURVE",
"53 649 OFFCURVE",
"54 608 OFFCURVE",
"54 544 CURVE SMOOTH",
"54 45 LINE SMOOTH",
"54 8 OFFCURVE",
"67 -17 OFFCURVE",
"107 -17 CURVE SMOOTH",
"126 -17 OFFCURVE",
"148 -10 OFFCURVE",
"162 3 CURVE",
"142 54 OFFCURVE",
"139 121 OFFCURVE",
"139 158 CURVE SMOOTH",
"138 560 LINE",
"107 595 LINE",
"149 416 OFFCURVE",
"229 203 OFFCURVE",
"291 60 CURVE",
"339 43 OFFCURVE",
"386 46 OFFCURVE",
"448 66 CURVE",
"627 591 LINE",
"589 532 LINE",
"589 65 LINE SMOOTH",
"589 14 OFFCURVE",
"629 -16 OFFCURVE",
"682 -16 CURVE SMOOTH",
"727 -16 OFFCURVE",
"762 7 OFFCURVE",
"775 19 CURVE",
"755 70 OFFCURVE",
"752 121 OFFCURVE",
"752 159 CURVE SMOOTH"
);
}
);
width = 830;
},
{
anchors = (
{
name = bottom;
position = "{426, 0}";
},
{
name = top;
position = "{426, 698}";
}
);
layerId = "EBFFFCD3-BAE4-48A5-9442-B72A90AD34A8";
paths = (
{
closed = 1;
nodes = (
"768 683 LINE",
"763 697 OFFCURVE",
"723 711 OFFCURVE",
"681 711 CURVE SMOOTH",
"662 711 OFFCURVE",
"626 710 OFFCURVE",
"592 698 CURVE",
"548 554 OFFCURVE",
"467 319 OFFCURVE",
"415 168 CURVE",
"436 165 LINE",
"373 330 OFFCURVE",
"309 508 OFFCURVE",
"244 686 CURVE",
"227 703 OFFCURVE",
"206 711 OFFCURVE",
"171 711 CURVE SMOOTH",
"116 711 OFFCURVE",
"86 705 OFFCURVE",
"74 694 CURVE",
"80 653 OFFCURVE",
"81 614 OFFCURVE",
"81 554 CURVE SMOOTH",
"81 40 LINE SMOOTH",
"81 7 OFFCURVE",
"93 -15 OFFCURVE",
"127 -15 CURVE SMOOTH",
"145 -15 OFFCURVE",
"164 -9 OFFCURVE",
"176 2 CURVE",
"159 47 OFFCURVE",
"156 108 OFFCURVE",
"156 145 CURVE",
"155 573 LINE",
"138 601 LINE",
"191 425 OFFCURVE",
"270 220 OFFCURVE",
"339 73 CURVE",
"378 58 OFFCURVE",
"416 61 OFFCURVE",
"467 78 CURVE",
"653 601 LINE",
"632 552 LINE",
"633 56 LINE SMOOTH",
"633 12 OFFCURVE",
"665 -15 OFFCURVE",
"708 -15 CURVE SMOOTH",
"747 -15 OFFCURVE",
"776 5 OFFCURVE",
"788 16 CURVE",
"771 60 OFFCURVE",
"768 108 OFFCURVE",
"768 146 CURVE SMOOTH"
);
}
);
width = 851;
}
);
leftKerningGroup = H;
rightKerningGroup = H;
rightMetricsKey = H;
unicode = 004D;
},
{
glyphname = N;
lastChange = "2020-06-24 17:07:53 +0000";
layers = (
{
anchors = (
{
name = bottom;
position = "{334, 0}";
},
{
name = top;
position = "{332, 688}";
}
);
layerId = "60CFBDE8-BC08-4808-BF41-F011F3E03A54";
paths = (
{
closed = 1;
nodes = (
"132 -8 OFFCURVE",
"138 0 OFFCURVE",
"138 14 CURVE SMOOTH",
"136 629 LINE",
"243 460 OFFCURVE",
"473 90 OFFCURVE",
"542 -5 CURVE",
"548 -7 OFFCURVE",
"561 -6 OFFCURVE",
"566 0 CURVE",
"564 16 OFFCURVE",
"564 47 OFFCURVE",
"564 87 CURVE SMOOTH",
"562 673 LINE SMOOTH",
"562 687 OFFCURVE",
"556 695 OFFCURVE",
"545 695 CURVE SMOOTH",
"536 695 OFFCURVE",
"531 691 OFFCURVE",
"527 687 CURVE",
"531 671 OFFCURVE",
"533 640 OFFCURVE",
"533 600 CURVE SMOOTH",
"535 53 LINE",
"423 221 OFFCURVE",
"228 547 OFFCURVE",
"133 688 CURVE",
"130 691 OFFCURVE",
"113 696 OFFCURVE",
"101 687 CURVE",
"105 671 OFFCURVE",
"107 630 OFFCURVE",
"107 590 CURVE SMOOTH",
"109 87 LINE SMOOTH",
"109 47 OFFCURVE",
"107 16 OFFCURVE",
"103 0 CURVE",
"107 -4 OFFCURVE",
"112 -8 OFFCURVE",
"121 -8 CURVE SMOOTH"
);
}
);
width = 667;
},
{
associatedMasterId = "60CFBDE8-BC08-4808-BF41-F011F3E03A54";
layerId = "7142CB5A-9B87-40BB-B249-FD8E380CF5DD";
name = "Bold Aug 24 15, 15:52";
paths = (
{
closed = 1;
nodes = (
"563 200 LINE",
"143 710 LINE",
"118 490 LINE",
"545 -15 LINE"
);
},
{
closed = 1;
nodes = (
"153 -15 OFFCURVE",
"171 7 OFFCURVE",
"179 19 CURVE",
"159 70 OFFCURVE",
"156 95 OFFCURVE",
"156 159 CURVE SMOOTH",
"156 634 LINE SMOOTH",
"156 685 OFFCURVE",
"156 716 OFFCURVE",
"124 716 CURVE SMOOTH",
"95 716 OFFCURVE",
"80 700 OFFCURVE",
"66 680 CURVE",
"86 629 OFFCURVE",
"89 578 OFFCURVE",
"89 540 CURVE SMOOTH",
"89 65 LINE SMOOTH",
"89 -8 OFFCURVE",
"116 -15 OFFCURVE",
"133 -15 CURVE SMOOTH"
);
},
{
closed = 1;
nodes = (
"582 -15 OFFCURVE",
"600 7 OFFCURVE",
"608 19 CURVE",
"588 70 OFFCURVE",
"585 95 OFFCURVE",
"585 159 CURVE SMOOTH",
"585 634 LINE SMOOTH",
"585 685 OFFCURVE",
"585 716 OFFCURVE",
"553 716 CURVE SMOOTH",
"524 716 OFFCURVE",
"509 700 OFFCURVE",
"495 680 CURVE",
"515 629 OFFCURVE",
"518 578 OFFCURVE",
"518 540 CURVE SMOOTH",
"518 65 LINE SMOOTH",
"518 -8 OFFCURVE",
"545 -15 OFFCURVE",
"562 -15 CURVE SMOOTH"
);
}
);
width = 600;
},
{
associatedMasterId = "60CFBDE8-BC08-4808-BF41-F011F3E03A54";
layerId = "6A56AA06-7C6B-4AD8-BC3E-4E51C5BE2702";
name = "Bold Aug 24 15, 15:57";
paths = (
{
closed = 1;
nodes = (
"524 194 LINE",
"113 704 LINE",
"79 475 LINE",
"480 -6 LINE"
);
},
{
closed = 1;
nodes = (
"122 -15 OFFCURVE",
"140 7 OFFCURVE",
"148 19 CURVE",
"128 70 OFFCURVE",
"125 95 OFFCURVE",
"125 159 CURVE SMOOTH",
"125 629 LINE SMOOTH",
"125 680 OFFCURVE",
"131 711 OFFCURVE",
"87 711 CURVE SMOOTH",
"69 711 OFFCURVE",
"55 705 OFFCURVE",
"41 695 CURVE",
"53 645 OFFCURVE",
"58 585 OFFCURVE",
"58 533 CURVE SMOOTH",
"58 65 LINE SMOOTH",
"58 -8 OFFCURVE",
"85 -15 OFFCURVE",
"102 -15 CURVE SMOOTH"
);
},
{
closed = 1;
nodes = (
"492 -19 OFFCURVE",
"554 -14 OFFCURVE",
"569 8 CURVE",
"563 54 OFFCURVE",
"562 95 OFFCURVE",
"562 159 CURVE SMOOTH",
"562 653 LINE SMOOTH",
"562 690 OFFCURVE",
"549 715 OFFCURVE",
"509 715 CURVE SMOOTH",
"490 715 OFFCURVE",
"468 708 OFFCURVE",
"454 695 CURVE",
"474 644 OFFCURVE",
"477 577 OFFCURVE",
"477 540 CURVE SMOOTH",
"477 -2 LINE"
);
}
);
width = 600;
},
{
associatedMasterId = "60CFBDE8-BC08-4808-BF41-F011F3E03A54";
layerId = "C8F83A1A-251F-4475-841F-A6BF8D4E8A64";
name = "Bold Aug 24 15, 15:57";
paths = (
{
closed = 1;
nodes = (
"524 194 LINE",
"113 704 LINE",
"79 475 LINE",
"480 -6 LINE"
);
},
{
closed = 1;
nodes = (
"122 -15 OFFCURVE",
"140 7 OFFCURVE",
"148 19 CURVE",
"128 70 OFFCURVE",
"125 95 OFFCURVE",
"125 159 CURVE SMOOTH",
"125 629 LINE SMOOTH",
"125 680 OFFCURVE",
"131 711 OFFCURVE",
"87 711 CURVE SMOOTH",
"69 711 OFFCURVE",
"55 705 OFFCURVE",
"41 695 CURVE",
"53 645 OFFCURVE",
"58 585 OFFCURVE",
"58 533 CURVE SMOOTH",
"58 65 LINE SMOOTH",
"58 -8 OFFCURVE",
"85 -15 OFFCURVE",
"102 -15 CURVE SMOOTH"
);
},
{
closed = 1;
nodes = (
"492 -19 OFFCURVE",
"554 -14 OFFCURVE",
"569 8 CURVE",
"563 54 OFFCURVE",
"562 95 OFFCURVE",
"562 159 CURVE SMOOTH",
"562 653 LINE SMOOTH",
"562 690 OFFCURVE",
"549 715 OFFCURVE",
"509 715 CURVE SMOOTH",
"490 715 OFFCURVE",
"468 708 OFFCURVE",
"454 695 CURVE",
"474 644 OFFCURVE",
"477 577 OFFCURVE",
"477 540 CURVE SMOOTH",
"477 -2 LINE"
);
}
);
width = 600;
},
{
associatedMasterId = "60CFBDE8-BC08-4808-BF41-F011F3E03A54";
layerId = "DF640FA2-F285-4D30-9784-1DC9114087DE";
name = "Bold Aug 24 15, 17:25";
paths = (
{
closed = 1;
nodes = (
"534 214 LINE",
"128 707 LINE",
"69 492 LINE",
"484 -10 LINE"
);
},
{
closed = 1;
nodes = (
"488 -13 OFFCURVE",
"503 -17 OFFCURVE",
"520 -16 CURVE SMOOTH",
"541 -15 OFFCURVE",
"565 -8 OFFCURVE",
"573 4 CURVE",
"567 50 OFFCURVE",
"566 91 OFFCURVE",
"566 155 CURVE SMOOTH",
"566 653 LINE SMOOTH",
"566 690 OFFCURVE",
"553 715 OFFCURVE",
"513 715 CURVE SMOOTH",
"494 715 OFFCURVE",
"472 708 OFFCURVE",
"458 695 CURVE",
"478 644 OFFCURVE",
"481 577 OFFCURVE",
"481 540 CURVE SMOOTH",
"481 -6 LINE"
);
},
{
closed = 1;
nodes = (
"114 722 OFFCURVE",
"53 717 OFFCURVE",
"38 695 CURVE",
"44 649 OFFCURVE",
"45 608 OFFCURVE",
"45 544 CURVE SMOOTH",
"45 46 LINE SMOOTH",
"45 9 OFFCURVE",
"58 -16 OFFCURVE",
"98 -16 CURVE SMOOTH",
"117 -16 OFFCURVE",
"139 -9 OFFCURVE",
"153 4 CURVE",
"133 55 OFFCURVE",
"130 122 OFFCURVE",
"130 159 CURVE SMOOTH",
"129 705 LINE"
);
}
);
width = 600;
},
{
associatedMasterId = "60CFBDE8-BC08-4808-BF41-F011F3E03A54";
layerId = "CE396486-64E2-407F-BB16-99A69420A5D3";
name = "Bold Aug 25 15, 13:48";
paths = (
{
closed = 1;
nodes = (
"534 214 LINE",
"128 707 LINE",
"69 492 LINE",
"484 -10 LINE"
);
},
{
closed = 1;
nodes = (
"117 -16 OFFCURVE",
"139 -9 OFFCURVE",
"153 4 CURVE",
"133 55 OFFCURVE",
"130 122 OFFCURVE",
"130 159 CURVE SMOOTH",
"129 705 LINE",
"114 722 OFFCURVE",
"53 717 OFFCURVE",
"38 695 CURVE",
"44 649 OFFCURVE",
"45 608 OFFCURVE",
"45 544 CURVE SMOOTH",
"45 46 LINE SMOOTH",
"45 9 OFFCURVE",
"58 -16 OFFCURVE",
"98 -16 CURVE SMOOTH"
);
},
{
closed = 1;
nodes = (
"541 -15 OFFCURVE",
"565 -8 OFFCURVE",
"573 4 CURVE",
"567 50 OFFCURVE",
"566 91 OFFCURVE",
"566 155 CURVE SMOOTH",
"566 540 LINE SMOOTH",
"566 577 OFFCURVE",
"569 644 OFFCURVE",
"589 695 CURVE",
"575 708 OFFCURVE",
"553 715 OFFCURVE",
"534 715 CURVE SMOOTH",
"494 715 OFFCURVE",
"481 690 OFFCURVE",
"481 653 CURVE SMOOTH",
"481 -6 LINE",
"488 -13 OFFCURVE",
"503 -17 OFFCURVE",
"520 -16 CURVE SMOOTH"
);
}
);
width = 600;
},
{
associatedMasterId = "60CFBDE8-BC08-4808-BF41-F011F3E03A54";
background = {
paths = (
{
closed = 1;
nodes = (
"534 214 LINE",
"128 707 LINE",
"69 492 LINE",
"484 -10 LINE"
);
},
{
closed = 1;
nodes = (
"117 -16 OFFCURVE",
"139 -9 OFFCURVE",
"153 4 CURVE",
"133 55 OFFCURVE",
"130 122 OFFCURVE",
"130 159 CURVE SMOOTH",
"129 705 LINE",
"114 722 OFFCURVE",
"53 717 OFFCURVE",
"38 695 CURVE",
"44 649 OFFCURVE",
"45 608 OFFCURVE",
"45 544 CURVE SMOOTH",
"45 46 LINE SMOOTH",
"45 9 OFFCURVE",
"58 -16 OFFCURVE",
"98 -16 CURVE SMOOTH"
);
},
{
closed = 1;
nodes = (
"541 -15 OFFCURVE",
"565 -8 OFFCURVE",
"573 4 CURVE",
"567 50 OFFCURVE",
"566 91 OFFCURVE",
"566 155 CURVE SMOOTH",
"566 540 LINE SMOOTH",
"566 577 OFFCURVE",
"569 644 OFFCURVE",
"589 695 CURVE",
"575 708 OFFCURVE",
"553 715 OFFCURVE",
"534 715 CURVE SMOOTH",
"494 715 OFFCURVE",
"481 690 OFFCURVE",
"481 653 CURVE SMOOTH",
"481 -6 LINE",
"488 -13 OFFCURVE",
"503 -17 OFFCURVE",
"520 -16 CURVE SMOOTH"
);
}
);
};
layerId = "413A57FF-19E1-4CFF-89F5-581FAFA0185E";
name = "Bold Aug 25 15, 13:48";
paths = (
{
closed = 1;
nodes = (
"556 206 LINE",
"526 297 OFFCURVE",
"299 530 OFFCURVE",
"173 707 CURVE",
"173 706 LINE",
"152 722 OFFCURVE",
"81 716 OFFCURVE",
"63 695 CURVE",
"69 649 OFFCURVE",
"70 608 OFFCURVE",
"70 544 CURVE SMOOTH",
"70 159 LINE SMOOTH",
"70 122 OFFCURVE",
"67 55 OFFCURVE",
"47 4 CURVE",
"66 -9 OFFCURVE",
"90 -16 OFFCURVE",
"112 -16 CURVE SMOOTH",
"163 -16 OFFCURVE",
"208 21 OFFCURVE",
"205 76 CURVE SMOOTH",
"157 469 LINE",
"206 358 OFFCURVE",
"411 131 OFFCURVE",
"532 -10 CURVE",
"532 -9 LINE",
"559 -23 OFFCURVE",
"625 -15 OFFCURVE",
"641 4 CURVE",
"635 50 OFFCURVE",
"633 91 OFFCURVE",
"634 155 CURVE SMOOTH",
"641 620 LINE SMOOTH",
"642 676 OFFCURVE",
"618 712 OFFCURVE",
"548 712 CURVE SMOOTH",
"526 712 OFFCURVE",
"500 705 OFFCURVE",
"483 692 CURVE",
"503 640 OFFCURVE",
"508 596 OFFCURVE",
"512 565 CURVE SMOOTH"
);
}
);
width = 698;
},
{
associatedMasterId = "60CFBDE8-BC08-4808-BF41-F011F3E03A54";
background = {
paths = (
{
closed = 1;
nodes = (
"157 469 LINE",
"206 358 OFFCURVE",
"411 131 OFFCURVE",
"532 -10 CURVE",
"532 -9 LINE",
"559 -23 OFFCURVE",
"625 -15 OFFCURVE",
"641 4 CURVE",
"635 50 OFFCURVE",
"634 91 OFFCURVE",
"634 155 CURVE SMOOTH",
"635 540 LINE SMOOTH",
"635 577 OFFCURVE",
"638 644 OFFCURVE",
"658 695 CURVE",
"641 708 OFFCURVE",
"615 715 OFFCURVE",
"593 715 CURVE SMOOTH",
"523 715 OFFCURVE",
"492 678 OFFCURVE",
"500 623 CURVE SMOOTH",
"556 206 LINE",
"526 297 OFFCURVE",
"299 530 OFFCURVE",
"173 707 CURVE",
"173 706 LINE",
"152 722 OFFCURVE",
"81 716 OFFCURVE",
"63 695 CURVE",
"69 649 OFFCURVE",
"70 608 OFFCURVE",
"70 544 CURVE SMOOTH",
"70 159 LINE SMOOTH",
"70 122 OFFCURVE",
"67 55 OFFCURVE",
"47 4 CURVE",
"66 -9 OFFCURVE",
"90 -16 OFFCURVE",
"112 -16 CURVE SMOOTH",
"163 -16 OFFCURVE",
"208 21 OFFCURVE",
"205 76 CURVE SMOOTH"
);
}
);
};
layerId = "7D27369B-35FA-4205-BCA7-875A0B44D693";
name = "Bold Aug 25 15, 13:54";
paths = (
{
closed = 1;
nodes = (
"157 469 LINE",
"206 358 OFFCURVE",
"411 131 OFFCURVE",
"532 -10 CURVE",
"532 -9 LINE",
"559 -23 OFFCURVE",
"625 -15 OFFCURVE",
"641 4 CURVE",
"635 50 OFFCURVE",
"634 91 OFFCURVE",
"634 155 CURVE SMOOTH",
"635 540 LINE SMOOTH",
"635 577 OFFCURVE",
"638 644 OFFCURVE",
"658 695 CURVE",
"641 708 OFFCURVE",
"615 715 OFFCURVE",
"593 715 CURVE SMOOTH",
"539 715 OFFCURVE",
"511 678 OFFCURVE",
"516 623 CURVE SMOOTH",
"554 206 LINE",
"524 297 OFFCURVE",
"299 530 OFFCURVE",
"173 707 CURVE",
"173 706 LINE",
"152 722 OFFCURVE",
"81 716 OFFCURVE",
"63 695 CURVE",
"69 649 OFFCURVE",
"70 608 OFFCURVE",
"70 544 CURVE SMOOTH",
"70 159 LINE SMOOTH",
"70 122 OFFCURVE",
"67 55 OFFCURVE",
"47 4 CURVE",
"66 -9 OFFCURVE",
"90 -16 OFFCURVE",
"112 -16 CURVE SMOOTH",
"146 -16 OFFCURVE",
"192 21 OFFCURVE",
"188 76 CURVE SMOOTH"
);
}
);
width = 703;
},
{
associatedMasterId = "60CFBDE8-BC08-4808-BF41-F011F3E03A54";
layerId = "53F48AFE-8BAF-46DF-8E7E-D88BDB167051";
name = "Light Aug 25 15, 13:55";
paths = (
{
closed = 1;
nodes = (
"137 -8 OFFCURVE",
"142 -4 OFFCURVE",
"146 0 CURVE",
"142 16 OFFCURVE",
"140 47 OFFCURVE",
"140 87 CURVE SMOOTH",
"138 673 LINE SMOOTH",
"138 687 OFFCURVE",
"132 695 OFFCURVE",
"121 695 CURVE SMOOTH",
"112 695 OFFCURVE",
"107 691 OFFCURVE",
"103 687 CURVE",
"107 671 OFFCURVE",
"109 640 OFFCURVE",
"109 600 CURVE SMOOTH",
"111 14 LINE SMOOTH",
"111 0 OFFCURVE",
"117 -8 OFFCURVE",
"128 -8 CURVE SMOOTH"
);
},
{
closed = 1;
nodes = (
"583 -8 OFFCURVE",
"588 -4 OFFCURVE",
"592 0 CURVE",
"588 16 OFFCURVE",
"586 47 OFFCURVE",
"586 87 CURVE SMOOTH",
"584 673 LINE SMOOTH",
"584 687 OFFCURVE",
"578 695 OFFCURVE",
"567 695 CURVE SMOOTH",
"558 695 OFFCURVE",
"553 691 OFFCURVE",
"549 687 CURVE",
"553 671 OFFCURVE",
"555 640 OFFCURVE",
"555 600 CURVE SMOOTH",
"557 14 LINE SMOOTH",
"557 0 OFFCURVE",
"563 -8 OFFCURVE",
"574 -8 CURVE SMOOTH"
);
},
{
closed = 0;
nodes = (
"582 17 LINE",
"471 174 OFFCURVE",
"236 538 OFFCURVE",
"136 686 CURVE",
"133 692 OFFCURVE",
"128 695 OFFCURVE",
"121 695 CURVE SMOOTH",
"113 695 OFFCURVE",
"109 691 OFFCURVE",
"105 687 CURVE",
"109 671 OFFCURVE",
"111 640 OFFCURVE",
"111 600 CURVE SMOOTH"
);
},
{
closed = 0;
nodes = (
"138 635 LINE",
"134 629 LINE",
"224 500 OFFCURVE",
"442 155 OFFCURVE",
"563 -8 CURVE"
);
}
);
width = 674;
},
{
associatedMasterId = "60CFBDE8-BC08-4808-BF41-F011F3E03A54";
layerId = "9CC00490-F21A-4848-860F-5C49920E5722";
name = "Light Aug 25 15, 13:56";
paths = (
{
closed = 1;
nodes = (
"137 -8 OFFCURVE",
"142 -4 OFFCURVE",
"146 0 CURVE",
"142 16 OFFCURVE",
"140 47 OFFCURVE",
"140 87 CURVE SMOOTH",
"138 673 LINE SMOOTH",
"138 687 OFFCURVE",
"132 695 OFFCURVE",
"121 695 CURVE SMOOTH",
"112 695 OFFCURVE",
"107 691 OFFCURVE",
"103 687 CURVE",
"107 671 OFFCURVE",
"109 630 OFFCURVE",
"109 590 CURVE SMOOTH",
"111 14 LINE SMOOTH",
"111 0 OFFCURVE",
"117 -8 OFFCURVE",
"128 -8 CURVE SMOOTH"
);
},
{
closed = 1;
nodes = (
"583 -8 OFFCURVE",
"588 -4 OFFCURVE",
"592 0 CURVE",
"588 16 OFFCURVE",
"586 47 OFFCURVE",
"586 87 CURVE SMOOTH",
"584 673 LINE SMOOTH",
"584 687 OFFCURVE",
"578 695 OFFCURVE",
"567 695 CURVE SMOOTH",
"558 695 OFFCURVE",
"553 691 OFFCURVE",
"549 687 CURVE",
"553 671 OFFCURVE",
"555 640 OFFCURVE",
"555 600 CURVE SMOOTH",
"557 14 LINE SMOOTH",
"557 0 OFFCURVE",
"563 -8 OFFCURVE",
"574 -8 CURVE SMOOTH"
);
},
{
closed = 1;
nodes = (
"132 629 LINE",
"222 500 OFFCURVE",
"440 155 OFFCURVE",
"561 -8 CURVE",
"580 17 LINE",
"469 174 OFFCURVE",
"234 538 OFFCURVE",
"134 686 CURVE",
"131 692 OFFCURVE",
"126 695 OFFCURVE",
"119 695 CURVE SMOOTH",
"111 695 OFFCURVE",
"107 691 OFFCURVE",
"103 687 CURVE",
"107 671 OFFCURVE",
"136 675 OFFCURVE",
"136 635 CURVE"
);
}
);
width = 674;
},
{
associatedMasterId = "60CFBDE8-BC08-4808-BF41-F011F3E03A54";
background = {
paths = (
{
closed = 1;
nodes = (
"534 214 LINE",
"128 707 LINE",
"69 492 LINE",
"484 -10 LINE"
);
},
{
closed = 1;
nodes = (
"117 -16 OFFCURVE",
"139 -9 OFFCURVE",
"153 4 CURVE",
"133 55 OFFCURVE",
"130 122 OFFCURVE",
"130 159 CURVE SMOOTH",
"129 705 LINE",
"114 722 OFFCURVE",
"53 717 OFFCURVE",
"38 695 CURVE",
"44 649 OFFCURVE",
"45 608 OFFCURVE",
"45 544 CURVE SMOOTH",
"45 46 LINE SMOOTH",
"45 9 OFFCURVE",
"58 -16 OFFCURVE",
"98 -16 CURVE SMOOTH"
);
},
{
closed = 1;
nodes = (
"541 -15 OFFCURVE",
"565 -8 OFFCURVE",
"573 4 CURVE",
"567 50 OFFCURVE",
"566 91 OFFCURVE",
"566 155 CURVE SMOOTH",
"566 540 LINE SMOOTH",
"566 577 OFFCURVE",
"569 644 OFFCURVE",
"589 695 CURVE",
"575 708 OFFCURVE",
"553 715 OFFCURVE",
"534 715 CURVE SMOOTH",
"494 715 OFFCURVE",
"481 690 OFFCURVE",
"481 653 CURVE SMOOTH",
"481 -6 LINE",
"488 -13 OFFCURVE",
"503 -17 OFFCURVE",
"520 -16 CURVE SMOOTH"
);
}
);
};
layerId = "730C3D68-D9FE-4F45-A9B3-BB00EB608AFD";
name = "Bold Aug 25 15, 13:48 Aug 25 15, 13:57";
paths = (
{
closed = 1;
nodes = (
"157 469 LINE",
"206 358 OFFCURVE",
"411 131 OFFCURVE",
"532 -10 CURVE",
"532 -9 LINE",
"559 -23 OFFCURVE",
"625 -15 OFFCURVE",
"641 4 CURVE",
"635 50 OFFCURVE",
"634 91 OFFCURVE",
"634 155 CURVE SMOOTH",
"635 540 LINE SMOOTH",
"635 577 OFFCURVE",
"638 644 OFFCURVE",
"658 695 CURVE",
"641 708 OFFCURVE",
"615 715 OFFCURVE",
"593 715 CURVE SMOOTH",
"523 715 OFFCURVE",
"492 678 OFFCURVE",
"500 623 CURVE SMOOTH",
"556 206 LINE",
"526 297 OFFCURVE",
"299 530 OFFCURVE",
"173 707 CURVE",
"173 706 LINE",
"152 722 OFFCURVE",
"81 716 OFFCURVE",
"63 695 CURVE",
"69 649 OFFCURVE",
"70 608 OFFCURVE",
"70 544 CURVE SMOOTH",
"70 159 LINE SMOOTH",
"70 122 OFFCURVE",
"67 55 OFFCURVE",
"47 4 CURVE",
"66 -9 OFFCURVE",
"90 -16 OFFCURVE",
"112 -16 CURVE SMOOTH",
"163 -16 OFFCURVE",
"208 21 OFFCURVE",
"205 76 CURVE SMOOTH"
);
}
);
width = 698;
},
{
associatedMasterId = "60CFBDE8-BC08-4808-BF41-F011F3E03A54";
layerId = "2A326944-78F1-4CC0-A62B-2D24BCCD2942";
name = "Light Aug 25 15, 13:58";
paths = (
{
closed = 1;
nodes = (
"588 16 OFFCURVE",
"586 47 OFFCURVE",
"586 87 CURVE SMOOTH",
"584 673 LINE SMOOTH",
"584 687 OFFCURVE",
"578 695 OFFCURVE",
"567 695 CURVE SMOOTH",
"558 695 OFFCURVE",
"553 691 OFFCURVE",
"549 687 CURVE",
"553 671 OFFCURVE",
"555 640 OFFCURVE",
"555 600 CURVE SMOOTH",
"557 50 LINE",
"445 218 OFFCURVE",
"232 540 OFFCURVE",
"137 681 CURVE",
"133 698 OFFCURVE",
"116 700 OFFCURVE",
"103 687 CURVE",
"107 671 OFFCURVE",
"109 630 OFFCURVE",
"109 590 CURVE SMOOTH",
"111 14 LINE SMOOTH",
"111 0 OFFCURVE",
"117 -8 OFFCURVE",
"128 -8 CURVE SMOOTH",
"137 -8 OFFCURVE",
"142 -4 OFFCURVE",
"146 0 CURVE",
"142 16 OFFCURVE",
"140 47 OFFCURVE",
"140 87 CURVE SMOOTH",
"138 620 LINE",
"250 431 OFFCURVE",
"497 88 OFFCURVE",
"564 -5 CURVE",
"568 -9 OFFCURVE",
"584 -8 OFFCURVE",
"592 0 CURVE"
);
}
);
width = 674;
},
{
associatedMasterId = "60CFBDE8-BC08-4808-BF41-F011F3E03A54";
layerId = "006C3722-5F74-4479-80F2-A807B6EAF025";
name = "Light Aug 25 15, 14:28";
paths = (
{
closed = 1;
nodes = (
"123 -8 OFFCURVE",
"129 0 OFFCURVE",
"129 14 CURVE SMOOTH",
"127 629 LINE",
"234 460 OFFCURVE",
"484 90 OFFCURVE",
"553 -5 CURVE",
"559 -7 OFFCURVE",
"572 -6 OFFCURVE",
"577 0 CURVE",
"575 16 OFFCURVE",
"575 47 OFFCURVE",
"575 87 CURVE SMOOTH",
"573 673 LINE SMOOTH",
"573 687 OFFCURVE",
"567 695 OFFCURVE",
"556 695 CURVE SMOOTH",
"547 695 OFFCURVE",
"542 691 OFFCURVE",
"538 687 CURVE",
"542 671 OFFCURVE",
"544 640 OFFCURVE",
"544 600 CURVE SMOOTH",
"546 53 LINE",
"434 221 OFFCURVE",
"219 547 OFFCURVE",
"124 688 CURVE",
"121 691 OFFCURVE",
"104 696 OFFCURVE",
"92 687 CURVE",
"96 671 OFFCURVE",
"98 630 OFFCURVE",
"98 590 CURVE SMOOTH",
"100 87 LINE SMOOTH",
"100 47 OFFCURVE",
"98 16 OFFCURVE",
"94 0 CURVE",
"98 -4 OFFCURVE",
"103 -8 OFFCURVE",
"112 -8 CURVE SMOOTH"
);
}
);
width = 674;
},
{
associatedMasterId = "60CFBDE8-BC08-4808-BF41-F011F3E03A54";
background = {
paths = (
{
closed = 1;
nodes = (
"163 469 LINE",
"212 358 OFFCURVE",
"417 131 OFFCURVE",
"538 -10 CURVE",
"538 -9 LINE",
"565 -23 OFFCURVE",
"631 -15 OFFCURVE",
"647 4 CURVE",
"641 50 OFFCURVE",
"640 91 OFFCURVE",
"640 155 CURVE SMOOTH",
"641 540 LINE SMOOTH",
"641 577 OFFCURVE",
"644 644 OFFCURVE",
"664 695 CURVE",
"647 708 OFFCURVE",
"621 715 OFFCURVE",
"599 715 CURVE SMOOTH",
"529 715 OFFCURVE",
"498 678 OFFCURVE",
"506 623 CURVE SMOOTH",
"562 206 LINE",
"532 297 OFFCURVE",
"305 530 OFFCURVE",
"179 707 CURVE",
"179 706 LINE",
"158 722 OFFCURVE",
"87 716 OFFCURVE",
"69 695 CURVE",
"75 649 OFFCURVE",
"76 608 OFFCURVE",
"76 544 CURVE SMOOTH",
"76 159 LINE SMOOTH",
"76 122 OFFCURVE",
"73 55 OFFCURVE",
"53 4 CURVE",
"72 -9 OFFCURVE",
"96 -16 OFFCURVE",
"118 -16 CURVE SMOOTH",
"169 -16 OFFCURVE",
"214 21 OFFCURVE",
"211 76 CURVE SMOOTH"
);
}
);
};
layerId = "7CD7F55D-F857-4B3F-84C3-0D0A5693741B";
name = "Bold Aug 26 15, 11:23";
paths = (
{
closed = 1;
nodes = (
"159 -16 OFFCURVE",
"206 21 OFFCURVE",
"201 76 CURVE SMOOTH",
"165 469 LINE",
"201 388 OFFCURVE",
"269 305 OFFCURVE",
"540 -9 CURVE",
"567 -23 OFFCURVE",
"633 -15 OFFCURVE",
"649 4 CURVE",
"643 50 OFFCURVE",
"642 91 OFFCURVE",
"642 155 CURVE SMOOTH",
"643 540 LINE SMOOTH",
"643 577 OFFCURVE",
"646 644 OFFCURVE",
"666 695 CURVE",
"649 708 OFFCURVE",
"623 715 OFFCURVE",
"601 715 CURVE SMOOTH",
"542 715 OFFCURVE",
"513 678 OFFCURVE",
"519 623 CURVE SMOOTH",
"562 206 LINE",
"532 297 OFFCURVE",
"307 530 OFFCURVE",
"181 707 CURVE",
"167 721 OFFCURVE",
"87 716 OFFCURVE",
"71 695 CURVE",
"77 649 OFFCURVE",
"78 608 OFFCURVE",
"78 544 CURVE SMOOTH",
"78 159 LINE SMOOTH",
"78 122 OFFCURVE",
"75 55 OFFCURVE",
"55 4 CURVE",
"74 -9 OFFCURVE",
"98 -16 OFFCURVE",
"120 -16 CURVE SMOOTH"
);
}
);
width = 721;
},
{
anchors = (
{
name = bottom;
position = "{352, 0}";
},
{
name = top;
position = "{352, 698}";
}
);
layerId = "EBFFFCD3-BAE4-48A5-9442-B72A90AD34A8";
paths = (
{
closed = 1;
nodes = (
"154 -15 OFFCURVE",
"193 17 OFFCURVE",
"189 65 CURVE SMOOTH",
"159 497 LINE",
"208 401 OFFCURVE",
"296 267 OFFCURVE",
"532 -8 CURVE",
"555 -20 OFFCURVE",
"612 -13 OFFCURVE",
"626 3 CURVE",
"620 44 OFFCURVE",
"619 83 OFFCURVE",
"619 143 CURVE SMOOTH",
"620 564 LINE SMOOTH",
"620 596 OFFCURVE",
"621 653 OFFCURVE",
"636 695 CURVE SMOOTH",
"620 706 OFFCURVE",
"598 711 OFFCURVE",
"579 710 CURVE",
"531 707 OFFCURVE",
"508 671 OFFCURVE",
"513 619 CURVE SMOOTH",
"549 179 LINE",
"504 284 OFFCURVE",
"293 533 OFFCURVE",
"172 704 CURVE",
"160 716 OFFCURVE",
"91 712 OFFCURVE",
"76 694 CURVE",
"81 653 OFFCURVE",
"83 612 OFFCURVE",
"83 552 CURVE SMOOTH",
"83 146 LINE SMOOTH",
"83 109 OFFCURVE",
"80 48 OFFCURVE",
"63 3 CURVE",
"79 -8 OFFCURVE",
"100 -15 OFFCURVE",
"120 -15 CURVE SMOOTH"
);
}
);
width = 699;
}
);
leftKerningGroup = H;
leftMetricsKey = H;
rightKerningGroup = H;
rightMetricsKey = H;
unicode = 004E;
},
{
glyphname = O;
lastChange = "2015-10-29 13:05:33 +0000";
layers = (
{
anchors = (
{
name = bottom;
position = "{319, 0}";
},
{
name = center;
position = "{319, 344}";
},
{
name = ogonek;
position = "{566, 10}";
},
{
name = top;
position = "{319, 688}";
},
{
name = topleft;
position = "{30, 688}";
},
{
name = topright;
position = "{513, 623}";
}
);
layerId = "60CFBDE8-BC08-4808-BF41-F011F3E03A54";
paths = (
{
closed = 1;
nodes = (
"476 -12 OFFCURVE",
"568 100 OFFCURVE",
"568 344 CURVE SMOOTH",
"568 588 OFFCURVE",
"476 700 OFFCURVE",
"319 700 CURVE SMOOTH",
"162 700 OFFCURVE",
"70 588 OFFCURVE",
"70 344 CURVE SMOOTH",
"70 100 OFFCURVE",
"162 -12 OFFCURVE",
"319 -12 CURVE SMOOTH"
);
},
{
closed = 1;
nodes = (
"183 16 OFFCURVE",
"102 118 OFFCURVE",
"102 344 CURVE SMOOTH",
"102 570 OFFCURVE",
"183 672 OFFCURVE",
"319 672 CURVE SMOOTH",
"455 672 OFFCURVE",
"536 570 OFFCURVE",
"536 344 CURVE SMOOTH",
"536 118 OFFCURVE",
"455 16 OFFCURVE",
"319 16 CURVE SMOOTH"
);
}
);
width = 638;
},
{
associatedMasterId = "60CFBDE8-BC08-4808-BF41-F011F3E03A54";
layerId = "690BED6D-FDB2-4253-8141-9D623DF559CE";
name = "Bold Aug 11 15, 17:22";
paths = (
{
closed = 1;
nodes = (
"522 -15 OFFCURVE",
"633 110 OFFCURVE",
"633 350 CURVE SMOOTH",
"633 590 OFFCURVE",
"522 715 OFFCURVE",
"334 715 CURVE SMOOTH",
"146 715 OFFCURVE",
"35 590 OFFCURVE",
"35 350 CURVE SMOOTH",
"35 110 OFFCURVE",
"146 -15 OFFCURVE",
"334 -15 CURVE SMOOTH"
);
},
{
closed = 1;
nodes = (
"255 37 OFFCURVE",
"224 130 OFFCURVE",
"224 350 CURVE SMOOTH",
"224 570 OFFCURVE",
"255 663 OFFCURVE",
"334 663 CURVE SMOOTH",
"413 663 OFFCURVE",
"444 570 OFFCURVE",
"444 350 CURVE SMOOTH",
"444 130 OFFCURVE",
"413 37 OFFCURVE",
"334 37 CURVE SMOOTH"
);
}
);
width = 668;
},
{
associatedMasterId = "60CFBDE8-BC08-4808-BF41-F011F3E03A54";
layerId = "DD3BBF76-E38D-4A5B-8224-B6A26D52986B";
name = "Bold Aug 11 15, 17:23";
paths = (
{
closed = 1;
nodes = (
"516 -15 OFFCURVE",
"624 110 OFFCURVE",
"624 350 CURVE SMOOTH",
"624 590 OFFCURVE",
"516 715 OFFCURVE",
"334 715 CURVE SMOOTH",
"152 715 OFFCURVE",
"45 590 OFFCURVE",
"45 350 CURVE SMOOTH",
"45 110 OFFCURVE",
"152 -15 OFFCURVE",
"334 -15 CURVE SMOOTH"
);
},
{
closed = 1;
nodes = (
"255 37 OFFCURVE",
"224 130 OFFCURVE",
"224 350 CURVE SMOOTH",
"224 570 OFFCURVE",
"255 663 OFFCURVE",
"334 663 CURVE SMOOTH",
"413 663 OFFCURVE",
"444 570 OFFCURVE",
"444 350 CURVE SMOOTH",
"444 130 OFFCURVE",
"413 37 OFFCURVE",
"334 37 CURVE SMOOTH"
);
}
);
width = 668;
},
{
associatedMasterId = "60CFBDE8-BC08-4808-BF41-F011F3E03A54";
layerId = "9F93C300-366D-45F9-A2AD-97F810B3F18D";
name = "Bold Aug 24 15, 17:27";
paths = (
{
closed = 1;
nodes = (
"525 -15 OFFCURVE",
"624 110 OFFCURVE",
"624 350 CURVE SMOOTH",
"624 590 OFFCURVE",
"525 715 OFFCURVE",
"334 715 CURVE SMOOTH",
"144 715 OFFCURVE",
"45 590 OFFCURVE",
"45 350 CURVE SMOOTH",
"45 110 OFFCURVE",
"144 -15 OFFCURVE",
"334 -15 CURVE SMOOTH"
);
},
{
closed = 1;
nodes = (
"255 37 OFFCURVE",
"224 130 OFFCURVE",
"224 350 CURVE SMOOTH",
"224 570 OFFCURVE",
"255 663 OFFCURVE",
"334 663 CURVE SMOOTH",
"413 663 OFFCURVE",
"444 570 OFFCURVE",
"444 350 CURVE SMOOTH",
"444 130 OFFCURVE",
"413 37 OFFCURVE",
"334 37 CURVE SMOOTH"
);
}
);
width = 668;
},
{
anchors = (
{
name = bottom;
position = "{332.992, 0}";
},
{
name = center;
position = "{333, 349}";
},
{
name = ogonek;
position = "{598, 10}";
},
{
name = top;
position = "{333, 698}";
},
{
name = topleft;
position = "{22, 698}";
},
{
name = topright;
position = "{511, 653}";
}
);
layerId = "EBFFFCD3-BAE4-48A5-9442-B72A90AD34A8";
paths = (
{
closed = 1;
nodes = (
"521 -14 OFFCURVE",
"619 108 OFFCURVE",
"619 349 CURVE SMOOTH",
"619 590 OFFCURVE",
"521 712 OFFCURVE",
"333 712 CURVE SMOOTH",
"145 712 OFFCURVE",
"47 590 OFFCURVE",
"47 349 CURVE SMOOTH",
"47 108 OFFCURVE",
"145 -14 OFFCURVE",
"333 -14 CURVE SMOOTH"
);
},
{
closed = 1;
nodes = (
"241 33 OFFCURVE",
"201 128 OFFCURVE",
"201 349 CURVE SMOOTH",
"201 570 OFFCURVE",
"241 665 OFFCURVE",
"333 665 CURVE SMOOTH",
"426 665 OFFCURVE",
"465 570 OFFCURVE",
"465 349 CURVE SMOOTH",
"465 128 OFFCURVE",
"426 33 OFFCURVE",
"333 33 CURVE SMOOTH"
);
}
);
width = 666;
}
);
leftKerningGroup = O;
rightKerningGroup = O;
unicode = 004F;
},
{
color = 4;
glyphname = Oslash;
lastChange = "2015-10-29 13:05:33 +0000";
layers = (
{
anchors = (
{
name = bottom;
position = "{309, 0}";
},
{
name = top;
position = "{309, 688}";
}
);
components = (
{
name = O;
}
);
layerId = "60CFBDE8-BC08-4808-BF41-F011F3E03A54";
paths = (
{
closed = 1;
nodes = (
"92 -9 OFFCURVE",
"100 -13 OFFCURVE",
"110 -13 CURVE",
"517 688 LINE",
"513 696 OFFCURVE",
"506 701 OFFCURVE",
"496 701 CURVE",
"88 -1 LINE"
);
}
);
width = 618;
},
{
anchors = (
{
name = bottom;
position = "{331, 0}";
},
{
name = top;
position = "{331, 698}";
}
);
components = (
{
name = O;
}
);
layerId = "EBFFFCD3-BAE4-48A5-9442-B72A90AD34A8";
paths = (
{
closed = 1;
nodes = (
"92 -7 OFFCURVE",
"106 -15 OFFCURVE",
"125 -15 CURVE",
"558 706 LINE",
"549 723 OFFCURVE",
"535 732 OFFCURVE",
"515 731 CURVE",
"82 10 LINE"
);
}
);
width = 662;
}
);
leftKerningGroup = O;
rightKerningGroup = O;
unicode = 00D8;
},
{
color = 4;
glyphname = OE;
lastChange = "2015-10-29 13:05:33 +0000";
layers = (
{
anchors = (
{
name = bottom;
position = "{28, 0}";
},
{
name = center;
position = "{37, 344}";
},
{
name = ogonek;
position = "{284, 10}";
},
{
name = top;
position = "{28, 688}";
},
{
name = topleft;
position = "{-252, 688}";
},
{
name = topright;
position = "{231, 623}";
}
);
components = (
{
name = E;
transform = "{1, 0, 0, 1, 346, 0}";
}
);
layerId = "60CFBDE8-BC08-4808-BF41-F011F3E03A54";
paths = (
{
closed = 1;
nodes = (
"471 85 LINE",
"434 38 OFFCURVE",
"383 16 OFFCURVE",
"319 16 CURVE SMOOTH",
"183 16 OFFCURVE",
"102 118 OFFCURVE",
"102 344 CURVE SMOOTH",
"102 570 OFFCURVE",
"183 672 OFFCURVE",
"319 672 CURVE SMOOTH",
"380 672 OFFCURVE",
"430 651 OFFCURVE",
"467 608 CURVE",
"470 649 LINE",
"431 683 OFFCURVE",
"380 700 OFFCURVE",
"319 700 CURVE SMOOTH",
"162 700 OFFCURVE",
"70 588 OFFCURVE",
"70 344 CURVE SMOOTH",
"70 100 OFFCURVE",
"162 -12 OFFCURVE",
"319 -12 CURVE SMOOTH",
"382 -12 OFFCURVE",
"435 6 OFFCURVE",
"475 44 CURVE"
);
}
);
width = 869;
},
{
anchors = (
{
name = bottom;
position = "{300, 0}";
},
{
name = center;
position = "{336, 350}";
},
{
name = ogonek;
position = "{605, 10}";
},
{
name = top;
position = "{300, 700}";
},
{
name = topleft;
position = "{20, 700}";
},
{
name = topright;
position = "{511, 659}";
}
);
associatedMasterId = "60CFBDE8-BC08-4808-BF41-F011F3E03A54";
components = (
{
name = E;
transform = "{1, 0, 0, 1, 672, 0}";
}
);
layerId = "D333D4B7-6731-4C99-8E6D-EB3CCEF396A2";
name = "Bold Sep 23 15, 16:11";
paths = (
{
closed = 1;
nodes = (
"751 331 LINE",
"749 124 OFFCURVE",
"718 37 OFFCURVE",
"637 37 CURVE SMOOTH",
"554 37 OFFCURVE",
"523 130 OFFCURVE",
"523 350 CURVE SMOOTH",
"523 570 OFFCURVE",
"554 663 OFFCURVE",
"637 663 CURVE SMOOTH",
"716 663 OFFCURVE",
"748 579 OFFCURVE",
"751 382 CURVE",
"862 415 LINE",
"842 605 OFFCURVE",
"810 715 OFFCURVE",
"637 715 CURVE SMOOTH",
"442 715 OFFCURVE",
"343 590 OFFCURVE",
"343 350 CURVE SMOOTH",
"343 110 OFFCURVE",
"442 -15 OFFCURVE",
"637 -15 CURVE SMOOTH",
"816 -15 OFFCURVE",
"847 128 OFFCURVE",
"862 331 CURVE"
);
}
);
width = 1233;
},
{
anchors = (
{
name = bottom;
position = "{282, 0}";
},
{
name = center;
position = "{35, 349}";
},
{
name = ogonek;
position = "{300, 10}";
},
{
name = top;
position = "{387, 698}";
},
{
name = topleft;
position = "{-276, 698}";
},
{
name = topright;
position = "{685, 728}";
}
);
components = (
{
name = E;
transform = "{1, 0, 0, 1, 367, 0}";
}
);
layerId = "EBFFFCD3-BAE4-48A5-9442-B72A90AD34A8";
paths = (
{
closed = 1;
nodes = (
"467 279 LINE",
"459 101 OFFCURVE",
"411 33 OFFCURVE",
"333 33 CURVE SMOOTH",
"241 33 OFFCURVE",
"201 128 OFFCURVE",
"201 349 CURVE SMOOTH",
"201 570 OFFCURVE",
"241 665 OFFCURVE",
"333 665 CURVE SMOOTH",
"409 665 OFFCURVE",
"445 618 OFFCURVE",
"453 461 CURVE",
"545 456 LINE",
"522 619 OFFCURVE",
"486 712 OFFCURVE",
"333 712 CURVE SMOOTH",
"145 712 OFFCURVE",
"47 590 OFFCURVE",
"47 349 CURVE SMOOTH",
"47 108 OFFCURVE",
"145 -14 OFFCURVE",
"333 -14 CURVE SMOOTH",
"492 -14 OFFCURVE",
"526 106 OFFCURVE",
"546 280 CURVE"
);
}
);
width = 921;
}
);
leftKerningGroup = O;
leftMetricsKey = O;
rightKerningGroup = E;
rightMetricsKey = E;
unicode = 0152;
},
{
glyphname = P;
lastChange = "2015-10-29 13:05:33 +0000";
layers = (
{
anchors = (
{
name = bottom;
position = "{267, 0}";
},
{
name = top;
position = "{267, 688}";
}
);
layerId = "60CFBDE8-BC08-4808-BF41-F011F3E03A54";
paths = (
{
closed = 1;
nodes = (
"136 -8 OFFCURVE",
"141 -4 OFFCURVE",
"145 0 CURVE",
"140 17 OFFCURVE",
"138 78 OFFCURVE",
"138 87 CURVE SMOOTH",
"138 670 LINE",
"148 673 OFFCURVE",
"169 674 OFFCURVE",
"194 674 CURVE SMOOTH",
"367 674 OFFCURVE",
"442 624 OFFCURVE",
"442 498 CURVE SMOOTH",
"442 364 OFFCURVE",
"356 307 OFFCURVE",
"180 307 CURVE SMOOTH",
"141 307 OFFCURVE",
"129 307 OFFCURVE",
"116 309 CURVE",
"123 283 LINE",
"137 282 OFFCURVE",
"150 282 OFFCURVE",
"169 282 CURVE SMOOTH",
"376 282 OFFCURVE",
"474 348 OFFCURVE",
"474 499 CURVE SMOOTH",
"474 632 OFFCURVE",
"397 700 OFFCURVE",
"203 700 CURVE SMOOTH",
"125 700 OFFCURVE",
"104 689 OFFCURVE",
"101 687 CURVE",
"106 670 OFFCURVE",
"108 609 OFFCURVE",
"108 600 CURVE SMOOTH",
"108 14 LINE SMOOTH",
"109 0 OFFCURVE",
"115 -8 OFFCURVE",
"127 -8 CURVE SMOOTH"
);
}
);
width = 535;
},
{
associatedMasterId = "60CFBDE8-BC08-4808-BF41-F011F3E03A54";
layerId = "E9D05D1C-EBF6-443A-B900-CA1A37F4DB9F";
name = "Bold Aug 11 15, 16:59";
paths = (
{
closed = 1;
nodes = (
"167 715 OFFCURVE",
"97 704 OFFCURVE",
"47 680 CURVE",
"67 629 OFFCURVE",
"70 578 OFFCURVE",
"70 540 CURVE SMOOTH",
"70 65 LINE SMOOTH",
"70 14 OFFCURVE",
"110 -16 OFFCURVE",
"163 -16 CURVE SMOOTH",
"208 -16 OFFCURVE",
"243 7 OFFCURVE",
"256 19 CURVE",
"236 66 OFFCURVE",
"233 111 OFFCURVE",
"233 149 CURVE SMOOTH",
"233 668 LINE",
"271 668 LINE SMOOTH",
"358 668 OFFCURVE",
"386 593 OFFCURVE",
"386 503 CURVE SMOOTH",
"386 388 OFFCURVE",
"332 310 OFFCURVE",
"227 310 CURVE",
"227 263 LINE",
"450 263 OFFCURVE",
"570 359 OFFCURVE",
"570 506 CURVE SMOOTH",
"570 653 OFFCURVE",
"452 715 OFFCURVE",
"251 715 CURVE SMOOTH"
);
}
);
width = 590;
},
{
associatedMasterId = "60CFBDE8-BC08-4808-BF41-F011F3E03A54";
layerId = "518F333F-A522-48F0-9D28-D1CE72346C26";
name = "Light Aug 24 15, 17:08";
paths = (
{
closed = 1;
nodes = (
"126 -8 OFFCURVE",
"131 -4 OFFCURVE",
"135 0 CURVE",
"130 17 OFFCURVE",
"128 78 OFFCURVE",
"128 87 CURVE SMOOTH",
"128 672 LINE",
"138 675 OFFCURVE",
"158 676 OFFCURVE",
"186 676 CURVE SMOOTH",
"357 676 OFFCURVE",
"432 625 OFFCURVE",
"432 500 CURVE SMOOTH",
"432 361 OFFCURVE",
"339 304 OFFCURVE",
"170 304 CURVE SMOOTH",
"131 304 OFFCURVE",
"119 304 OFFCURVE",
"106 306 CURVE",
"113 277 LINE",
"127 276 OFFCURVE",
"140 276 OFFCURVE",
"159 276 CURVE SMOOTH",
"364 276 OFFCURVE",
"464 342 OFFCURVE",
"464 495 CURVE SMOOTH",
"464 632 OFFCURVE",
"391 700 OFFCURVE",
"189 700 CURVE SMOOTH",
"117 700 OFFCURVE",
"94 689 OFFCURVE",
"91 687 CURVE",
"96 670 OFFCURVE",
"98 609 OFFCURVE",
"98 600 CURVE SMOOTH",
"98 14 LINE SMOOTH",
"99 0 OFFCURVE",
"105 -8 OFFCURVE",
"117 -8 CURVE SMOOTH"
);
}
);
width = 530;
},
{
anchors = (
{
name = bottom;
position = "{293, 0}";
},
{
name = top;
position = "{293, 698}";
}
);
layerId = "EBFFFCD3-BAE4-48A5-9442-B72A90AD34A8";
paths = (
{
closed = 1;
nodes = (
"202 -15 OFFCURVE",
"231 5 OFFCURVE",
"243 16 CURVE",
"225 57 OFFCURVE",
"223 105 OFFCURVE",
"223 138 CURVE SMOOTH",
"223 663 LINE",
"231 664 OFFCURVE",
"241 664 OFFCURVE",
"252 664 CURVE SMOOTH",
"364 664 OFFCURVE",
"401 594 OFFCURVE",
"401 495 CURVE SMOOTH",
"401 391 OFFCURVE",
"362 317 OFFCURVE",
"239 317 CURVE SMOOTH",
"223 317 OFFCURVE",
"211 317 OFFCURVE",
"198 319 CURVE",
"205 271 LINE",
"219 270 OFFCURVE",
"232 270 OFFCURVE",
"246 270 CURVE SMOOTH",
"443 270 OFFCURVE",
"554 355 OFFCURVE",
"554 505 CURVE SMOOTH",
"554 653 OFFCURVE",
"444 712 OFFCURVE",
"249 712 CURVE SMOOTH",
"166 712 OFFCURVE",
"105 701 OFFCURVE",
"63 681 CURVE",
"80 636 OFFCURVE",
"83 583 OFFCURVE",
"83 551 CURVE SMOOTH",
"83 56 LINE SMOOTH",
"83 12 OFFCURVE",
"117 -15 OFFCURVE",
"163 -15 CURVE SMOOTH"
);
}
);
width = 586;
}
);
leftKerningGroup = H;
leftMetricsKey = H;
unicode = 0050;
},
{
color = 4;
glyphname = Thorn;
lastChange = "2015-10-29 13:05:33 +0000";
layers = (
{
anchors = (
{
name = bottom;
position = "{300, 0}";
},
{
name = top;
position = "{300, 688}";
}
);
background = {
paths = (
{
closed = 1;
nodes = (
"108 546 LINE",
"108 14 LINE SMOOTH",
"109 0 OFFCURVE",
"115 -8 OFFCURVE",
"127 -8 CURVE SMOOTH",
"136 -8 OFFCURVE",
"141 -4 OFFCURVE",
"145 0 CURVE",
"140 17 OFFCURVE",
"138 78 OFFCURVE",
"138 87 CURVE SMOOTH",
"138 546 LINE"
);
}
);
};
layerId = "60CFBDE8-BC08-4808-BF41-F011F3E03A54";
paths = (
{
closed = 1;
nodes = (
"376 152 OFFCURVE",
"474 218 OFFCURVE",
"474 369 CURVE SMOOTH",
"474 502 OFFCURVE",
"397 570 OFFCURVE",
"203 570 CURVE SMOOTH",
"183 570 OFFCURVE",
"137 569 OFFCURVE",
"123 568 CURVE",
"122 542 LINE",
"133 544 OFFCURVE",
"178 544 OFFCURVE",
"194 544 CURVE SMOOTH",
"367 544 OFFCURVE",
"442 494 OFFCURVE",
"442 368 CURVE SMOOTH",
"442 234 OFFCURVE",
"356 177 OFFCURVE",
"180 177 CURVE SMOOTH",
"141 177 OFFCURVE",
"129 177 OFFCURVE",
"116 179 CURVE",
"123 153 LINE",
"137 152 OFFCURVE",
"150 152 OFFCURVE",
"169 152 CURVE SMOOTH"
);
},
{
closed = 1;
nodes = (
"135 -8 OFFCURVE",
"140 -4 OFFCURVE",
"144 0 CURVE",
"140 16 OFFCURVE",
"138 47 OFFCURVE",
"138 87 CURVE SMOOTH",
"136 673 LINE SMOOTH",
"136 687 OFFCURVE",
"130 695 OFFCURVE",
"119 695 CURVE SMOOTH",
"110 695 OFFCURVE",
"105 691 OFFCURVE",
"101 687 CURVE",
"105 671 OFFCURVE",
"107 640 OFFCURVE",
"107 600 CURVE SMOOTH",
"109 14 LINE SMOOTH",
"109 0 OFFCURVE",
"115 -8 OFFCURVE",
"126 -8 CURVE SMOOTH"
);
}
);
width = 534;
},
{
anchors = (
{
name = bottom;
position = "{300, 0}";
},
{
name = top;
position = "{300, 698}";
}
);
layerId = "EBFFFCD3-BAE4-48A5-9442-B72A90AD34A8";
paths = (
{
closed = 1;
nodes = (
"442 140 OFFCURVE",
"553 225 OFFCURVE",
"553 375 CURVE SMOOTH",
"553 523 OFFCURVE",
"443 582 OFFCURVE",
"249 582 CURVE SMOOTH",
"238 582 OFFCURVE",
"204 582 OFFCURVE",
"194 582 CURVE",
"194 535 LINE",
"203 536 OFFCURVE",
"243 534 OFFCURVE",
"252 534 CURVE SMOOTH",
"363 534 OFFCURVE",
"400 464 OFFCURVE",
"400 365 CURVE SMOOTH",
"400 261 OFFCURVE",
"362 187 OFFCURVE",
"239 187 CURVE SMOOTH",
"223 187 OFFCURVE",
"211 187 OFFCURVE",
"198 189 CURVE",
"205 141 LINE",
"219 140 OFFCURVE",
"232 140 OFFCURVE",
"246 140 CURVE SMOOTH"
);
},
{
closed = 1;
nodes = (
"202 -15 OFFCURVE",
"231 5 OFFCURVE",
"243 16 CURVE",
"225 60 OFFCURVE",
"223 108 OFFCURVE",
"223 146 CURVE SMOOTH",
"222 641 LINE SMOOTH",
"222 685 OFFCURVE",
"188 711 OFFCURVE",
"143 711 CURVE SMOOTH",
"104 711 OFFCURVE",
"75 692 OFFCURVE",
"63 681 CURVE",
"80 636 OFFCURVE",
"83 589 OFFCURVE",
"83 551 CURVE SMOOTH",
"83 56 LINE SMOOTH",
"83 12 OFFCURVE",
"117 -15 OFFCURVE",
"163 -15 CURVE SMOOTH"
);
}
);
width = 586;
}
);
leftKerningGroup = H;
unicode = 00DE;
},
{
glyphname = Q;
lastChange = "2015-10-29 13:05:33 +0000";
layers = (
{
anchors = (
{
name = bottom;
position = "{316, 0}";
},
{
name = top;
position = "{316, 688}";
}
);
background = {
paths = (
{
closed = 1;
nodes = (
"476 -12 OFFCURVE",
"568 100 OFFCURVE",
"568 344 CURVE SMOOTH",
"568 588 OFFCURVE",
"476 700 OFFCURVE",
"319 700 CURVE SMOOTH",
"162 700 OFFCURVE",
"70 588 OFFCURVE",
"70 344 CURVE SMOOTH",
"70 100 OFFCURVE",
"162 -12 OFFCURVE",
"319 -12 CURVE SMOOTH"
);
},
{
closed = 1;
nodes = (
"183 16 OFFCURVE",
"102 118 OFFCURVE",
"102 344 CURVE SMOOTH",
"102 570 OFFCURVE",
"183 672 OFFCURVE",
"319 672 CURVE SMOOTH",
"455 672 OFFCURVE",
"536 570 OFFCURVE",
"536 344 CURVE SMOOTH",
"536 118 OFFCURVE",
"455 16 OFFCURVE",
"319 16 CURVE SMOOTH"
);
}
);
};
layerId = "60CFBDE8-BC08-4808-BF41-F011F3E03A54";
paths = (
{
closed = 1;
nodes = (
"557 -134 OFFCURVE",
"603 -102 OFFCURVE",
"603 -46 CURVE SMOOTH",
"603 -33 OFFCURVE",
"592 -18 OFFCURVE",
"574 -22 CURVE",
"582 -74 OFFCURVE",
"539 -106 OFFCURVE",
"481 -106 CURVE SMOOTH",
"407 -108 OFFCURVE",
"334 -53 OFFCURVE",
"271 -7 CURVE",
"283 -10 OFFCURVE",
"306 -12 OFFCURVE",
"319 -12 CURVE SMOOTH",
"476 -12 OFFCURVE",
"568 100 OFFCURVE",
"568 344 CURVE SMOOTH",
"568 588 OFFCURVE",
"476 700 OFFCURVE",
"319 700 CURVE SMOOTH",
"162 700 OFFCURVE",
"70 588 OFFCURVE",
"70 344 CURVE SMOOTH",
"70 184 OFFCURVE",
"113 81 OFFCURVE",
"192 21 CURVE SMOOTH",
"268 -37 OFFCURVE",
"370 -137 OFFCURVE",
"484 -134 CURVE SMOOTH"
);
},
{
closed = 1;
nodes = (
"183 16 OFFCURVE",
"102 118 OFFCURVE",
"102 344 CURVE SMOOTH",
"102 570 OFFCURVE",
"183 672 OFFCURVE",
"319 672 CURVE SMOOTH",
"455 672 OFFCURVE",
"536 570 OFFCURVE",
"536 344 CURVE SMOOTH",
"536 118 OFFCURVE",
"455 16 OFFCURVE",
"319 16 CURVE SMOOTH"
);
}
);
width = 638;
},
{
associatedMasterId = "60CFBDE8-BC08-4808-BF41-F011F3E03A54";
background = {
paths = (
{
closed = 1;
nodes = (
"522 -15 OFFCURVE",
"633 110 OFFCURVE",
"633 350 CURVE SMOOTH",
"633 590 OFFCURVE",
"522 715 OFFCURVE",
"334 715 CURVE SMOOTH",
"146 715 OFFCURVE",
"35 590 OFFCURVE",
"35 350 CURVE SMOOTH",
"35 110 OFFCURVE",
"146 -15 OFFCURVE",
"334 -15 CURVE SMOOTH"
);
},
{
closed = 1;
nodes = (
"255 37 OFFCURVE",
"224 130 OFFCURVE",
"224 350 CURVE SMOOTH",
"224 570 OFFCURVE",
"255 663 OFFCURVE",
"334 663 CURVE SMOOTH",
"413 663 OFFCURVE",
"444 570 OFFCURVE",
"444 350 CURVE SMOOTH",
"444 130 OFFCURVE",
"413 37 OFFCURVE",
"334 37 CURVE SMOOTH"
);
}
);
};
layerId = "7A20C54A-B8FF-48F9-B46A-DEAA92ED55B1";
name = "Bold Aug 11 15, 17:23";
paths = (
{
closed = 1;
nodes = (
"628 -174 OFFCURVE",
"666 -130 OFFCURVE",
"666 -86 CURVE SMOOTH",
"666 -36 OFFCURVE",
"635 -7 OFFCURVE",
"585 2 CURVE",
"565 -35 OFFCURVE",
"500 -54 OFFCURVE",
"432 -54 CURVE SMOOTH",
"376 -54 OFFCURVE",
"295 -38 OFFCURVE",
"256 -3 CURVE",
"285 -13 OFFCURVE",
"310 -15 OFFCURVE",
"333 -15 CURVE SMOOTH",
"511 -15 OFFCURVE",
"633 124 OFFCURVE",
"633 350 CURVE SMOOTH",
"633 590 OFFCURVE",
"522 715 OFFCURVE",
"334 715 CURVE SMOOTH",
"146 715 OFFCURVE",
"35 590 OFFCURVE",
"35 349 CURVE SMOOTH",
"35 136 OFFCURVE",
"136 27 OFFCURVE",
"260 -61 CURVE SMOOTH",
"355 -128 OFFCURVE",
"477 -174 OFFCURVE",
"557 -174 CURVE SMOOTH"
);
},
{
closed = 1;
nodes = (
"233 37 OFFCURVE",
"224 166 OFFCURVE",
"224 321 CURVE SMOOTH",
"224 546 OFFCURVE",
"243 663 OFFCURVE",
"333 663 CURVE SMOOTH",
"413 663 OFFCURVE",
"444 570 OFFCURVE",
"444 351 CURVE SMOOTH",
"444 128 OFFCURVE",
"412 37 OFFCURVE",
"330 37 CURVE SMOOTH"
);
}
);
width = 669;
},
{
associatedMasterId = "60CFBDE8-BC08-4808-BF41-F011F3E03A54";
background = {
paths = (
{
closed = 1;
nodes = (
"522 -15 OFFCURVE",
"633 110 OFFCURVE",
"633 350 CURVE SMOOTH",
"633 590 OFFCURVE",
"522 715 OFFCURVE",
"334 715 CURVE SMOOTH",
"146 715 OFFCURVE",
"35 590 OFFCURVE",
"35 350 CURVE SMOOTH",
"35 110 OFFCURVE",
"146 -15 OFFCURVE",
"334 -15 CURVE SMOOTH"
);
},
{
closed = 1;
nodes = (
"255 37 OFFCURVE",
"224 130 OFFCURVE",
"224 350 CURVE SMOOTH",
"224 570 OFFCURVE",
"255 663 OFFCURVE",
"334 663 CURVE SMOOTH",
"413 663 OFFCURVE",
"444 570 OFFCURVE",
"444 350 CURVE SMOOTH",
"444 130 OFFCURVE",
"413 37 OFFCURVE",
"334 37 CURVE SMOOTH"
);
}
);
};
layerId = "AD8294BD-D3D2-4B34-A3CE-53CCDF5DA2C9";
name = "Bold Aug 24 15, 17:10";
paths = (
{
closed = 1;
nodes = (
"628 -174 OFFCURVE",
"666 -130 OFFCURVE",
"666 -86 CURVE SMOOTH",
"666 -36 OFFCURVE",
"635 -7 OFFCURVE",
"585 2 CURVE",
"565 -35 OFFCURVE",
"500 -54 OFFCURVE",
"432 -54 CURVE SMOOTH",
"376 -54 OFFCURVE",
"295 -38 OFFCURVE",
"256 -3 CURVE",
"285 -13 OFFCURVE",
"310 -15 OFFCURVE",
"333 -15 CURVE SMOOTH",
"511 -15 OFFCURVE",
"633 124 OFFCURVE",
"633 350 CURVE SMOOTH",
"633 590 OFFCURVE",
"522 715 OFFCURVE",
"334 715 CURVE SMOOTH",
"146 715 OFFCURVE",
"35 590 OFFCURVE",
"35 349 CURVE SMOOTH",
"35 136 OFFCURVE",
"136 27 OFFCURVE",
"260 -61 CURVE SMOOTH",
"355 -128 OFFCURVE",
"477 -174 OFFCURVE",
"557 -174 CURVE SMOOTH"
);
},
{
closed = 1;
nodes = (
"233 37 OFFCURVE",
"224 166 OFFCURVE",
"224 321 CURVE SMOOTH",
"224 546 OFFCURVE",
"243 663 OFFCURVE",
"333 663 CURVE SMOOTH",
"413 663 OFFCURVE",
"444 570 OFFCURVE",
"444 351 CURVE SMOOTH",
"444 128 OFFCURVE",
"412 37 OFFCURVE",
"330 37 CURVE SMOOTH"
);
}
);
width = 669;
},
{
associatedMasterId = "60CFBDE8-BC08-4808-BF41-F011F3E03A54";
background = {
paths = (
{
closed = 1;
nodes = (
"466 -12 OFFCURVE",
"558 100 OFFCURVE",
"558 344 CURVE SMOOTH",
"558 588 OFFCURVE",
"466 700 OFFCURVE",
"309 700 CURVE SMOOTH",
"152 700 OFFCURVE",
"60 588 OFFCURVE",
"60 344 CURVE SMOOTH",
"60 100 OFFCURVE",
"152 -12 OFFCURVE",
"309 -12 CURVE SMOOTH"
);
},
{
closed = 1;
nodes = (
"173 16 OFFCURVE",
"92 118 OFFCURVE",
"92 344 CURVE SMOOTH",
"92 570 OFFCURVE",
"173 672 OFFCURVE",
"309 672 CURVE SMOOTH",
"445 672 OFFCURVE",
"526 570 OFFCURVE",
"526 344 CURVE SMOOTH",
"526 118 OFFCURVE",
"445 16 OFFCURVE",
"309 16 CURVE SMOOTH"
);
}
);
};
layerId = "B9DF199A-464E-4092-9EB2-0F22D097DD75";
name = "Light Aug 24 15, 17:12";
paths = (
{
closed = 1;
nodes = (
"547 -134 OFFCURVE",
"593 -102 OFFCURVE",
"593 -46 CURVE SMOOTH",
"593 -33 OFFCURVE",
"582 -18 OFFCURVE",
"564 -22 CURVE",
"572 -74 OFFCURVE",
"529 -106 OFFCURVE",
"471 -106 CURVE SMOOTH",
"397 -108 OFFCURVE",
"317 -53 OFFCURVE",
"254 -7 CURVE",
"266 -10 OFFCURVE",
"296 -12 OFFCURVE",
"309 -12 CURVE SMOOTH",
"466 -12 OFFCURVE",
"558 100 OFFCURVE",
"558 344 CURVE SMOOTH",
"558 588 OFFCURVE",
"466 700 OFFCURVE",
"309 700 CURVE SMOOTH",
"152 700 OFFCURVE",
"60 588 OFFCURVE",
"60 344 CURVE SMOOTH",
"60 184 OFFCURVE",
"103 81 OFFCURVE",
"182 21 CURVE SMOOTH",
"258 -37 OFFCURVE",
"360 -137 OFFCURVE",
"474 -134 CURVE SMOOTH"
);
},
{
closed = 1;
nodes = (
"173 16 OFFCURVE",
"92 118 OFFCURVE",
"92 344 CURVE SMOOTH",
"92 570 OFFCURVE",
"173 672 OFFCURVE",
"309 672 CURVE SMOOTH",
"445 672 OFFCURVE",
"526 570 OFFCURVE",
"526 344 CURVE SMOOTH",
"526 118 OFFCURVE",
"445 16 OFFCURVE",
"309 16 CURVE SMOOTH"
);
}
);
width = 600;
},
{
anchors = (
{
name = bottom;
position = "{335, 0}";
},
{
name = top;
position = "{335, 698}";
}
);
layerId = "EBFFFCD3-BAE4-48A5-9442-B72A90AD34A8";
paths = (
{
closed = 1;
nodes = (
"621 -167 OFFCURVE",
"661 -125 OFFCURVE",
"661 -79 CURVE SMOOTH",
"661 -35 OFFCURVE",
"633 -9 OFFCURVE",
"589 -2 CURVE",
"574 -42 OFFCURVE",
"515 -61 OFFCURVE",
"449 -61 CURVE SMOOTH",
"390 -61 OFFCURVE",
"323 -44 OFFCURVE",
"279 -7 CURVE",
"299 -13 OFFCURVE",
"315 -14 OFFCURVE",
"336 -14 CURVE SMOOTH",
"511 -14 OFFCURVE",
"627 120 OFFCURVE",
"627 349 CURVE SMOOTH",
"627 590 OFFCURVE",
"520 712 OFFCURVE",
"337 712 CURVE SMOOTH",
"155 712 OFFCURVE",
"47 590 OFFCURVE",
"47 348 CURVE SMOOTH",
"47 144 OFFCURVE",
"133 37 OFFCURVE",
"249 -46 CURVE SMOOTH",
"340 -112 OFFCURVE",
"464 -167 OFFCURVE",
"550 -167 CURVE SMOOTH"
);
},
{
closed = 1;
nodes = (
"230 33 OFFCURVE",
"208 158 OFFCURVE",
"208 325 CURVE SMOOTH",
"208 550 OFFCURVE",
"238 665 OFFCURVE",
"336 665 CURVE SMOOTH",
"426 665 OFFCURVE",
"466 570 OFFCURVE",
"466 350 CURVE SMOOTH",
"466 126 OFFCURVE",
"425 33 OFFCURVE",
"334 33 CURVE SMOOTH"
);
}
);
width = 676;
}
);
leftKerningGroup = O;
leftMetricsKey = O;
rightKerningGroup = O;
unicode = 0051;
},
{
glyphname = R;
lastChange = "2015-10-29 13:05:33 +0000";
layers = (
{
anchors = (
{
name = bottom;
position = "{286, 0}";
},
{
name = top;
position = "{252, 688}";
}
);
layerId = "60CFBDE8-BC08-4808-BF41-F011F3E03A54";
paths = (
{
closed = 1;
nodes = (
"136 -8 OFFCURVE",
"141 -4 OFFCURVE",
"145 0 CURVE",
"140 17 OFFCURVE",
"138 78 OFFCURVE",
"138 87 CURVE SMOOTH",
"138 670 LINE",
"150 673 OFFCURVE",
"173 674 OFFCURVE",
"206 674 CURVE SMOOTH",
"370 674 OFFCURVE",
"442 632 OFFCURVE",
"442 500 CURVE SMOOTH",
"442 388 OFFCURVE",
"349 328 OFFCURVE",
"249 328 CURVE SMOOTH",
"193 328 OFFCURVE",
"154 328 OFFCURVE",
"124 329 CURVE",
"131 302 LINE",
"249 302 LINE SMOOTH",
"355 302 OFFCURVE",
"371 250 OFFCURVE",
"391 200 CURVE SMOOTH",
"453 45 LINE SMOOTH",
"466 12 OFFCURVE",
"490 -8 OFFCURVE",
"513 -8 CURVE SMOOTH",
"528 -8 OFFCURVE",
"555 1 OFFCURVE",
"555 22 CURVE SMOOTH",
"555 27 OFFCURVE",
"554 32 OFFCURVE",
"550 37 CURVE",
"541 22 OFFCURVE",
"524 20 OFFCURVE",
"517 20 CURVE SMOOTH",
"502 20 OFFCURVE",
"492 29 OFFCURVE",
"479 61 CURVE SMOOTH",
"422 202 LINE SMOOTH",
"398 262 OFFCURVE",
"372 321 OFFCURVE",
"307 321 CURVE",
"312 312 LINE",
"406 329 OFFCURVE",
"474 401 OFFCURVE",
"474 505 CURVE SMOOTH",
"474 644 OFFCURVE",
"396 700 OFFCURVE",
"209 700 CURVE SMOOTH",
"130 700 OFFCURVE",
"104 689 OFFCURVE",
"101 687 CURVE",
"106 670 OFFCURVE",
"108 609 OFFCURVE",
"108 600 CURVE SMOOTH",
"108 14 LINE",
"109 0 OFFCURVE",
"115 -8 OFFCURVE",
"127 -8 CURVE SMOOTH"
);
}
);
width = 572;
},
{
associatedMasterId = "60CFBDE8-BC08-4808-BF41-F011F3E03A54";
layerId = "6F059417-4673-40CD-A1B7-068C9B819456";
name = "Bold Aug 11 15, 17:16";
paths = (
{
closed = 1;
nodes = (
"486 294 OFFCURVE",
"448 340 OFFCURVE",
"279 335 CURVE",
"285 330 LINE",
"446 322 OFFCURVE",
"570 423 OFFCURVE",
"570 525 CURVE SMOOTH",
"570 659 OFFCURVE",
"452 715 OFFCURVE",
"254 715 CURVE SMOOTH",
"166 715 OFFCURVE",
"97 704 OFFCURVE",
"47 680 CURVE",
"67 629 OFFCURVE",
"70 578 OFFCURVE",
"70 540 CURVE SMOOTH",
"70 65 LINE SMOOTH",
"70 14 OFFCURVE",
"110 -16 OFFCURVE",
"163 -16 CURVE SMOOTH",
"208 -16 OFFCURVE",
"243 7 OFFCURVE",
"256 19 CURVE",
"236 66 OFFCURVE",
"233 111 OFFCURVE",
"233 149 CURVE SMOOTH",
"233 668 LINE",
"271 668 LINE SMOOTH",
"358 668 OFFCURVE",
"386 601 OFFCURVE",
"386 526 CURVE SMOOTH",
"386 424 OFFCURVE",
"329 359 OFFCURVE",
"217 359 CURVE",
"217 312 LINE",
"303 312 OFFCURVE",
"325 283 OFFCURVE",
"366 158 CURVE SMOOTH",
"405 42 OFFCURVE",
"436 -15 OFFCURVE",
"524 -15 CURVE SMOOTH",
"581 -15 OFFCURVE",
"596 -3 OFFCURVE",
"624 17 CURVE",
"586 49 OFFCURVE",
"572 99 OFFCURVE",
"537 184 CURVE SMOOTH"
);
}
);
width = 621;
},
{
associatedMasterId = "60CFBDE8-BC08-4808-BF41-F011F3E03A54";
layerId = "CC8B8398-AF65-4725-B3F4-683F4D5D907F";
name = "Bold Aug 11 15, 17:33";
paths = (
{
closed = 1;
nodes = (
"486 318 OFFCURVE",
"483 366 OFFCURVE",
"324 361 CURVE",
"285 340 LINE",
"449 334 OFFCURVE",
"560 412 OFFCURVE",
"560 539 CURVE SMOOTH",
"560 667 OFFCURVE",
"447 715 OFFCURVE",
"256 715 CURVE SMOOTH",
"165 715 OFFCURVE",
"97 704 OFFCURVE",
"47 680 CURVE",
"67 629 OFFCURVE",
"70 578 OFFCURVE",
"70 540 CURVE SMOOTH",
"70 65 LINE SMOOTH",
"70 14 OFFCURVE",
"110 -16 OFFCURVE",
"163 -16 CURVE SMOOTH",
"208 -16 OFFCURVE",
"243 7 OFFCURVE",
"256 19 CURVE",
"236 66 OFFCURVE",
"233 111 OFFCURVE",
"233 149 CURVE SMOOTH",
"233 668 LINE",
"271 668 LINE SMOOTH",
"353 668 OFFCURVE",
"380 601 OFFCURVE",
"380 527 CURVE SMOOTH",
"380 432 OFFCURVE",
"335 353 OFFCURVE",
"205 377 CURVE",
"217 322 LINE",
"321 322 OFFCURVE",
"326 274 OFFCURVE",
"366 158 CURVE SMOOTH",
"404 49 OFFCURVE",
"432 -15 OFFCURVE",
"533 -15 CURVE SMOOTH",
"594 -15 OFFCURVE",
"630 0 OFFCURVE",
"652 30 CURVE",
"599 65 OFFCURVE",
"592 97 OFFCURVE",
"554 184 CURVE SMOOTH"
);
}
);
width = 621;
},
{
associatedMasterId = "60CFBDE8-BC08-4808-BF41-F011F3E03A54";
layerId = "0C2C534B-429E-44D1-9B10-DA0CACD7C692";
name = "Bold Aug 11 15, 17:33";
paths = (
{
closed = 1;
nodes = (
"494 321 OFFCURVE",
"483 366 OFFCURVE",
"324 361 CURVE",
"285 340 LINE",
"449 334 OFFCURVE",
"560 412 OFFCURVE",
"560 539 CURVE SMOOTH",
"560 667 OFFCURVE",
"447 715 OFFCURVE",
"256 715 CURVE SMOOTH",
"165 715 OFFCURVE",
"97 704 OFFCURVE",
"47 680 CURVE",
"67 629 OFFCURVE",
"70 578 OFFCURVE",
"70 540 CURVE SMOOTH",
"70 65 LINE SMOOTH",
"70 14 OFFCURVE",
"110 -16 OFFCURVE",
"163 -16 CURVE SMOOTH",
"208 -16 OFFCURVE",
"243 7 OFFCURVE",
"256 19 CURVE",
"236 66 OFFCURVE",
"233 111 OFFCURVE",
"233 149 CURVE SMOOTH",
"233 668 LINE",
"271 668 LINE SMOOTH",
"353 668 OFFCURVE",
"380 601 OFFCURVE",
"380 527 CURVE SMOOTH",
"380 432 OFFCURVE",
"335 353 OFFCURVE",
"205 377 CURVE",
"217 322 LINE",
"321 322 OFFCURVE",
"326 274 OFFCURVE",
"366 158 CURVE SMOOTH",
"404 49 OFFCURVE",
"432 -15 OFFCURVE",
"533 -15 CURVE SMOOTH",
"594 -15 OFFCURVE",
"653 30 OFFCURVE",
"638 110 CURVE",
"616 97 OFFCURVE",
"592 97 OFFCURVE",
"554 184 CURVE SMOOTH"
);
}
);
width = 621;
},
{
associatedMasterId = "60CFBDE8-BC08-4808-BF41-F011F3E03A54";
layerId = "8F6BA0C9-E2A8-4E0A-8322-2EE942469B85";
name = "Bold Aug 24 15, 16:16";
paths = (
{
closed = 1;
nodes = (
"208 -16 OFFCURVE",
"243 7 OFFCURVE",
"256 19 CURVE",
"236 66 OFFCURVE",
"233 111 OFFCURVE",
"233 149 CURVE SMOOTH",
"233 668 LINE",
"246 668 OFFCURVE",
"258 668 OFFCURVE",
"271 668 CURVE SMOOTH",
"353 668 OFFCURVE",
"380 601 OFFCURVE",
"380 527 CURVE SMOOTH",
"380 441 OFFCURVE",
"347 367 OFFCURVE",
"256 363 CURVE SMOOTH",
"241 362 OFFCURVE",
"224 364 OFFCURVE",
"205 367 CURVE",
"217 312 LINE",
"247 311 LINE SMOOTH",
"306 309 OFFCURVE",
"326 267 OFFCURVE",
"345 217 CURVE SMOOTH",
"366 158 LINE SMOOTH",
"409 50 OFFCURVE",
"432 -15 OFFCURVE",
"533 -15 CURVE SMOOTH",
"568 -15 OFFCURVE",
"624 11 OFFCURVE",
"624 71 CURVE SMOOTH",
"624 83 OFFCURVE",
"621 97 OFFCURVE",
"615 113 CURVE",
"607 109 OFFCURVE",
"600 107 OFFCURVE",
"593 108 CURVE SMOOTH",
"572 109 OFFCURVE",
"554 132 OFFCURVE",
"532 184 CURVE",
"494 266 LINE SMOOTH",
"461 321 OFFCURVE",
"420 354 OFFCURVE",
"309 351 CURVE",
"285 330 LINE",
"448 324 OFFCURVE",
"558 404 OFFCURVE",
"558 537 CURVE SMOOTH",
"558 665 OFFCURVE",
"446 715 OFFCURVE",
"256 715 CURVE SMOOTH",
"165 715 OFFCURVE",
"97 704 OFFCURVE",
"47 680 CURVE",
"67 629 OFFCURVE",
"70 578 OFFCURVE",
"70 540 CURVE SMOOTH",
"70 65 LINE SMOOTH",
"70 14 OFFCURVE",
"110 -16 OFFCURVE",
"163 -16 CURVE SMOOTH"
);
}
);
width = 621;
},
{
anchors = (
{
name = bottom;
position = "{343, 0}";
},
{
name = top;
position = "{309, 698}";
}
);
layerId = "EBFFFCD3-BAE4-48A5-9442-B72A90AD34A8";
paths = (
{
closed = 1;
nodes = (
"202 -15 OFFCURVE",
"231 5 OFFCURVE",
"243 16 CURVE",
"225 57 OFFCURVE",
"223 105 OFFCURVE",
"223 138 CURVE SMOOTH",
"223 664 LINE",
"235 665 OFFCURVE",
"249 665 OFFCURVE",
"266 665 CURVE SMOOTH",
"362 665 OFFCURVE",
"397 602 OFFCURVE",
"397 522 CURVE SMOOTH",
"397 432 OFFCURVE",
"354 360 OFFCURVE",
"261 357 CURVE SMOOTH",
"239 356 OFFCURVE",
"218 358 OFFCURVE",
"197 360 CURVE",
"208 310 LINE",
"254 309 LINE SMOOTH",
"321 308 OFFCURVE",
"340 264 OFFCURVE",
"360 214 CURVE SMOOTH",
"388 138 LINE SMOOTH",
"426 43 OFFCURVE",
"449 -14 OFFCURVE",
"536 -14 CURVE SMOOTH",
"567 -14 OFFCURVE",
"618 9 OFFCURVE",
"618 62 CURVE SMOOTH",
"618 73 OFFCURVE",
"616 85 OFFCURVE",
"610 100 CURVE",
"602 94 OFFCURVE",
"593 92 OFFCURVE",
"586 92 CURVE SMOOTH",
"566 93 OFFCURVE",
"549 114 OFFCURVE",
"529 162 CURVE SMOOTH",
"488 255 LINE SMOOTH",
"456 311 OFFCURVE",
"418 348 OFFCURVE",
"315 346 CURVE",
"296 327 LINE",
"447 325 OFFCURVE",
"550 403 OFFCURVE",
"550 531 CURVE SMOOTH",
"550 661 OFFCURVE",
"444 712 OFFCURVE",
"254 712 CURVE SMOOTH",
"165 712 OFFCURVE",
"105 701 OFFCURVE",
"63 681 CURVE",
"80 636 OFFCURVE",
"83 583 OFFCURVE",
"83 551 CURVE SMOOTH",
"83 56 LINE",
"83 12 OFFCURVE",
"117 -15 OFFCURVE",
"163 -15 CURVE SMOOTH"
);
}
);
width = 630;
}
);
leftKerningGroup = H;
leftMetricsKey = H;
rightKerningGroup = R;
unicode = 0052;
},
{
glyphname = S;
lastChange = "2015-10-29 13:05:33 +0000";
layers = (
{
anchors = (
{
name = bottom;
position = "{272, 0}";
},
{
name = top;
position = "{272, 688}";
}
);
guideLines = (
{
angle = 90;
position = "{221, 302}";
}
);
layerId = "60CFBDE8-BC08-4808-BF41-F011F3E03A54";
paths = (
{
closed = 1;
nodes = (
"444 -12 OFFCURVE",
"484 80 OFFCURVE",
"484 155 CURVE SMOOTH",
"484 257 OFFCURVE",
"409 313 OFFCURVE",
"288 377 CURVE SMOOTH",
"212 418 OFFCURVE",
"122 458 OFFCURVE",
"122 554 CURVE SMOOTH",
"122 643 OFFCURVE",
"200 672 OFFCURVE",
"278 672 CURVE SMOOTH",
"361 672 OFFCURVE",
"434 639 OFFCURVE",
"434 564 CURVE SMOOTH",
"434 556 OFFCURVE",
"433 547 OFFCURVE",
"428 538 CURVE",
"438 535 OFFCURVE",
"445 535 OFFCURVE",
"452 539 CURVE SMOOTH",
"462 545 OFFCURVE",
"465 554 OFFCURVE",
"465 570 CURVE SMOOTH",
"465 649 OFFCURVE",
"390 700 OFFCURVE",
"280 700 CURVE SMOOTH",
"177 700 OFFCURVE",
"90 655 OFFCURVE",
"90 550 CURVE SMOOTH",
"90 451 OFFCURVE",
"167 408 OFFCURVE",
"271 351 CURVE SMOOTH",
"386 288 OFFCURVE",
"452 245 OFFCURVE",
"452 155 CURVE SMOOTH",
"452 63 OFFCURVE",
"382 16 OFFCURVE",
"274 16 CURVE SMOOTH",
"172 16 OFFCURVE",
"99 58 OFFCURVE",
"99 153 CURVE SMOOTH",
"99 169 OFFCURVE",
"101 176 OFFCURVE",
"104 186 CURVE",
"75 189 OFFCURVE",
"66 174 OFFCURVE",
"66 142 CURVE SMOOTH",
"66 61 OFFCURVE",
"126 -12 OFFCURVE",
"276 -12 CURVE SMOOTH"
);
}
);
width = 543;
},
{
associatedMasterId = "60CFBDE8-BC08-4808-BF41-F011F3E03A54";
layerId = "347C6ED7-FA26-4958-923B-B965B667BEF4";
name = "Bold Aug 11 15, 17:23";
paths = (
{
closed = 1;
nodes = (
"431 -15 OFFCURVE",
"515 75 OFFCURVE",
"515 181 CURVE SMOOTH",
"515 304 OFFCURVE",
"401 370 OFFCURVE",
"322 422 CURVE SMOOTH",
"209 496 OFFCURVE",
"170 530 OFFCURVE",
"170 587 CURVE SMOOTH",
"170 648 OFFCURVE",
"216 664 OFFCURVE",
"255 664 CURVE SMOOTH",
"310 664 OFFCURVE",
"336 631 OFFCURVE",
"349 601 CURVE SMOOTH",
"358 580 OFFCURVE",
"362 557 OFFCURVE",
"362 533 CURVE",
"374 531 OFFCURVE",
"391 530 OFFCURVE",
"402 530 CURVE SMOOTH",
"467 530 OFFCURVE",
"487 565 OFFCURVE",
"487 601 CURVE SMOOTH",
"487 679 OFFCURVE",
"393 715 OFFCURVE",
"275 715 CURVE SMOOTH",
"133 715 OFFCURVE",
"20 663 OFFCURVE",
"20 528 CURVE SMOOTH",
"20 407 OFFCURVE",
"112 349 OFFCURVE",
"232 270 CURVE SMOOTH",
"310 219 OFFCURVE",
"358 185 OFFCURVE",
"358 122 CURVE SMOOTH",
"358 61 OFFCURVE",
"313 39 OFFCURVE",
"265 39 CURVE SMOOTH",
"184 39 OFFCURVE",
"148 101 OFFCURVE",
"138 145 CURVE SMOOTH",
"134 163 OFFCURVE",
"132 186 OFFCURVE",
"136 203 CURVE",
"36 218 OFFCURVE",
"5 172 OFFCURVE",
"5 123 CURVE SMOOTH",
"5 44 OFFCURVE",
"85 -15 OFFCURVE",
"240 -15 CURVE SMOOTH"
);
}
);
width = 540;
},
{
associatedMasterId = "60CFBDE8-BC08-4808-BF41-F011F3E03A54";
layerId = "850454C1-FD6B-49D9-9FF4-299DF5515364";
name = "Bold Aug 26 15, 10:42";
paths = (
{
closed = 1;
nodes = (
"452 -16 OFFCURVE",
"535 74 OFFCURVE",
"535 181 CURVE SMOOTH",
"535 303 OFFCURVE",
"427 371 OFFCURVE",
"342 426 CURVE SMOOTH",
"228 500 OFFCURVE",
"190 535 OFFCURVE",
"190 588 CURVE SMOOTH",
"190 648 OFFCURVE",
"238 664 OFFCURVE",
"271 664 CURVE SMOOTH",
"319 664 OFFCURVE",
"343 631 OFFCURVE",
"356 601 CURVE SMOOTH",
"365 580 OFFCURVE",
"369 557 OFFCURVE",
"369 533 CURVE",
"381 531 OFFCURVE",
"398 530 OFFCURVE",
"409 530 CURVE SMOOTH",
"474 530 OFFCURVE",
"494 565 OFFCURVE",
"494 601 CURVE SMOOTH",
"494 679 OFFCURVE",
"402 715 OFFCURVE",
"290 715 CURVE SMOOTH",
"156 715 OFFCURVE",
"40 663 OFFCURVE",
"40 529 CURVE SMOOTH",
"40 408 OFFCURVE",
"136 351 OFFCURVE",
"252 274 CURVE SMOOTH",
"333 220 OFFCURVE",
"378 186 OFFCURVE",
"378 123 CURVE SMOOTH",
"378 59 OFFCURVE",
"333 38 OFFCURVE",
"285 38 CURVE SMOOTH",
"204 38 OFFCURVE",
"168 100 OFFCURVE",
"158 144 CURVE SMOOTH",
"154 162 OFFCURVE",
"152 185 OFFCURVE",
"156 202 CURVE",
"56 217 OFFCURVE",
"25 171 OFFCURVE",
"25 122 CURVE SMOOTH",
"25 43 OFFCURVE",
"105 -16 OFFCURVE",
"260 -16 CURVE SMOOTH"
);
}
);
width = 560;
},
{
anchors = (
{
name = bottom;
position = "{284, 0}";
},
{
name = top;
position = "{289, 698}";
}
);
layerId = "EBFFFCD3-BAE4-48A5-9442-B72A90AD34A8";
paths = (
{
closed = 1;
nodes = (
"450 -15 OFFCURVE",
"536 75 OFFCURVE",
"536 184 CURVE SMOOTH",
"536 305 OFFCURVE",
"435 366 OFFCURVE",
"342 417 CURVE SMOOTH",
"220 485 OFFCURVE",
"188 521 OFFCURVE",
"188 582 CURVE SMOOTH",
"188 647 OFFCURVE",
"241 665 OFFCURVE",
"282 665 CURVE SMOOTH",
"350 665 OFFCURVE",
"383 632 OFFCURVE",
"394 594 CURVE SMOOTH",
"401 576 OFFCURVE",
"404 555 OFFCURVE",
"403 534 CURVE",
"415 532 OFFCURVE",
"430 531 OFFCURVE",
"441 532 CURVE SMOOTH",
"496 533 OFFCURVE",
"513 563 OFFCURVE",
"513 596 CURVE SMOOTH",
"513 674 OFFCURVE",
"424 712 OFFCURVE",
"298 712 CURVE SMOOTH",
"170 712 OFFCURVE",
"59 662 OFFCURVE",
"59 533 CURVE SMOOTH",
"59 416 OFFCURVE",
"137 361 OFFCURVE",
"265 288 CURVE SMOOTH",
"355 237 OFFCURVE",
"401 203 OFFCURVE",
"401 135 CURVE SMOOTH",
"401 66 OFFCURVE",
"352 34 OFFCURVE",
"293 34 CURVE SMOOTH",
"200 34 OFFCURVE",
"158 93 OFFCURVE",
"149 146 CURVE SMOOTH",
"146 163 OFFCURVE",
"145 183 OFFCURVE",
"149 199 CURVE",
"61 212 OFFCURVE",
"34 172 OFFCURVE",
"34 126 CURVE SMOOTH",
"34 46 OFFCURVE",
"110 -15 OFFCURVE",
"273 -15 CURVE SMOOTH"
);
}
);
width = 568;
}
);
leftKerningGroup = S;
rightKerningGroup = S;
unicode = 0053;
},
{
glyphname = Germandbls;
lastChange = "2015-10-29 13:05:33 +0000";
layers = (
{
layerId = "60CFBDE8-BC08-4808-BF41-F011F3E03A54";
paths = (
{
closed = 1;
nodes = (
"458 -12 OFFCURVE",
"517 62 OFFCURVE",
"517 172 CURVE SMOOTH",
"517 304 OFFCURVE",
"432 363 OFFCURVE",
"337 386 CURVE",
"418 458 OFFCURVE",
"458 535 OFFCURVE",
"489 643 CURVE",
"448 682 OFFCURVE",
"378 700 OFFCURVE",
"288 700 CURVE SMOOTH",
"155 700 OFFCURVE",
"85 636 OFFCURVE",
"85 428 CURVE SMOOTH",
"85 14 LINE SMOOTH",
"85 -1 OFFCURVE",
"86 -8 OFFCURVE",
"98 -8 CURVE SMOOTH",
"110 -8 OFFCURVE",
"117 -2 OFFCURVE",
"119 0 CURVE",
"115 25 OFFCURVE",
"114 42 OFFCURVE",
"114 418 CURVE SMOOTH",
"114 604 OFFCURVE",
"167 672 OFFCURVE",
"283 672 CURVE SMOOTH",
"366 672 OFFCURVE",
"420 660 OFFCURVE",
"458 636 CURVE",
"438 552 OFFCURVE",
"388 463 OFFCURVE",
"307 392 CURVE",
"307 367 LINE",
"385 344 OFFCURVE",
"485 313 OFFCURVE",
"485 172 CURVE SMOOTH",
"485 92 OFFCURVE",
"454 14 OFFCURVE",
"347 14 CURVE SMOOTH",
"279 14 OFFCURVE",
"251 45 OFFCURVE",
"245 77 CURVE",
"232 85 OFFCURVE",
"215 81 OFFCURVE",
"215 66 CURVE SMOOTH",
"215 47 OFFCURVE",
"243 -12 OFFCURVE",
"344 -12 CURVE SMOOTH"
);
}
);
width = 571;
},
{
layerId = "EBFFFCD3-BAE4-48A5-9442-B72A90AD34A8";
paths = (
{
closed = 1;
nodes = (
"532 -14 OFFCURVE",
"614 60 OFFCURVE",
"614 175 CURVE SMOOTH",
"614 297 OFFCURVE",
"527 350 OFFCURVE",
"445 374 CURVE",
"515 444 OFFCURVE",
"554 548 OFFCURVE",
"577 667 CURVE",
"516 712 OFFCURVE",
"408 728 OFFCURVE",
"333 728 CURVE SMOOTH",
"161 728 OFFCURVE",
"61 638 OFFCURVE",
"63 394 CURVE SMOOTH",
"64 67 LINE SMOOTH",
"64 17 OFFCURVE",
"102 -11 OFFCURVE",
"142 -11 CURVE SMOOTH",
"178 -11 OFFCURVE",
"212 10 OFFCURVE",
"223 19 CURVE",
"201 69 OFFCURVE",
"200 82 OFFCURVE",
"199 271 CURVE SMOOTH",
"197 583 OFFCURVE",
"202 683 OFFCURVE",
"330 683 CURVE SMOOTH",
"368 683 OFFCURVE",
"407 676 OFFCURVE",
"433 650 CURVE",
"422 569 OFFCURVE",
"395 472 OFFCURVE",
"322 385 CURVE",
"322 355 LINE",
"415 324 OFFCURVE",
"467 286 OFFCURVE",
"467 156 CURVE SMOOTH",
"467 101 OFFCURVE",
"457 30 OFFCURVE",
"400 30 CURVE SMOOTH",
"361 30 OFFCURVE",
"337 57 OFFCURVE",
"341 137 CURVE",
"296 145 OFFCURVE",
"266 121 OFFCURVE",
"266 79 CURVE SMOOTH",
"266 34 OFFCURVE",
"309 -14 OFFCURVE",
"406 -14 CURVE SMOOTH"
);
}
);
width = 648;
}
);
leftKerningGroup = Germandbls;
unicode = 1E9E;
},
{
glyphname = Schwa;
lastChange = "2015-10-29 13:05:33 +0000";
layers = (
{
layerId = "60CFBDE8-BC08-4808-BF41-F011F3E03A54";
paths = (
{
closed = 1;
nodes = (
"184 700 OFFCURVE",
"104 667 OFFCURVE",
"74 596 CURVE SMOOTH",
"62 568 OFFCURVE",
"70 558 OFFCURVE",
"82 553 CURVE",
"104 637 OFFCURVE",
"189 671 OFFCURVE",
"273 671 CURVE SMOOTH",
"391 671 OFFCURVE",
"504 594 OFFCURVE",
"504 343 CURVE SMOOTH",
"504 120 OFFCURVE",
"407 15 OFFCURVE",
"270 15 CURVE SMOOTH",
"185 15 OFFCURVE",
"93 50 OFFCURVE",
"93 170 CURVE SMOOTH",
"93 284 OFFCURVE",
"161 341 OFFCURVE",
"286 341 CURVE SMOOTH",
"356 341 OFFCURVE",
"461 336 OFFCURVE",
"522 328 CURVE",
"522 353 LINE",
"460 359 OFFCURVE",
"393 366 OFFCURVE",
"298 366 CURVE SMOOTH",
"145 366 OFFCURVE",
"61 301 OFFCURVE",
"61 170 CURVE SMOOTH",
"61 53 OFFCURVE",
"141 -12 OFFCURVE",
"268 -12 CURVE SMOOTH",
"443 -12 OFFCURVE",
"536 127 OFFCURVE",
"536 347 CURVE SMOOTH",
"536 582 OFFCURVE",
"438 700 OFFCURVE",
"276 700 CURVE SMOOTH"
);
}
);
width = 596;
},
{
layerId = "EBFFFCD3-BAE4-48A5-9442-B72A90AD34A8";
paths = (
{
closed = 1;
nodes = (
"179 712 OFFCURVE",
"91 674 OFFCURVE",
"61 607 CURVE SMOOTH",
"45 570 OFFCURVE",
"58 553 OFFCURVE",
"70 548 CURVE",
"98 595 OFFCURVE",
"161 627 OFFCURVE",
"241 627 CURVE SMOOTH",
"359 627 OFFCURVE",
"424 556 OFFCURVE",
"424 335 CURVE SMOOTH",
"424 146 OFFCURVE",
"375 31 OFFCURVE",
"285 31 CURVE SMOOTH",
"240 31 OFFCURVE",
"191 58 OFFCURVE",
"191 158 CURVE SMOOTH",
"191 309 OFFCURVE",
"313 338 OFFCURVE",
"389 338 CURVE SMOOTH",
"427 338 OFFCURVE",
"472 328 OFFCURVE",
"503 313 CURVE",
"508 354 LINE",
"441 388 OFFCURVE",
"350 389 OFFCURVE",
"283 389 CURVE SMOOTH",
"143 389 OFFCURVE",
"44 315 OFFCURVE",
"44 184 CURVE SMOOTH",
"44 51 OFFCURVE",
"148 -14 OFFCURVE",
"281 -14 CURVE SMOOTH",
"470 -14 OFFCURVE",
"571 123 OFFCURVE",
"571 346 CURVE SMOOTH",
"571 580 OFFCURVE",
"461 712 OFFCURVE",
"278 712 CURVE SMOOTH"
);
}
);
width = 616;
}
);
rightKerningGroup = O;
unicode = 018F;
},
{
glyphname = T;
lastChange = "2015-10-29 13:05:33 +0000";
layers = (
{
anchors = (
{
name = bottom;
position = "{259, 0}";
},
{
name = center;
position = "{252, 344}";
},
{
name = top;
position = "{252, 688}";
}
);
background = {
paths = (
{
closed = 1;
nodes = (
"267 -8 OFFCURVE",
"272 -4 OFFCURVE",
"276 0 CURVE",
"272 16 OFFCURVE",
"270 46 OFFCURVE",
"270 87 CURVE SMOOTH",
"269 677 LINE",
"239 675 LINE",
"241 14 LINE SMOOTH",
"241 0 OFFCURVE",
"247 -8 OFFCURVE",
"258 -8 CURVE SMOOTH"
);
},
{
closed = 1;
nodes = (
"99 662 OFFCURVE",
"175 662 OFFCURVE",
"250 662 CURVE SMOOTH",
"328 662 OFFCURVE",
"406 662 OFFCURVE",
"484 662 CURVE",
"495 665 OFFCURVE",
"501 688 OFFCURVE",
"487 688 CURVE",
"21 688 LINE",
"7 688 OFFCURVE",
"13 665 OFFCURVE",
"24 662 CURVE"
);
}
);
};
layerId = "60CFBDE8-BC08-4808-BF41-F011F3E03A54";
paths = (
{
closed = 1;
nodes = (
"265 -8 OFFCURVE",
"270 -4 OFFCURVE",
"274 0 CURVE",
"270 16 OFFCURVE",
"268 46 OFFCURVE",
"268 87 CURVE SMOOTH",
"267 677 LINE",
"237 675 LINE",
"239 14 LINE SMOOTH",
"239 0 OFFCURVE",
"245 -8 OFFCURVE",
"256 -8 CURVE SMOOTH"
);
},
{
closed = 1;
nodes = (
"103 662 OFFCURVE",
"176 662 OFFCURVE",
"248 662 CURVE SMOOTH",
"322 662 OFFCURVE",
"397 662 OFFCURVE",
"472 662 CURVE",
"483 665 OFFCURVE",
"489 688 OFFCURVE",
"475 688 CURVE",
"29 688 LINE",
"15 688 OFFCURVE",
"21 665 OFFCURVE",
"32 662 CURVE"
);
}
);
width = 503;
},
{
associatedMasterId = "60CFBDE8-BC08-4808-BF41-F011F3E03A54";
layerId = "02F2EB44-98D2-4B19-B3D5-938E109B4FA2";
name = "Bold Aug 25 15, 14:06";
paths = (
{
closed = 1;
nodes = (
"371 -16 OFFCURVE",
"406 7 OFFCURVE",
"419 19 CURVE",
"399 70 OFFCURVE",
"396 121 OFFCURVE",
"396 159 CURVE SMOOTH",
"396 663 LINE",
"233 677 LINE",
"233 65 LINE SMOOTH",
"233 14 OFFCURVE",
"273 -16 OFFCURVE",
"326 -16 CURVE SMOOTH"
);
},
{
closed = 1;
nodes = (
"115 596 OFFCURVE",
"228 649 OFFCURVE",
"315 649 CURVE SMOOTH",
"402 649 OFFCURVE",
"514 596 OFFCURVE",
"576 557 CURVE",
"619 577 OFFCURVE",
"637 700 OFFCURVE",
"594 700 CURVE SMOOTH",
"35 700 LINE SMOOTH",
"-8 700 OFFCURVE",
"10 577 OFFCURVE",
"53 557 CURVE"
);
}
);
width = 632;
},
{
associatedMasterId = "60CFBDE8-BC08-4808-BF41-F011F3E03A54";
layerId = "F00E3473-3EDC-44FA-94B7-2744C6E300AD";
name = "Light Aug 25 15, 14:06";
paths = (
{
closed = 1;
nodes = (
"312 -8 OFFCURVE",
"317 -4 OFFCURVE",
"321 0 CURVE",
"317 16 OFFCURVE",
"315 46 OFFCURVE",
"315 87 CURVE SMOOTH",
"314 677 LINE",
"284 675 LINE",
"286 14 LINE SMOOTH",
"286 0 OFFCURVE",
"292 -8 OFFCURVE",
"303 -8 CURVE SMOOTH"
);
},
{
closed = 1;
nodes = (
"144 662 OFFCURVE",
"220 662 OFFCURVE",
"295 662 CURVE SMOOTH",
"373 662 OFFCURVE",
"451 662 OFFCURVE",
"529 662 CURVE",
"540 665 OFFCURVE",
"546 688 OFFCURVE",
"532 688 CURVE",
"66 688 LINE",
"52 688 OFFCURVE",
"58 665 OFFCURVE",
"69 662 CURVE"
);
}
);
width = 600;
},
{
anchors = (
{
name = bottom;
position = "{294, 0}";
},
{
name = center;
position = "{279, 349}";
},
{
name = top;
position = "{279, 698}";
}
);
layerId = "EBFFFCD3-BAE4-48A5-9442-B72A90AD34A8";
paths = (
{
closed = 1;
nodes = (
"328 -15 OFFCURVE",
"357 5 OFFCURVE",
"369 16 CURVE",
"351 60 OFFCURVE",
"349 108 OFFCURVE",
"349 146 CURVE SMOOTH",
"348 665 LINE",
"209 677 LINE",
"209 56 LINE SMOOTH",
"209 12 OFFCURVE",
"243 -15 OFFCURVE",
"289 -15 CURVE SMOOTH"
);
},
{
closed = 1;
nodes = (
"110 608 OFFCURVE",
"202 651 OFFCURVE",
"279 651 CURVE SMOOTH",
"355 651 OFFCURVE",
"449 608 OFFCURVE",
"508 576 CURVE",
"546 593 OFFCURVE",
"562 698 OFFCURVE",
"524 698 CURVE",
"34 698 LINE",
"-4 698 OFFCURVE",
"12 593 OFFCURVE",
"49 576 CURVE"
);
}
);
width = 557;
}
);
leftKerningGroup = T;
rightKerningGroup = T;
unicode = 0054;
},
{
glyphname = U;
lastChange = "2015-10-29 13:05:33 +0000";
layers = (
{
anchors = (
{
name = bottom;
position = "{321, 0}";
},
{
name = ogonek;
position = "{391, 6}";
},
{
name = top;
position = "{321, 688}";
},
{
name = topright;
position = "{547, 690}";
}
);
layerId = "60CFBDE8-BC08-4808-BF41-F011F3E03A54";
paths = (
{
closed = 1;
nodes = (
"547 687 OFFCURVE",
"541 695 OFFCURVE",
"530 695 CURVE SMOOTH",
"521 695 OFFCURVE",
"516 691 OFFCURVE",
"512 687 CURVE",
"516 671 OFFCURVE",
"518 640 OFFCURVE",
"518 600 CURVE SMOOTH",
"518 304 LINE SMOOTH",
"518 115 OFFCURVE",
"450 16 OFFCURVE",
"320 16 CURVE SMOOTH",
"190 16 OFFCURVE",
"130 107 OFFCURVE",
"130 304 CURVE SMOOTH",
"130 673 LINE SMOOTH",
"130 687 OFFCURVE",
"124 695 OFFCURVE",
"113 695 CURVE SMOOTH",
"104 695 OFFCURVE",
"99 691 OFFCURVE",
"95 687 CURVE",
"99 671 OFFCURVE",
"101 640 OFFCURVE",
"101 600 CURVE SMOOTH",
"101 304 LINE SMOOTH",
"101 87 OFFCURVE",
"170 -12 OFFCURVE",
"320 -12 CURVE SMOOTH",
"469 -12 OFFCURVE",
"547 96 OFFCURVE",
"547 304 CURVE SMOOTH",
"547 673 LINE SMOOTH"
);
}
);
width = 642;
},
{
associatedMasterId = "60CFBDE8-BC08-4808-BF41-F011F3E03A54";
layerId = "CA1F7233-7C4D-494B-9E50-7D329828C621";
name = "Bold Aug 24 15, 16:14";
paths = (
{
closed = 1;
nodes = (
"614 685 OFFCURVE",
"574 715 OFFCURVE",
"521 715 CURVE SMOOTH",
"476 715 OFFCURVE",
"442 692 OFFCURVE",
"428 680 CURVE",
"448 629 OFFCURVE",
"451 578 OFFCURVE",
"451 540 CURVE SMOOTH",
"451 350 LINE SMOOTH",
"451 131 OFFCURVE",
"419 37 OFFCURVE",
"344 37 CURVE SMOOTH",
"269 37 OFFCURVE",
"238 132 OFFCURVE",
"238 350 CURVE SMOOTH",
"237 634 LINE SMOOTH",
"237 685 OFFCURVE",
"197 715 OFFCURVE",
"145 715 CURVE SMOOTH",
"100 715 OFFCURVE",
"66 692 OFFCURVE",
"52 680 CURVE",
"72 629 OFFCURVE",
"75 578 OFFCURVE",
"75 540 CURVE SMOOTH",
"75 350 LINE SMOOTH",
"75 110 OFFCURVE",
"168 -15 OFFCURVE",
"346 -15 CURVE SMOOTH",
"522 -15 OFFCURVE",
"614 110 OFFCURVE",
"614 350 CURVE SMOOTH",
"614 634 LINE SMOOTH"
);
}
);
width = 674;
},
{
associatedMasterId = "60CFBDE8-BC08-4808-BF41-F011F3E03A54";
layerId = "BEDBE9DF-084E-4ABE-A823-79E23F0326D1";
name = "Light Aug 26 15, 10:49";
paths = (
{
closed = 1;
nodes = (
"570 687 OFFCURVE",
"564 695 OFFCURVE",
"553 695 CURVE SMOOTH",
"544 695 OFFCURVE",
"539 691 OFFCURVE",
"535 687 CURVE",
"539 671 OFFCURVE",
"541 640 OFFCURVE",
"541 600 CURVE SMOOTH",
"541 344 LINE SMOOTH",
"541 118 OFFCURVE",
"466 16 OFFCURVE",
"343 16 CURVE SMOOTH",
"220 16 OFFCURVE",
"145 118 OFFCURVE",
"145 344 CURVE SMOOTH",
"145 673 LINE SMOOTH",
"145 687 OFFCURVE",
"139 695 OFFCURVE",
"128 695 CURVE SMOOTH",
"119 695 OFFCURVE",
"114 691 OFFCURVE",
"110 687 CURVE",
"114 671 OFFCURVE",
"116 640 OFFCURVE",
"116 600 CURVE SMOOTH",
"116 344 LINE SMOOTH",
"116 100 OFFCURVE",
"199 -12 OFFCURVE",
"343 -12 CURVE SMOOTH",
"487 -12 OFFCURVE",
"570 100 OFFCURVE",
"570 344 CURVE SMOOTH",
"570 673 LINE SMOOTH"
);
}
);
width = 680;
},
{
associatedMasterId = "60CFBDE8-BC08-4808-BF41-F011F3E03A54";
layerId = "6A4A1E09-3CAB-4F47-A967-7E242205EC01";
name = "Bold Aug 26 15, 10:51";
paths = (
{
closed = 1;
nodes = (
"599 685 OFFCURVE",
"559 715 OFFCURVE",
"506 715 CURVE SMOOTH",
"463 715 OFFCURVE",
"429 692 OFFCURVE",
"415 680 CURVE",
"435 629 OFFCURVE",
"438 578 OFFCURVE",
"438 540 CURVE SMOOTH",
"438 350 LINE SMOOTH",
"438 131 OFFCURVE",
"406 37 OFFCURVE",
"329 37 CURVE SMOOTH",
"254 37 OFFCURVE",
"223 132 OFFCURVE",
"223 350 CURVE SMOOTH",
"223 634 LINE SMOOTH",
"222 685 OFFCURVE",
"182 715 OFFCURVE",
"130 715 CURVE SMOOTH",
"85 715 OFFCURVE",
"51 692 OFFCURVE",
"37 680 CURVE",
"57 629 OFFCURVE",
"60 578 OFFCURVE",
"60 540 CURVE SMOOTH",
"60 350 LINE SMOOTH",
"60 110 OFFCURVE",
"153 -15 OFFCURVE",
"331 -15 CURVE SMOOTH",
"507 -15 OFFCURVE",
"599 110 OFFCURVE",
"599 350 CURVE SMOOTH",
"599 634 LINE SMOOTH"
);
}
);
width = 654;
},
{
anchors = (
{
name = bottom;
position = "{338, 0}";
},
{
name = ogonek;
position = "{398, -9}";
},
{
name = top;
position = "{338, 698}";
},
{
name = topright;
position = "{533, 697}";
}
);
layerId = "EBFFFCD3-BAE4-48A5-9442-B72A90AD34A8";
paths = (
{
closed = 1;
nodes = (
"603 685 OFFCURVE",
"568 711 OFFCURVE",
"524 711 CURVE SMOOTH",
"485 711 OFFCURVE",
"457 692 OFFCURVE",
"445 681 CURVE",
"462 636 OFFCURVE",
"465 589 OFFCURVE",
"465 551 CURVE SMOOTH",
"465 300 LINE SMOOTH",
"465 126 OFFCURVE",
"427 33 OFFCURVE",
"338 33 CURVE SMOOTH",
"255 33 OFFCURVE",
"219 111 OFFCURVE",
"219 300 CURVE SMOOTH",
"219 641 LINE SMOOTH",
"219 685 OFFCURVE",
"184 711 OFFCURVE",
"140 711 CURVE SMOOTH",
"101 711 OFFCURVE",
"72 692 OFFCURVE",
"60 681 CURVE",
"77 636 OFFCURVE",
"80 589 OFFCURVE",
"80 551 CURVE SMOOTH",
"80 307 LINE SMOOTH",
"80 84 OFFCURVE",
"169 -14 OFFCURVE",
"338 -14 CURVE SMOOTH",
"515 -14 OFFCURVE",
"603 94 OFFCURVE",
"603 307 CURVE SMOOTH",
"603 641 LINE SMOOTH"
);
}
);
width = 676;
}
);
leftKerningGroup = U;
rightKerningGroup = U;
unicode = 0055;
},
{
glyphname = V;
lastChange = "2015-10-29 13:05:33 +0000";
layers = (
{
anchors = (
{
name = bottom;
position = "{270, 0}";
},
{
name = top;
position = "{270, 688}";
}
);
background = {
components = (
{
name = O;
}
);
};
layerId = "60CFBDE8-BC08-4808-BF41-F011F3E03A54";
paths = (
{
closed = 1;
nodes = (
"282 -8 OFFCURVE",
"289 -6 OFFCURVE",
"297 0 CURVE",
"519 658 LINE SMOOTH",
"521 665 OFFCURVE",
"525 675 OFFCURVE",
"525 682 CURVE SMOOTH",
"526 693 OFFCURVE",
"517 700 OFFCURVE",
"504 700 CURVE SMOOTH",
"499 700 OFFCURVE",
"495 700 OFFCURVE",
"490 698 CURVE",
"492 694 OFFCURVE",
"492 688 OFFCURVE",
"492 684 CURVE SMOOTH",
"492 678 OFFCURVE",
"489 668 OFFCURVE",
"487 663 CURVE SMOOTH",
"269 6 LINE",
"283 6 LINE",
"55 686 LINE SMOOTH",
"52 695 OFFCURVE",
"44 700 OFFCURVE",
"35 700 CURVE SMOOTH",
"28 700 OFFCURVE",
"22 698 OFFCURVE",
"15 691 CURVE",
"20 685 OFFCURVE",
"27 674 OFFCURVE",
"31 661 CURVE SMOOTH",
"250 9 LINE SMOOTH",
"254 -2 OFFCURVE",
"263 -8 OFFCURVE",
"275 -8 CURVE SMOOTH"
);
}
);
width = 553;
},
{
associatedMasterId = "60CFBDE8-BC08-4808-BF41-F011F3E03A54";
background = {
paths = (
{
closed = 1;
nodes = (
"502 -15 OFFCURVE",
"613 110 OFFCURVE",
"613 350 CURVE SMOOTH",
"613 590 OFFCURVE",
"502 715 OFFCURVE",
"314 715 CURVE SMOOTH",
"126 715 OFFCURVE",
"15 590 OFFCURVE",
"15 350 CURVE SMOOTH",
"15 110 OFFCURVE",
"126 -15 OFFCURVE",
"314 -15 CURVE SMOOTH"
);
},
{
closed = 1;
nodes = (
"235 37 OFFCURVE",
"204 130 OFFCURVE",
"204 350 CURVE SMOOTH",
"204 570 OFFCURVE",
"235 663 OFFCURVE",
"314 663 CURVE SMOOTH",
"393 663 OFFCURVE",
"424 570 OFFCURVE",
"424 350 CURVE SMOOTH",
"424 130 OFFCURVE",
"393 37 OFFCURVE",
"314 37 CURVE SMOOTH"
);
}
);
};
layerId = "7E9A28B4-DA9B-44FE-9BF8-4FC02E0DD898";
name = "Bold Aug 24 15, 16:19";
paths = (
{
closed = 1;
nodes = (
"334 -16 OFFCURVE",
"380 -9 OFFCURVE",
"426 6 CURVE",
"605 568 LINE SMOOTH",
"616 600 OFFCURVE",
"621 629 OFFCURVE",
"621 649 CURVE SMOOTH",
"621 696 OFFCURVE",
"594 715 OFFCURVE",
"530 715 CURVE SMOOTH",
"489 715 OFFCURVE",
"465 707 OFFCURVE",
"442 698 CURVE",
"449 690 OFFCURVE",
"454 679 OFFCURVE",
"454 660 CURVE SMOOTH",
"454 643 OFFCURVE",
"451 627 OFFCURVE",
"447 609 CURVE SMOOTH",
"328 49 LINE",
"342 46 LINE",
"204 653 LINE SMOOTH",
"194 695 OFFCURVE",
"156 715 OFFCURVE",
"106 715 CURVE SMOOTH",
"52 715 OFFCURVE",
"24 695 OFFCURVE",
"10 680 CURVE",
"30 659 OFFCURVE",
"42 625 OFFCURVE",
"47 607 CURVE SMOOTH",
"202 35 LINE SMOOTH",
"214 -6 OFFCURVE",
"250 -16 OFFCURVE",
"288 -16 CURVE SMOOTH"
);
}
);
width = 641;
},
{
associatedMasterId = "60CFBDE8-BC08-4808-BF41-F011F3E03A54";
background = {
paths = (
{
closed = 1;
nodes = (
"502 -15 OFFCURVE",
"613 110 OFFCURVE",
"613 350 CURVE SMOOTH",
"613 590 OFFCURVE",
"502 715 OFFCURVE",
"314 715 CURVE SMOOTH",
"126 715 OFFCURVE",
"15 590 OFFCURVE",
"15 350 CURVE SMOOTH",
"15 110 OFFCURVE",
"126 -15 OFFCURVE",
"314 -15 CURVE SMOOTH"
);
},
{
closed = 1;
nodes = (
"235 37 OFFCURVE",
"204 130 OFFCURVE",
"204 350 CURVE SMOOTH",
"204 570 OFFCURVE",
"235 663 OFFCURVE",
"314 663 CURVE SMOOTH",
"393 663 OFFCURVE",
"424 570 OFFCURVE",
"424 350 CURVE SMOOTH",
"424 130 OFFCURVE",
"393 37 OFFCURVE",
"314 37 CURVE SMOOTH"
);
}
);
};
layerId = "24CF965D-4B3D-40F6-963B-588EC6FD297F";
name = "Bold Aug 24 15, 16:43";
paths = (
{
closed = 1;
nodes = (
"334 -16 OFFCURVE",
"365 -11 OFFCURVE",
"407 5 CURVE",
"598 568 LINE SMOOTH",
"609 600 OFFCURVE",
"614 629 OFFCURVE",
"614 649 CURVE SMOOTH",
"614 696 OFFCURVE",
"587 715 OFFCURVE",
"523 715 CURVE SMOOTH",
"482 715 OFFCURVE",
"458 707 OFFCURVE",
"435 698 CURVE",
"442 690 OFFCURVE",
"447 679 OFFCURVE",
"447 660 CURVE SMOOTH",
"447 643 OFFCURVE",
"444 627 OFFCURVE",
"440 609 CURVE SMOOTH",
"316 25 LINE",
"363 47 LINE",
"204 653 LINE SMOOTH",
"193 695 OFFCURVE",
"156 715 OFFCURVE",
"97 715 CURVE SMOOTH",
"43 715 OFFCURVE",
"15 695 OFFCURVE",
"1 680 CURVE",
"21 659 OFFCURVE",
"33 625 OFFCURVE",
"38 607 CURVE SMOOTH",
"205 26 LINE SMOOTH",
"210 9 OFFCURVE",
"250 -16 OFFCURVE",
"298 -16 CURVE SMOOTH"
);
}
);
width = 641;
},
{
associatedMasterId = "60CFBDE8-BC08-4808-BF41-F011F3E03A54";
background = {
paths = (
{
closed = 1;
nodes = (
"502 -15 OFFCURVE",
"613 110 OFFCURVE",
"613 350 CURVE SMOOTH",
"613 590 OFFCURVE",
"502 715 OFFCURVE",
"314 715 CURVE SMOOTH",
"126 715 OFFCURVE",
"15 590 OFFCURVE",
"15 350 CURVE SMOOTH",
"15 110 OFFCURVE",
"126 -15 OFFCURVE",
"314 -15 CURVE SMOOTH"
);
},
{
closed = 1;
nodes = (
"235 37 OFFCURVE",
"204 130 OFFCURVE",
"204 350 CURVE SMOOTH",
"204 570 OFFCURVE",
"235 663 OFFCURVE",
"314 663 CURVE SMOOTH",
"393 663 OFFCURVE",
"424 570 OFFCURVE",
"424 350 CURVE SMOOTH",
"424 130 OFFCURVE",
"393 37 OFFCURVE",
"314 37 CURVE SMOOTH"
);
}
);
};
layerId = "9331D96B-F6C5-4856-B6E4-154A83CA43C1";
name = "Bold Aug 24 15, 16:44";
paths = (
{
closed = 1;
nodes = (
"334 -16 OFFCURVE",
"370 -11 OFFCURVE",
"412 5 CURVE",
"598 568 LINE SMOOTH",
"609 600 OFFCURVE",
"614 629 OFFCURVE",
"614 649 CURVE SMOOTH",
"614 696 OFFCURVE",
"587 715 OFFCURVE",
"523 715 CURVE SMOOTH",
"482 715 OFFCURVE",
"458 707 OFFCURVE",
"435 698 CURVE",
"442 690 OFFCURVE",
"447 679 OFFCURVE",
"447 660 CURVE SMOOTH",
"447 643 OFFCURVE",
"444 627 OFFCURVE",
"440 609 CURVE SMOOTH",
"308 7 LINE",
"358 7 LINE",
"204 653 LINE SMOOTH",
"194 695 OFFCURVE",
"156 715 OFFCURVE",
"97 715 CURVE SMOOTH",
"43 715 OFFCURVE",
"15 695 OFFCURVE",
"1 680 CURVE",
"21 659 OFFCURVE",
"33 625 OFFCURVE",
"38 607 CURVE SMOOTH",
"209 26 LINE SMOOTH",
"214 9 OFFCURVE",
"250 -16 OFFCURVE",
"298 -16 CURVE SMOOTH"
);
}
);
width = 641;
},
{
anchors = (
{
name = bottom;
position = "{305, 0}";
},
{
name = top;
position = "{305, 698}";
}
);
layerId = "EBFFFCD3-BAE4-48A5-9442-B72A90AD34A8";
paths = (
{
closed = 1;
nodes = (
"321 -15 OFFCURVE",
"354 -10 OFFCURVE",
"391 4 CURVE",
"581 584 LINE SMOOTH",
"590 612 OFFCURVE",
"595 637 OFFCURVE",
"595 655 CURVE SMOOTH",
"595 695 OFFCURVE",
"572 712 OFFCURVE",
"517 712 CURVE SMOOTH",
"482 712 OFFCURVE",
"462 706 OFFCURVE",
"442 698 CURVE",
"448 691 OFFCURVE",
"452 681 OFFCURVE",
"452 664 CURVE SMOOTH",
"452 649 OFFCURVE",
"449 634 OFFCURVE",
"445 619 CURVE SMOOTH",
"298 7 LINE",
"337 7 LINE",
"175 659 LINE SMOOTH",
"166 695 OFFCURVE",
"136 712 OFFCURVE",
"86 712 CURVE SMOOTH",
"40 712 OFFCURVE",
"16 696 OFFCURVE",
"3 682 CURVE",
"20 664 OFFCURVE",
"31 634 OFFCURVE",
"36 617 CURVE SMOOTH",
"212 23 LINE SMOOTH",
"220 -4 OFFCURVE",
"249 -15 OFFCURVE",
"298 -15 CURVE SMOOTH"
);
}
);
width = 612;
}
);
unicode = 0056;
},
{
glyphname = W;
lastChange = "2015-10-29 13:05:33 +0000";
layers = (
{
anchors = (
{
name = bottom;
position = "{446, 0}";
},
{
name = top;
position = "{446, 688}";
}
);
layerId = "60CFBDE8-BC08-4808-BF41-F011F3E03A54";
paths = (
{
closed = 1;
nodes = (
"840 700 OFFCURVE",
"836 700 OFFCURVE",
"831 698 CURVE",
"833 694 OFFCURVE",
"833 688 OFFCURVE",
"833 684 CURVE SMOOTH",
"833 678 OFFCURVE",
"830 668 OFFCURVE",
"828 663 CURVE",
"653 24 LINE",
"464 629 LINE",
"460 630 OFFCURVE",
"455 630 OFFCURVE",
"451 630 CURVE SMOOTH",
"445 630 OFFCURVE",
"437 628 OFFCURVE",
"432 625 CURVE",
"433 621 OFFCURVE",
"435 614 OFFCURVE",
"431 602 CURVE SMOOTH",
"251 24 LINE",
"65 686 LINE SMOOTH",
"62 695 OFFCURVE",
"54 700 OFFCURVE",
"45 700 CURVE SMOOTH",
"38 700 OFFCURVE",
"32 698 OFFCURVE",
"25 691 CURVE",
"30 685 OFFCURVE",
"37 674 OFFCURVE",
"41 661 CURVE SMOOTH",
"225 9 LINE",
"228 -2 OFFCURVE",
"238 -8 OFFCURVE",
"250 -8 CURVE SMOOTH",
"257 -8 OFFCURVE",
"264 -6 OFFCURVE",
"272 0 CURVE",
"451 574 LINE",
"627 9 LINE",
"630 -2 OFFCURVE",
"640 -8 OFFCURVE",
"652 -8 CURVE SMOOTH",
"659 -8 OFFCURVE",
"666 -6 OFFCURVE",
"673 0 CURVE",
"860 658 LINE SMOOTH",
"862 665 OFFCURVE",
"866 675 OFFCURVE",
"866 682 CURVE",
"867 693 OFFCURVE",
"858 700 OFFCURVE",
"845 700 CURVE SMOOTH"
);
}
);
width = 887;
},
{
associatedMasterId = "60CFBDE8-BC08-4808-BF41-F011F3E03A54";
layerId = "14DB4CF7-3E37-4D00-8165-32DF5C3AC0A2";
name = "Bold Aug 25 15, 14:31";
paths = (
{
closed = 1;
nodes = (
"334 -16 OFFCURVE",
"380 -9 OFFCURVE",
"426 6 CURVE",
"605 568 LINE SMOOTH",
"616 600 OFFCURVE",
"621 629 OFFCURVE",
"621 649 CURVE SMOOTH",
"621 696 OFFCURVE",
"594 715 OFFCURVE",
"530 715 CURVE SMOOTH",
"489 715 OFFCURVE",
"465 707 OFFCURVE",
"442 698 CURVE",
"449 690 OFFCURVE",
"454 679 OFFCURVE",
"454 660 CURVE SMOOTH",
"454 643 OFFCURVE",
"451 627 OFFCURVE",
"447 609 CURVE SMOOTH",
"328 49 LINE",
"342 46 LINE",
"204 653 LINE SMOOTH",
"194 695 OFFCURVE",
"156 715 OFFCURVE",
"106 715 CURVE SMOOTH",
"52 715 OFFCURVE",
"24 695 OFFCURVE",
"10 680 CURVE",
"30 659 OFFCURVE",
"42 625 OFFCURVE",
"47 607 CURVE SMOOTH",
"202 35 LINE SMOOTH",
"214 -6 OFFCURVE",
"250 -16 OFFCURVE",
"288 -16 CURVE SMOOTH"
);
}
);
width = 600;
},
{
associatedMasterId = "60CFBDE8-BC08-4808-BF41-F011F3E03A54";
layerId = "D4785ECA-7A17-4CA4-B8FF-382A4C781479";
name = "Bold Aug 25 15, 14:33";
paths = (
{
closed = 1;
nodes = (
"341 -16 OFFCURVE",
"380 -11 OFFCURVE",
"423 5 CURVE",
"589 504 LINE SMOOTH",
"600 536 OFFCURVE",
"605 565 OFFCURVE",
"605 585 CURVE SMOOTH",
"605 632 OFFCURVE",
"578 651 OFFCURVE",
"514 651 CURVE SMOOTH",
"473 651 OFFCURVE",
"449 643 OFFCURVE",
"426 634 CURVE",
"433 626 OFFCURVE",
"438 615 OFFCURVE",
"438 596 CURVE SMOOTH",
"438 579 OFFCURVE",
"435 563 OFFCURVE",
"431 545 CURVE SMOOTH",
"316 7 LINE",
"360 7 LINE",
"212 653 LINE SMOOTH",
"202 695 OFFCURVE",
"167 715 OFFCURVE",
"108 715 CURVE SMOOTH",
"54 715 OFFCURVE",
"26 695 OFFCURVE",
"12 680 CURVE",
"32 659 OFFCURVE",
"44 625 OFFCURVE",
"49 607 CURVE SMOOTH",
"215 26 LINE SMOOTH",
"224 -4 OFFCURVE",
"258 -16 OFFCURVE",
"314 -16 CURVE SMOOTH"
);
},
{
closed = 1;
nodes = (
"681 -16 OFFCURVE",
"720 -11 OFFCURVE",
"763 5 CURVE",
"946 564 LINE SMOOTH",
"957 596 OFFCURVE",
"962 625 OFFCURVE",
"962 645 CURVE SMOOTH",
"962 692 OFFCURVE",
"935 711 OFFCURVE",
"871 711 CURVE SMOOTH",
"830 711 OFFCURVE",
"806 703 OFFCURVE",
"783 694 CURVE",
"790 686 OFFCURVE",
"795 675 OFFCURVE",
"795 656 CURVE SMOOTH",
"795 639 OFFCURVE",
"792 623 OFFCURVE",
"788 605 CURVE SMOOTH",
"656 7 LINE",
"700 7 LINE",
"570 590 LINE SMOOTH",
"561 632 OFFCURVE",
"525 652 OFFCURVE",
"466 652 CURVE SMOOTH",
"412 652 OFFCURVE",
"384 632 OFFCURVE",
"370 617 CURVE",
"390 596 OFFCURVE",
"402 562 OFFCURVE",
"407 544 CURVE SMOOTH",
"555 26 LINE SMOOTH",
"564 -4 OFFCURVE",
"598 -16 OFFCURVE",
"654 -16 CURVE SMOOTH"
);
}
);
width = 995;
},
{
associatedMasterId = "60CFBDE8-BC08-4808-BF41-F011F3E03A54";
layerId = "ECE8D515-2B59-42DC-A974-8FAC7E6F258B";
name = "Bold Aug 25 15, 14:37";
paths = (
{
closed = 1;
nodes = (
"840 711 OFFCURVE",
"816 703 OFFCURVE",
"793 694 CURVE",
"800 686 OFFCURVE",
"805 675 OFFCURVE",
"805 656 CURVE SMOOTH",
"805 639 OFFCURVE",
"801 623 OFFCURVE",
"798 605 CURVE SMOOTH",
"704 85 LINE",
"716 85 LINE",
"601 599 LINE SMOOTH",
"594 630 OFFCURVE",
"560 645 OFFCURVE",
"517 645 CURVE SMOOTH",
"483 645 OFFCURVE",
"434 636 OFFCURVE",
"401 620 CURVE",
"411 600 OFFCURVE",
"417 571 OFFCURVE",
"408 529 CURVE SMOOTH",
"312 85 LINE",
"324 85 LINE",
"212 653 LINE SMOOTH",
"204 695 OFFCURVE",
"167 715 OFFCURVE",
"108 715 CURVE SMOOTH",
"54 715 OFFCURVE",
"26 695 OFFCURVE",
"12 680 CURVE",
"32 659 OFFCURVE",
"44 625 OFFCURVE",
"49 607 CURVE SMOOTH",
"195 26 LINE SMOOTH",
"203 -4 OFFCURVE",
"238 -16 OFFCURVE",
"294 -16 CURVE SMOOTH",
"317 -16 OFFCURVE",
"356 -11 OFFCURVE",
"399 5 CURVE",
"513 488 LINE",
"491 498 LINE",
"594 26 LINE SMOOTH",
"601 -4 OFFCURVE",
"637 -16 OFFCURVE",
"684 -16 CURVE SMOOTH",
"711 -16 OFFCURVE",
"750 -11 OFFCURVE",
"793 5 CURVE",
"956 564 LINE SMOOTH",
"965 596 OFFCURVE",
"972 625 OFFCURVE",
"972 645 CURVE SMOOTH",
"972 692 OFFCURVE",
"945 711 OFFCURVE",
"881 711 CURVE SMOOTH"
);
}
);
width = 995;
},
{
associatedMasterId = "60CFBDE8-BC08-4808-BF41-F011F3E03A54";
layerId = "9011AEF1-3A8D-4662-8EEF-51AADF899E4B";
name = "Light Aug 25 15, 14:37";
paths = (
{
closed = 1;
nodes = (
"320 -8 OFFCURVE",
"327 -6 OFFCURVE",
"335 0 CURVE",
"547 658 LINE SMOOTH",
"549 665 OFFCURVE",
"553 675 OFFCURVE",
"553 682 CURVE SMOOTH",
"554 693 OFFCURVE",
"546 700 OFFCURVE",
"535 700 CURVE SMOOTH",
"530 700 OFFCURVE",
"526 700 OFFCURVE",
"521 698 CURVE",
"523 694 OFFCURVE",
"523 688 OFFCURVE",
"523 684 CURVE SMOOTH",
"523 678 OFFCURVE",
"520 668 OFFCURVE",
"518 663 CURVE SMOOTH",
"309 6 LINE",
"319 6 LINE",
"100 686 LINE SMOOTH",
"97 695 OFFCURVE",
"89 700 OFFCURVE",
"80 700 CURVE SMOOTH",
"74 700 OFFCURVE",
"69 698 OFFCURVE",
"63 691 CURVE",
"68 685 OFFCURVE",
"75 674 OFFCURVE",
"79 661 CURVE SMOOTH",
"288 9 LINE SMOOTH",
"291 -2 OFFCURVE",
"301 -8 OFFCURVE",
"313 -8 CURVE SMOOTH"
);
},
{
closed = 1;
nodes = (
"723 -8 OFFCURVE",
"730 -6 OFFCURVE",
"738 0 CURVE",
"950 658 LINE SMOOTH",
"952 665 OFFCURVE",
"956 675 OFFCURVE",
"956 682 CURVE SMOOTH",
"957 693 OFFCURVE",
"949 700 OFFCURVE",
"938 700 CURVE SMOOTH",
"933 700 OFFCURVE",
"929 700 OFFCURVE",
"924 698 CURVE",
"926 694 OFFCURVE",
"926 688 OFFCURVE",
"926 684 CURVE SMOOTH",
"926 678 OFFCURVE",
"923 668 OFFCURVE",
"921 663 CURVE SMOOTH",
"712 6 LINE",
"722 6 LINE",
"503 686 LINE SMOOTH",
"500 695 OFFCURVE",
"492 700 OFFCURVE",
"483 700 CURVE SMOOTH",
"477 700 OFFCURVE",
"472 698 OFFCURVE",
"466 691 CURVE",
"471 685 OFFCURVE",
"478 674 OFFCURVE",
"482 661 CURVE SMOOTH",
"691 9 LINE SMOOTH",
"694 -2 OFFCURVE",
"704 -8 OFFCURVE",
"716 -8 CURVE SMOOTH"
);
}
);
width = 1012;
},
{
associatedMasterId = "60CFBDE8-BC08-4808-BF41-F011F3E03A54";
layerId = "53BC8A1B-5BAD-4E7A-ACB5-5A7DEDE63F90";
name = "Light Aug 25 15, 14:37";
paths = (
{
closed = 1;
nodes = (
"323 -8 OFFCURVE",
"330 -6 OFFCURVE",
"338 0 CURVE",
"550 658 LINE SMOOTH",
"552 665 OFFCURVE",
"556 675 OFFCURVE",
"556 682 CURVE SMOOTH",
"557 693 OFFCURVE",
"549 700 OFFCURVE",
"538 700 CURVE SMOOTH",
"533 700 OFFCURVE",
"529 700 OFFCURVE",
"524 698 CURVE",
"526 694 OFFCURVE",
"526 688 OFFCURVE",
"526 684 CURVE SMOOTH",
"526 678 OFFCURVE",
"523 668 OFFCURVE",
"521 663 CURVE SMOOTH",
"312 6 LINE",
"322 6 LINE",
"103 686 LINE SMOOTH",
"100 695 OFFCURVE",
"92 700 OFFCURVE",
"83 700 CURVE SMOOTH",
"77 700 OFFCURVE",
"72 698 OFFCURVE",
"66 691 CURVE",
"71 685 OFFCURVE",
"78 674 OFFCURVE",
"82 661 CURVE SMOOTH",
"291 9 LINE SMOOTH",
"294 -2 OFFCURVE",
"304 -8 OFFCURVE",
"316 -8 CURVE SMOOTH"
);
},
{
closed = 1;
nodes = (
"729 -8 OFFCURVE",
"736 -6 OFFCURVE",
"744 0 CURVE",
"956 658 LINE SMOOTH",
"958 665 OFFCURVE",
"962 675 OFFCURVE",
"962 682 CURVE SMOOTH",
"963 693 OFFCURVE",
"955 700 OFFCURVE",
"944 700 CURVE SMOOTH",
"939 700 OFFCURVE",
"935 700 OFFCURVE",
"930 698 CURVE",
"932 694 OFFCURVE",
"932 688 OFFCURVE",
"932 684 CURVE SMOOTH",
"932 678 OFFCURVE",
"929 668 OFFCURVE",
"927 663 CURVE SMOOTH",
"718 6 LINE",
"728 6 LINE",
"509 686 LINE SMOOTH",
"506 695 OFFCURVE",
"498 700 OFFCURVE",
"489 700 CURVE SMOOTH",
"483 700 OFFCURVE",
"478 698 OFFCURVE",
"472 691 CURVE",
"477 685 OFFCURVE",
"484 674 OFFCURVE",
"488 661 CURVE SMOOTH",
"697 9 LINE SMOOTH",
"700 -2 OFFCURVE",
"710 -8 OFFCURVE",
"722 -8 CURVE SMOOTH"
);
}
);
width = 1012;
},
{
associatedMasterId = "60CFBDE8-BC08-4808-BF41-F011F3E03A54";
layerId = "07E32F51-4584-48B3-BAB2-E816366DB81B";
name = "Light Aug 25 15, 14:38";
paths = (
{
closed = 1;
nodes = (
"511 631 LINE",
"312 6 LINE",
"322 6 LINE",
"103 686 LINE SMOOTH",
"100 695 OFFCURVE",
"92 700 OFFCURVE",
"83 700 CURVE SMOOTH",
"77 700 OFFCURVE",
"72 698 OFFCURVE",
"66 691 CURVE",
"71 685 OFFCURVE",
"78 674 OFFCURVE",
"82 661 CURVE SMOOTH",
"291 9 LINE SMOOTH",
"294 -2 OFFCURVE",
"304 -8 OFFCURVE",
"316 -8 CURVE SMOOTH",
"323 -8 OFFCURVE",
"330 -6 OFFCURVE",
"338 0 CURVE",
"527 586 LINE"
);
},
{
closed = 1;
nodes = (
"522 633 OFFCURVE",
"509 636 OFFCURVE",
"499 628 CURVE",
"697 9 LINE SMOOTH",
"700 -2 OFFCURVE",
"710 -8 OFFCURVE",
"722 -8 CURVE SMOOTH",
"729 -8 OFFCURVE",
"736 -6 OFFCURVE",
"744 0 CURVE",
"956 658 LINE SMOOTH",
"958 665 OFFCURVE",
"962 675 OFFCURVE",
"962 682 CURVE SMOOTH",
"963 693 OFFCURVE",
"955 700 OFFCURVE",
"944 700 CURVE SMOOTH",
"939 700 OFFCURVE",
"935 700 OFFCURVE",
"930 698 CURVE",
"932 694 OFFCURVE",
"932 688 OFFCURVE",
"932 684 CURVE SMOOTH",
"932 678 OFFCURVE",
"929 668 OFFCURVE",
"927 663 CURVE SMOOTH",
"718 6 LINE",
"728 6 LINE",
"527 632 LINE"
);
}
);
width = 1012;
},
{
associatedMasterId = "60CFBDE8-BC08-4808-BF41-F011F3E03A54";
layerId = "1F90AA27-D60A-4901-BBD7-0EB57B0444CE";
name = "Bold Aug 25 15, 14:43";
paths = (
{
closed = 1;
nodes = (
"317 -16 OFFCURVE",
"356 -11 OFFCURVE",
"399 5 CURVE",
"513 488 LINE",
"491 498 LINE",
"594 26 LINE SMOOTH",
"601 -4 OFFCURVE",
"637 -16 OFFCURVE",
"684 -16 CURVE SMOOTH",
"711 -16 OFFCURVE",
"750 -11 OFFCURVE",
"793 5 CURVE",
"956 564 LINE SMOOTH",
"965 596 OFFCURVE",
"972 625 OFFCURVE",
"972 645 CURVE SMOOTH",
"972 692 OFFCURVE",
"945 711 OFFCURVE",
"881 711 CURVE SMOOTH",
"840 711 OFFCURVE",
"816 703 OFFCURVE",
"793 694 CURVE",
"800 686 OFFCURVE",
"805 675 OFFCURVE",
"805 656 CURVE SMOOTH",
"805 639 OFFCURVE",
"801 623 OFFCURVE",
"798 605 CURVE SMOOTH",
"704 85 LINE",
"716 85 LINE",
"601 599 LINE SMOOTH",
"594 630 OFFCURVE",
"560 645 OFFCURVE",
"517 645 CURVE SMOOTH",
"483 645 OFFCURVE",
"434 636 OFFCURVE",
"401 620 CURVE",
"411 600 OFFCURVE",
"417 571 OFFCURVE",
"408 529 CURVE SMOOTH",
"312 85 LINE",
"324 85 LINE",
"212 653 LINE SMOOTH",
"204 695 OFFCURVE",
"167 715 OFFCURVE",
"108 715 CURVE SMOOTH",
"54 715 OFFCURVE",
"26 695 OFFCURVE",
"12 680 CURVE",
"32 659 OFFCURVE",
"44 625 OFFCURVE",
"49 607 CURVE SMOOTH",
"195 26 LINE SMOOTH",
"203 -4 OFFCURVE",
"238 -16 OFFCURVE",
"294 -16 CURVE SMOOTH"
);
}
);
width = 995;
},
{
associatedMasterId = "60CFBDE8-BC08-4808-BF41-F011F3E03A54";
layerId = "2F718DF9-0B3E-40AB-B5C7-669FF60F6ADE";
name = "Light Aug 25 15, 14:43";
paths = (
{
closed = 1;
nodes = (
"323 -8 OFFCURVE",
"330 -6 OFFCURVE",
"338 0 CURVE",
"526 588 LINE",
"518 588 LINE",
"702 9 LINE",
"705 -2 OFFCURVE",
"715 -8 OFFCURVE",
"727 -8 CURVE SMOOTH",
"734 -8 OFFCURVE",
"741 -6 OFFCURVE",
"749 0 CURVE",
"961 658 LINE SMOOTH",
"963 665 OFFCURVE",
"967 675 OFFCURVE",
"967 682 CURVE",
"968 693 OFFCURVE",
"960 700 OFFCURVE",
"949 700 CURVE SMOOTH",
"944 700 OFFCURVE",
"940 700 OFFCURVE",
"935 698 CURVE",
"937 694 OFFCURVE",
"937 688 OFFCURVE",
"937 684 CURVE SMOOTH",
"937 678 OFFCURVE",
"934 668 OFFCURVE",
"932 663 CURVE",
"728 22 LINE",
"534 630 LINE",
"530 631 OFFCURVE",
"526 631 OFFCURVE",
"522 631 CURVE SMOOTH",
"516 631 OFFCURVE",
"509 629 OFFCURVE",
"504 626 CURVE",
"505 622 OFFCURVE",
"507 615 OFFCURVE",
"503 603 CURVE SMOOTH",
"313 10 LINE",
"321 10 LINE",
"103 686 LINE SMOOTH",
"100 695 OFFCURVE",
"92 700 OFFCURVE",
"83 700 CURVE SMOOTH",
"77 700 OFFCURVE",
"72 698 OFFCURVE",
"66 691 CURVE",
"71 685 OFFCURVE",
"78 674 OFFCURVE",
"82 661 CURVE SMOOTH",
"291 9 LINE",
"294 -2 OFFCURVE",
"304 -8 OFFCURVE",
"316 -8 CURVE SMOOTH"
);
}
);
width = 1012;
},
{
associatedMasterId = "60CFBDE8-BC08-4808-BF41-F011F3E03A54";
layerId = "6F86407E-40C5-49BA-85F5-6E25407B34F5";
name = "Light Aug 26 15, 10:53";
paths = (
{
closed = 1;
nodes = (
"888 700 OFFCURVE",
"884 700 OFFCURVE",
"879 698 CURVE",
"881 694 OFFCURVE",
"881 688 OFFCURVE",
"881 684 CURVE SMOOTH",
"881 678 OFFCURVE",
"878 668 OFFCURVE",
"876 663 CURVE",
"672 22 LINE",
"478 630 LINE",
"474 631 OFFCURVE",
"470 631 OFFCURVE",
"466 631 CURVE SMOOTH",
"460 631 OFFCURVE",
"453 629 OFFCURVE",
"448 626 CURVE",
"449 622 OFFCURVE",
"451 615 OFFCURVE",
"447 603 CURVE SMOOTH",
"261 22 LINE",
"47 686 LINE SMOOTH",
"44 695 OFFCURVE",
"36 700 OFFCURVE",
"27 700 CURVE SMOOTH",
"21 700 OFFCURVE",
"16 698 OFFCURVE",
"10 691 CURVE",
"15 685 OFFCURVE",
"22 674 OFFCURVE",
"26 661 CURVE SMOOTH",
"235 9 LINE",
"238 -2 OFFCURVE",
"248 -8 OFFCURVE",
"260 -8 CURVE SMOOTH",
"267 -8 OFFCURVE",
"274 -6 OFFCURVE",
"282 0 CURVE",
"466 575 LINE",
"646 9 LINE",
"649 -2 OFFCURVE",
"659 -8 OFFCURVE",
"671 -8 CURVE SMOOTH",
"678 -8 OFFCURVE",
"685 -6 OFFCURVE",
"693 0 CURVE",
"905 658 LINE SMOOTH",
"907 665 OFFCURVE",
"911 675 OFFCURVE",
"911 682 CURVE",
"912 693 OFFCURVE",
"904 700 OFFCURVE",
"893 700 CURVE SMOOTH"
);
}
);
width = 921;
},
{
associatedMasterId = "60CFBDE8-BC08-4808-BF41-F011F3E03A54";
layerId = "E63B71BC-0A54-4DDE-9377-DB9624BE3CD7";
name = "Bold Aug 26 15, 11:28";
paths = (
{
closed = 1;
nodes = (
"833 711 OFFCURVE",
"809 703 OFFCURVE",
"786 694 CURVE",
"793 686 OFFCURVE",
"798 675 OFFCURVE",
"798 656 CURVE SMOOTH",
"798 639 OFFCURVE",
"794 623 OFFCURVE",
"791 605 CURVE SMOOTH",
"702 115 LINE",
"594 599 LINE SMOOTH",
"587 630 OFFCURVE",
"553 645 OFFCURVE",
"510 645 CURVE SMOOTH",
"476 645 OFFCURVE",
"427 636 OFFCURVE",
"394 620 CURVE",
"404 600 OFFCURVE",
"410 571 OFFCURVE",
"401 529 CURVE SMOOTH",
"311 114 LINE",
"205 653 LINE SMOOTH",
"197 695 OFFCURVE",
"160 715 OFFCURVE",
"101 715 CURVE SMOOTH",
"47 715 OFFCURVE",
"19 695 OFFCURVE",
"5 680 CURVE",
"25 659 OFFCURVE",
"37 625 OFFCURVE",
"42 607 CURVE SMOOTH",
"188 26 LINE SMOOTH",
"196 -4 OFFCURVE",
"231 -16 OFFCURVE",
"287 -16 CURVE SMOOTH",
"310 -16 OFFCURVE",
"349 -11 OFFCURVE",
"392 5 CURVE",
"496 444 LINE",
"587 26 LINE SMOOTH",
"594 -4 OFFCURVE",
"630 -16 OFFCURVE",
"677 -16 CURVE SMOOTH",
"704 -16 OFFCURVE",
"743 -11 OFFCURVE",
"786 5 CURVE",
"949 564 LINE SMOOTH",
"958 596 OFFCURVE",
"965 625 OFFCURVE",
"965 645 CURVE SMOOTH",
"965 692 OFFCURVE",
"938 711 OFFCURVE",
"874 711 CURVE SMOOTH"
);
}
);
width = 980;
},
{
anchors = (
{
name = bottom;
position = "{481, 0}";
},
{
name = top;
position = "{489, 698}";
}
);
layerId = "EBFFFCD3-BAE4-48A5-9442-B72A90AD34A8";
paths = (
{
closed = 1;
nodes = (
"823 709 OFFCURVE",
"803 702 OFFCURVE",
"783 695 CURVE",
"789 687 OFFCURVE",
"793 677 OFFCURVE",
"793 661 CURVE SMOOTH",
"793 646 OFFCURVE",
"789 631 OFFCURVE",
"787 615 CURVE",
"691 99 LINE",
"568 602 LINE",
"562 628 OFFCURVE",
"533 640 OFFCURVE",
"497 640 CURVE SMOOTH",
"468 640 OFFCURVE",
"426 632 OFFCURVE",
"398 618 CURVE",
"406 601 OFFCURVE",
"412 576 OFFCURVE",
"404 539 CURVE SMOOTH",
"298 98 LINE",
"186 659 LINE SMOOTH",
"179 695 OFFCURVE",
"147 712 OFFCURVE",
"97 712 CURVE SMOOTH",
"51 712 OFFCURVE",
"27 696 OFFCURVE",
"14 682 CURVE",
"31 664 OFFCURVE",
"43 634 OFFCURVE",
"47 617 CURVE SMOOTH",
"192 23 LINE",
"198 -4 OFFCURVE",
"229 -15 OFFCURVE",
"278 -15 CURVE SMOOTH",
"298 -15 OFFCURVE",
"331 -10 OFFCURVE",
"368 4 CURVE",
"484 465 LINE",
"591 23 LINE",
"598 -4 OFFCURVE",
"629 -15 OFFCURVE",
"670 -15 CURVE SMOOTH",
"693 -15 OFFCURVE",
"727 -10 OFFCURVE",
"763 4 CURVE",
"922 581 LINE SMOOTH",
"930 608 OFFCURVE",
"936 634 OFFCURVE",
"936 652 CURVE",
"937 692 OFFCURVE",
"913 709 OFFCURVE",
"858 709 CURVE SMOOTH"
);
}
);
width = 962;
}
);
leftKerningGroup = W;
rightKerningGroup = W;
unicode = 0057;
},
{
glyphname = X;
lastChange = "2015-10-29 13:05:33 +0000";
layers = (
{
anchors = (
{
name = bottom;
position = "{287, 0}";
},
{
name = top;
position = "{287, 688}";
}
);
layerId = "60CFBDE8-BC08-4808-BF41-F011F3E03A54";
paths = (
{
closed = 1;
nodes = (
"541 -7 OFFCURVE",
"560 12 OFFCURVE",
"560 31 CURVE SMOOTH",
"560 44 OFFCURVE",
"552 54 OFFCURVE",
"537 55 CURVE",
"540 42 OFFCURVE",
"533 23 OFFCURVE",
"510 23 CURVE SMOOTH",
"488 23 OFFCURVE",
"474 42 OFFCURVE",
"461 65 CURVE SMOOTH",
"299 364 LINE",
"152 637 LINE SMOOTH",
"138 663 OFFCURVE",
"113 695 OFFCURVE",
"75 695 CURVE SMOOTH",
"44 695 OFFCURVE",
"25 676 OFFCURVE",
"25 657 CURVE SMOOTH",
"25 644 OFFCURVE",
"33 634 OFFCURVE",
"48 633 CURVE",
"45 649 OFFCURVE",
"52 665 OFFCURVE",
"75 665 CURVE SMOOTH",
"95 665 OFFCURVE",
"109 651 OFFCURVE",
"124 623 CURVE SMOOTH",
"272 349 LINE",
"432 51 LINE SMOOTH",
"447 22 OFFCURVE",
"472 -7 OFFCURVE",
"510 -7 CURVE SMOOTH"
);
},
{
closed = 1;
nodes = (
"57 -5 OFFCURVE",
"63 -1 OFFCURVE",
"68 6 CURVE SMOOTH",
"302 354 LINE",
"284 379 LINE",
"82 81 LINE SMOOTH",
"55 42 OFFCURVE",
"39 23 OFFCURVE",
"31 16 CURVE",
"33 0 OFFCURVE",
"41 -5 OFFCURVE",
"50 -5 CURVE SMOOTH"
);
},
{
closed = 1;
nodes = (
"472 613 LINE SMOOTH",
"493 645 OFFCURVE",
"512 668 OFFCURVE",
"525 679 CURVE",
"522 694 OFFCURVE",
"516 700 OFFCURVE",
"506 700 CURVE SMOOTH",
"499 700 OFFCURVE",
"493 696 OFFCURVE",
"488 689 CURVE SMOOTH",
"284 370 LINE",
"301 348 LINE"
);
}
);
width = 574;
},
{
associatedMasterId = "60CFBDE8-BC08-4808-BF41-F011F3E03A54";
layerId = "40A61E19-C4F3-4967-BCE8-2D617E12CAF7";
name = "Bold Aug 24 15, 16:21";
paths = (
{
closed = 1;
nodes = (
"597 -10 OFFCURVE",
"637 39 OFFCURVE",
"637 86 CURVE SMOOTH",
"637 122 OFFCURVE",
"614 146 OFFCURVE",
"591 158 CURVE",
"587 144 OFFCURVE",
"570 132 OFFCURVE",
"559 132 CURVE SMOOTH",
"549 132 OFFCURVE",
"533 142 OFFCURVE",
"518 165 CURVE SMOOTH",
"374 389 LINE",
"262 569 LINE SMOOTH",
"202 665 OFFCURVE",
"186 703 OFFCURVE",
"118 703 CURVE SMOOTH",
"38 703 OFFCURVE",
"4 654 OFFCURVE",
"4 608 CURVE SMOOTH",
"4 572 OFFCURVE",
"24 548 OFFCURVE",
"49 535 CURVE",
"53 549 OFFCURVE",
"69 561 OFFCURVE",
"83 561 CURVE SMOOTH",
"96 561 OFFCURVE",
"107 550 OFFCURVE",
"121 528 CURVE SMOOTH",
"259 310 LINE",
"379 124 LINE SMOOTH",
"432 42 OFFCURVE",
"456 -10 OFFCURVE",
"526 -10 CURVE SMOOTH"
);
},
{
closed = 1;
nodes = (
"111 -20 OFFCURVE",
"134 3 OFFCURVE",
"150 27 CURVE SMOOTH",
"323 282 LINE",
"267 362 LINE",
"110 163 LINE SMOOTH",
"80 125 OFFCURVE",
"49 91 OFFCURVE",
"-11 77 CURVE",
"-5 9 OFFCURVE",
"26 -20 OFFCURVE",
"77 -20 CURVE SMOOTH"
);
},
{
closed = 1;
nodes = (
"512 519 LINE SMOOTH",
"540 558 OFFCURVE",
"573 591 OFFCURVE",
"633 605 CURVE",
"626 674 OFFCURVE",
"603 703 OFFCURVE",
"540 703 CURVE SMOOTH",
"506 703 OFFCURVE",
"482 680 OFFCURVE",
"467 655 CURVE SMOOTH",
"310 399 LINE",
"368 321 LINE"
);
}
);
width = 600;
},
{
associatedMasterId = "60CFBDE8-BC08-4808-BF41-F011F3E03A54";
layerId = "9F8D304D-1E52-4CF9-AE0B-9BC0C9CA44D5";
name = "Bold Aug 24 15, 16:21";
paths = (
{
closed = 1;
nodes = (
"609 -10 OFFCURVE",
"661 39 OFFCURVE",
"661 86 CURVE SMOOTH",
"661 122 OFFCURVE",
"638 146 OFFCURVE",
"615 158 CURVE",
"611 144 OFFCURVE",
"594 132 OFFCURVE",
"583 132 CURVE SMOOTH",
"573 132 OFFCURVE",
"557 142 OFFCURVE",
"542 165 CURVE SMOOTH",
"398 389 LINE",
"286 569 LINE SMOOTH",
"228 662 OFFCURVE",
"217 703 OFFCURVE",
"118 703 CURVE SMOOTH",
"38 703 OFFCURVE",
"4 654 OFFCURVE",
"4 608 CURVE SMOOTH",
"4 572 OFFCURVE",
"24 548 OFFCURVE",
"49 535 CURVE",
"53 549 OFFCURVE",
"69 561 OFFCURVE",
"83 561 CURVE SMOOTH",
"96 561 OFFCURVE",
"107 550 OFFCURVE",
"121 528 CURVE SMOOTH",
"259 310 LINE",
"379 124 LINE SMOOTH",
"432 42 OFFCURVE",
"456 -10 OFFCURVE",
"542 -10 CURVE SMOOTH"
);
},
{
closed = 1;
nodes = (
"111 -20 OFFCURVE",
"134 3 OFFCURVE",
"150 27 CURVE SMOOTH",
"323 282 LINE",
"267 362 LINE",
"110 163 LINE SMOOTH",
"80 125 OFFCURVE",
"49 91 OFFCURVE",
"-11 77 CURVE",
"-5 9 OFFCURVE",
"26 -20 OFFCURVE",
"77 -20 CURVE SMOOTH"
);
},
{
closed = 1;
nodes = (
"518 519 LINE SMOOTH",
"546 558 OFFCURVE",
"579 591 OFFCURVE",
"639 605 CURVE",
"632 674 OFFCURVE",
"609 703 OFFCURVE",
"546 703 CURVE SMOOTH",
"507 703 OFFCURVE",
"483 680 OFFCURVE",
"468 655 CURVE SMOOTH",
"311 399 LINE",
"374 321 LINE"
);
}
);
width = 600;
},
{
associatedMasterId = "60CFBDE8-BC08-4808-BF41-F011F3E03A54";
layerId = "10BFCDBB-6A2E-4A91-8E41-58A390DB3838";
name = "Bold Aug 24 15, 16:23";
paths = (
{
closed = 1;
nodes = (
"665 -16 OFFCURVE",
"717 33 OFFCURVE",
"717 80 CURVE SMOOTH",
"717 116 OFFCURVE",
"694 140 OFFCURVE",
"671 152 CURVE",
"667 138 OFFCURVE",
"650 126 OFFCURVE",
"639 126 CURVE SMOOTH",
"629 126 OFFCURVE",
"613 136 OFFCURVE",
"598 159 CURVE SMOOTH",
"450 389 LINE SMOOTH",
"327 581 LINE SMOOTH",
"268 673 OFFCURVE",
"258 715 OFFCURVE",
"159 715 CURVE SMOOTH",
"79 715 OFFCURVE",
"45 666 OFFCURVE",
"45 620 CURVE SMOOTH",
"45 584 OFFCURVE",
"65 560 OFFCURVE",
"90 547 CURVE",
"94 561 OFFCURVE",
"110 573 OFFCURVE",
"124 573 CURVE SMOOTH",
"137 573 OFFCURVE",
"148 562 OFFCURVE",
"162 540 CURVE SMOOTH",
"311 310 LINE",
"435 118 LINE SMOOTH",
"488 36 OFFCURVE",
"512 -16 OFFCURVE",
"598 -16 CURVE SMOOTH"
);
},
{
closed = 1;
nodes = (
"578 525 LINE SMOOTH",
"609 563 OFFCURVE",
"639 597 OFFCURVE",
"699 611 CURVE",
"692 680 OFFCURVE",
"669 709 OFFCURVE",
"606 709 CURVE SMOOTH",
"567 709 OFFCURVE",
"543 686 OFFCURVE",
"528 661 CURVE SMOOTH",
"362 385 LINE",
"416 322 LINE"
);
},
{
closed = 1;
nodes = (
"168 168 LINE SMOOTH",
"137 130 OFFCURVE",
"107 96 OFFCURVE",
"47 82 CURVE",
"54 13 OFFCURVE",
"77 -16 OFFCURVE",
"140 -16 CURVE SMOOTH",
"179 -16 OFFCURVE",
"202 8 OFFCURVE",
"218 32 CURVE SMOOTH",
"399 308 LINE",
"330 371 LINE"
);
}
);
width = 784;
},
{
associatedMasterId = "60CFBDE8-BC08-4808-BF41-F011F3E03A54";
layerId = "6D66C537-3471-458A-B691-3C750D5BC7A4";
name = "Bold Aug 24 15, 16:24";
paths = (
{
closed = 1;
nodes = (
"658 -16 OFFCURVE",
"708 33 OFFCURVE",
"708 80 CURVE SMOOTH",
"708 116 OFFCURVE",
"686 140 OFFCURVE",
"664 152 CURVE",
"660 138 OFFCURVE",
"644 126 OFFCURVE",
"634 126 CURVE SMOOTH",
"624 126 OFFCURVE",
"609 136 OFFCURVE",
"595 159 CURVE SMOOTH",
"454 389 LINE SMOOTH",
"337 581 LINE SMOOTH",
"280 673 OFFCURVE",
"256 715 OFFCURVE",
"170 715 CURVE SMOOTH",
"93 715 OFFCURVE",
"61 666 OFFCURVE",
"61 620 CURVE SMOOTH",
"61 584 OFFCURVE",
"80 560 OFFCURVE",
"104 547 CURVE",
"108 561 OFFCURVE",
"123 573 OFFCURVE",
"136 573 CURVE SMOOTH",
"149 573 OFFCURVE",
"159 562 OFFCURVE",
"172 540 CURVE SMOOTH",
"314 310 LINE",
"432 118 LINE SMOOTH",
"483 36 OFFCURVE",
"506 -16 OFFCURVE",
"588 -16 CURVE SMOOTH"
);
},
{
closed = 1;
nodes = (
"569 525 LINE SMOOTH",
"598 563 OFFCURVE",
"627 597 OFFCURVE",
"684 611 CURVE",
"677 680 OFFCURVE",
"655 709 OFFCURVE",
"595 709 CURVE SMOOTH",
"558 709 OFFCURVE",
"535 686 OFFCURVE",
"521 661 CURVE SMOOTH",
"363 385 LINE",
"414 322 LINE"
);
},
{
closed = 1;
nodes = (
"178 168 LINE SMOOTH",
"149 130 OFFCURVE",
"120 96 OFFCURVE",
"63 82 CURVE",
"70 13 OFFCURVE",
"91 -16 OFFCURVE",
"151 -16 CURVE SMOOTH",
"189 -16 OFFCURVE",
"211 8 OFFCURVE",
"226 32 CURVE SMOOTH",
"398 308 LINE",
"332 371 LINE"
);
}
);
width = 784;
},
{
anchors = (
{
name = bottom;
position = "{320, 0}";
},
{
name = top;
position = "{320, 698}";
}
);
layerId = "EBFFFCD3-BAE4-48A5-9442-B72A90AD34A8";
paths = (
{
closed = 1;
nodes = (
"581 -14 OFFCURVE",
"623 29 OFFCURVE",
"623 73 CURVE SMOOTH",
"623 102 OFFCURVE",
"604 125 OFFCURVE",
"583 135 CURVE",
"580 121 OFFCURVE",
"566 108 OFFCURVE",
"554 108 CURVE SMOOTH",
"541 108 OFFCURVE",
"525 119 OFFCURVE",
"513 142 CURVE SMOOTH",
"362 422 LINE",
"279 587 LINE SMOOTH",
"239 666 OFFCURVE",
"205 707 OFFCURVE",
"132 707 CURVE SMOOTH",
"56 707 OFFCURVE",
"29 664 OFFCURVE",
"29 622 CURVE SMOOTH",
"29 591 OFFCURVE",
"46 569 OFFCURVE",
"68 558 CURVE",
"71 572 OFFCURVE",
"85 585 OFFCURVE",
"100 585 CURVE SMOOTH",
"114 585 OFFCURVE",
"125 574 OFFCURVE",
"138 551 CURVE SMOOTH",
"272 300 LINE",
"373 106 LINE SMOOTH",
"412 32 OFFCURVE",
"443 -14 OFFCURVE",
"514 -14 CURVE SMOOTH"
);
},
{
closed = 1;
nodes = (
"131 -14 OFFCURVE",
"149 3 OFFCURVE",
"164 27 CURVE SMOOTH",
"341 316 LINE",
"283 372 LINE",
"127 153 LINE SMOOTH",
"99 114 OFFCURVE",
"71 83 OFFCURVE",
"23 70 CURVE",
"28 13 OFFCURVE",
"49 -14 OFFCURVE",
"95 -14 CURVE SMOOTH"
);
},
{
closed = 1;
nodes = (
"504 541 LINE SMOOTH",
"530 578 OFFCURVE",
"559 610 OFFCURVE",
"608 623 CURVE",
"602 682 OFFCURVE",
"580 707 OFFCURVE",
"535 707 CURVE SMOOTH",
"497 707 OFFCURVE",
"479 688 OFFCURVE",
"467 666 CURVE SMOOTH",
"305 382 LINE",
"350 327 LINE"
);
}
);
width = 640;
}
);
unicode = 0058;
},
{
glyphname = Y;
lastChange = "2015-10-29 13:05:33 +0000";
layers = (
{
anchors = (
{
name = bottom;
position = "{254, 0}";
},
{
name = top;
position = "{270, 688}";
},
{
name = topleft;
position = "{20, 688}";
}
);
layerId = "60CFBDE8-BC08-4808-BF41-F011F3E03A54";
paths = (
{
closed = 1;
nodes = (
"272 236 LINE",
"480 655 LINE SMOOTH",
"485 665 OFFCURVE",
"488 673 OFFCURVE",
"488 678 CURVE SMOOTH",
"488 692 OFFCURVE",
"480 700 OFFCURVE",
"468 700 CURVE SMOOTH",
"463 700 OFFCURVE",
"459 700 OFFCURVE",
"454 698 CURVE",
"456 694 OFFCURVE",
"456 688 OFFCURVE",
"456 683 CURVE SMOOTH",
"456 678 OFFCURVE",
"453 670 OFFCURVE",
"446 655 CURVE SMOOTH",
"251 253 LINE",
"266 253 LINE",
"63 686 LINE SMOOTH",
"59 695 OFFCURVE",
"52 700 OFFCURVE",
"43 700 CURVE SMOOTH",
"34 700 OFFCURVE",
"26 696 OFFCURVE",
"20 689 CURVE",
"25 683 OFFCURVE",
"36 672 OFFCURVE",
"41 661 CURVE SMOOTH",
"244 236 LINE SMOOTH",
"246 232 OFFCURVE",
"252 228 OFFCURVE",
"260 227 CURVE"
);
},
{
closed = 1;
nodes = (
"243 250 LINE",
"244 14 LINE SMOOTH",
"244 0 OFFCURVE",
"250 -8 OFFCURVE",
"261 -8 CURVE SMOOTH",
"270 -8 OFFCURVE",
"275 -4 OFFCURVE",
"279 0 CURVE",
"275 16 OFFCURVE",
"273 45 OFFCURVE",
"273 87 CURVE SMOOTH",
"272 249 LINE"
);
}
);
width = 512;
},
{
associatedMasterId = "60CFBDE8-BC08-4808-BF41-F011F3E03A54";
layerId = "1FDC3232-4FDE-4710-BDA1-3320C5CC5713";
name = "Bold Aug 24 15, 16:05";
paths = (
{
closed = 1;
nodes = (
"334 285 OFFCURVE",
"380 292 OFFCURVE",
"426 307 CURVE",
"605 568 LINE SMOOTH",
"624 595 OFFCURVE",
"621 629 OFFCURVE",
"621 649 CURVE SMOOTH",
"621 696 OFFCURVE",
"594 715 OFFCURVE",
"530 715 CURVE SMOOTH",
"489 715 OFFCURVE",
"465 707 OFFCURVE",
"442 698 CURVE",
"449 690 OFFCURVE",
"454 679 OFFCURVE",
"454 660 CURVE SMOOTH",
"454 643 OFFCURVE",
"455 627 OFFCURVE",
"447 609 CURVE SMOOTH",
"328 350 LINE",
"342 347 LINE",
"204 653 LINE SMOOTH",
"186 692 OFFCURVE",
"156 715 OFFCURVE",
"106 715 CURVE SMOOTH",
"52 715 OFFCURVE",
"24 695 OFFCURVE",
"10 680 CURVE",
"30 659 OFFCURVE",
"36 626 OFFCURVE",
"47 607 CURVE SMOOTH",
"202 336 LINE SMOOTH",
"223 299 OFFCURVE",
"250 285 OFFCURVE",
"288 285 CURVE SMOOTH"
);
},
{
closed = 1;
nodes = (
"237 308 LINE",
"237 65 LINE SMOOTH",
"237 14 OFFCURVE",
"277 -16 OFFCURVE",
"330 -16 CURVE SMOOTH",
"375 -16 OFFCURVE",
"410 7 OFFCURVE",
"423 19 CURVE",
"403 70 OFFCURVE",
"400 121 OFFCURVE",
"400 159 CURVE SMOOTH",
"400 340 LINE"
);
}
);
width = 600;
},
{
associatedMasterId = "60CFBDE8-BC08-4808-BF41-F011F3E03A54";
layerId = "0BACD53E-2B4D-4799-B788-ED09B2BAD02F";
name = "Bold Aug 24 15, 16:12";
paths = (
{
closed = 1;
nodes = (
"335 269 OFFCURVE",
"346 254 OFFCURVE",
"392 269 CURVE",
"554 545 LINE SMOOTH",
"574 578 OFFCURVE",
"592 617 OFFCURVE",
"592 644 CURVE SMOOTH",
"591 679 OFFCURVE",
"570 711 OFFCURVE",
"519 711 CURVE SMOOTH",
"478 711 OFFCURVE",
"454 703 OFFCURVE",
"431 694 CURVE",
"440 684 OFFCURVE",
"447 668 OFFCURVE",
"447 653 CURVE SMOOTH",
"447 636 OFFCURVE",
"443 622 OFFCURVE",
"436 605 CURVE SMOOTH",
"313 320 LINE",
"360 347 LINE",
"204 653 LINE SMOOTH",
"184 692 OFFCURVE",
"157 715 OFFCURVE",
"103 715 CURVE SMOOTH",
"40 715 OFFCURVE",
"20 680 OFFCURVE",
"6 665 CURVE",
"26 644 OFFCURVE",
"44 611 OFFCURVE",
"54 592 CURVE SMOOTH",
"189 336 LINE SMOOTH",
"209 298 OFFCURVE",
"238 269 OFFCURVE",
"300 269 CURVE SMOOTH"
);
},
{
closed = 1;
nodes = (
"226 308 LINE",
"226 65 LINE SMOOTH",
"226 14 OFFCURVE",
"266 -16 OFFCURVE",
"319 -16 CURVE SMOOTH",
"364 -16 OFFCURVE",
"399 7 OFFCURVE",
"412 19 CURVE",
"392 70 OFFCURVE",
"389 121 OFFCURVE",
"389 159 CURVE SMOOTH",
"389 340 LINE"
);
}
);
width = 600;
},
{
associatedMasterId = "60CFBDE8-BC08-4808-BF41-F011F3E03A54";
guideLines = (
{
position = "{304, 263}";
}
);
layerId = "AE13FDCE-5634-49A7-A66A-A6E1222ACBF8";
name = "Bold Aug 24 15, 16:18";
paths = (
{
closed = 1;
nodes = (
"336 231 OFFCURVE",
"335 237 OFFCURVE",
"381 252 CURVE",
"566 534 LINE SMOOTH",
"587 566 OFFCURVE",
"604 606 OFFCURVE",
"604 633 CURVE SMOOTH",
"603 668 OFFCURVE",
"582 700 OFFCURVE",
"531 700 CURVE SMOOTH",
"490 700 OFFCURVE",
"466 692 OFFCURVE",
"443 683 CURVE",
"452 673 OFFCURVE",
"459 657 OFFCURVE",
"459 642 CURVE SMOOTH",
"459 625 OFFCURVE",
"456 611 OFFCURVE",
"448 594 CURVE SMOOTH",
"313 303 LINE",
"382 330 LINE",
"228 618 LINE SMOOTH",
"200 671 OFFCURVE",
"180 710 OFFCURVE",
"114 710 CURVE SMOOTH",
"50 710 OFFCURVE",
"6 675 OFFCURVE",
"-8 660 CURVE",
"20 633 OFFCURVE",
"40 599 OFFCURVE",
"50 581 CURVE SMOOTH",
"189 319 LINE SMOOTH",
"209 282 OFFCURVE",
"239 231 OFFCURVE",
"301 231 CURVE SMOOTH"
);
},
{
closed = 1;
nodes = (
"226 291 LINE",
"226 65 LINE SMOOTH",
"226 14 OFFCURVE",
"266 -16 OFFCURVE",
"319 -16 CURVE SMOOTH",
"364 -16 OFFCURVE",
"399 7 OFFCURVE",
"412 19 CURVE",
"392 70 OFFCURVE",
"389 121 OFFCURVE",
"389 159 CURVE SMOOTH",
"389 323 LINE"
);
}
);
width = 600;
},
{
associatedMasterId = "60CFBDE8-BC08-4808-BF41-F011F3E03A54";
guideLines = (
{
position = "{324, 263}";
}
);
layerId = "44688BE7-8143-4BF0-883E-6A51604AD970";
name = "Bold Aug 24 15, 16:45";
paths = (
{
closed = 1;
nodes = (
"356 231 OFFCURVE",
"353 237 OFFCURVE",
"399 252 CURVE",
"584 534 LINE SMOOTH",
"605 566 OFFCURVE",
"622 606 OFFCURVE",
"622 633 CURVE SMOOTH",
"621 668 OFFCURVE",
"600 700 OFFCURVE",
"549 700 CURVE SMOOTH",
"503 700 OFFCURVE",
"479 692 OFFCURVE",
"456 683 CURVE",
"465 673 OFFCURVE",
"472 657 OFFCURVE",
"472 642 CURVE SMOOTH",
"472 625 OFFCURVE",
"469 611 OFFCURVE",
"461 594 CURVE SMOOTH",
"319 282 LINE",
"402 330 LINE",
"248 618 LINE SMOOTH",
"220 671 OFFCURVE",
"200 710 OFFCURVE",
"134 710 CURVE SMOOTH",
"70 710 OFFCURVE",
"26 675 OFFCURVE",
"12 660 CURVE",
"40 633 OFFCURVE",
"60 599 OFFCURVE",
"70 581 CURVE SMOOTH",
"209 319 LINE SMOOTH",
"229 282 OFFCURVE",
"259 231 OFFCURVE",
"321 231 CURVE SMOOTH"
);
},
{
closed = 1;
nodes = (
"246 291 LINE",
"246 65 LINE SMOOTH",
"246 14 OFFCURVE",
"286 -16 OFFCURVE",
"339 -16 CURVE SMOOTH",
"384 -16 OFFCURVE",
"419 7 OFFCURVE",
"432 19 CURVE",
"412 70 OFFCURVE",
"409 121 OFFCURVE",
"409 159 CURVE SMOOTH",
"409 323 LINE"
);
}
);
width = 650;
},
{
associatedMasterId = "60CFBDE8-BC08-4808-BF41-F011F3E03A54";
guideLines = (
{
position = "{324, 263}";
}
);
layerId = "0E83CA05-679E-4514-856C-1331E27B5427";
name = "Bold Aug 24 15, 16:51";
paths = (
{
closed = 1;
nodes = (
"356 231 OFFCURVE",
"353 237 OFFCURVE",
"399 252 CURVE",
"584 534 LINE SMOOTH",
"605 566 OFFCURVE",
"622 606 OFFCURVE",
"622 633 CURVE SMOOTH",
"621 668 OFFCURVE",
"600 700 OFFCURVE",
"549 700 CURVE SMOOTH",
"503 700 OFFCURVE",
"479 692 OFFCURVE",
"456 683 CURVE",
"465 673 OFFCURVE",
"472 657 OFFCURVE",
"472 642 CURVE SMOOTH",
"472 625 OFFCURVE",
"469 611 OFFCURVE",
"461 594 CURVE SMOOTH",
"319 282 LINE",
"384 320 LINE",
"248 618 LINE SMOOTH",
"223 672 OFFCURVE",
"200 710 OFFCURVE",
"134 710 CURVE SMOOTH",
"70 710 OFFCURVE",
"26 675 OFFCURVE",
"12 660 CURVE",
"40 633 OFFCURVE",
"60 599 OFFCURVE",
"70 581 CURVE SMOOTH",
"209 319 LINE SMOOTH",
"229 282 OFFCURVE",
"259 231 OFFCURVE",
"321 231 CURVE SMOOTH"
);
},
{
closed = 1;
nodes = (
"246 291 LINE",
"246 65 LINE SMOOTH",
"246 14 OFFCURVE",
"286 -16 OFFCURVE",
"339 -16 CURVE SMOOTH",
"384 -16 OFFCURVE",
"419 7 OFFCURVE",
"432 19 CURVE",
"412 70 OFFCURVE",
"409 121 OFFCURVE",
"409 159 CURVE SMOOTH",
"409 323 LINE"
);
}
);
width = 650;
},
{
anchors = (
{
name = bottom;
position = "{318, 0}";
},
{
name = top;
position = "{321, 698}";
},
{
name = topleft;
position = "{20, 698}";
}
);
layerId = "EBFFFCD3-BAE4-48A5-9442-B72A90AD34A8";
paths = (
{
closed = 1;
nodes = (
"361 249 LINE",
"550 564 LINE SMOOTH",
"568 592 OFFCURVE",
"583 626 OFFCURVE",
"583 649 CURVE SMOOTH",
"582 680 OFFCURVE",
"564 708 OFFCURVE",
"519 708 CURVE SMOOTH",
"481 708 OFFCURVE",
"460 702 OFFCURVE",
"440 694 CURVE",
"448 685 OFFCURVE",
"454 671 OFFCURVE",
"454 657 CURVE SMOOTH",
"454 643 OFFCURVE",
"451 630 OFFCURVE",
"443 613 CURVE SMOOTH",
"292 277 LINE",
"348 308 LINE",
"200 630 LINE SMOOTH",
"179 676 OFFCURVE",
"159 708 OFFCURVE",
"103 708 CURVE SMOOTH",
"54 708 OFFCURVE",
"17 679 OFFCURVE",
"4 665 CURVE",
"28 642 OFFCURVE",
"46 612 OFFCURVE",
"55 595 CURVE SMOOTH",
"206 304 LINE SMOOTH",
"223 273 OFFCURVE",
"242 230 OFFCURVE",
"288 230 CURVE"
);
},
{
closed = 1;
nodes = (
"230 284 LINE",
"230 56 LINE SMOOTH",
"230 12 OFFCURVE",
"264 -15 OFFCURVE",
"310 -15 CURVE SMOOTH",
"348 -15 OFFCURVE",
"378 5 OFFCURVE",
"389 16 CURVE",
"372 60 OFFCURVE",
"369 108 OFFCURVE",
"369 146 CURVE SMOOTH",
"369 310 LINE"
);
}
);
width = 600;
}
);
leftKerningGroup = Y;
rightKerningGroup = Y;
unicode = 0059;
},
{
glyphname = Z;
lastChange = "2015-10-29 13:05:33 +0000";
layers = (
{
anchors = (
{
name = bottom;
position = "{283, 0}";
},
{
name = top;
position = "{283, 688}";
}
);
layerId = "60CFBDE8-BC08-4808-BF41-F011F3E03A54";
paths = (
{
closed = 1;
nodes = (
"103 0 OFFCURVE",
"147 0 OFFCURVE",
"187 0 CURVE SMOOTH",
"394 0 LINE SMOOTH",
"482 0 OFFCURVE",
"520 44 OFFCURVE",
"520 97 CURVE SMOOTH",
"520 131 OFFCURVE",
"502 189 OFFCURVE",
"463 189 CURVE SMOOTH",
"455 189 OFFCURVE",
"453 186 OFFCURVE",
"444 181 CURVE",
"468 167 OFFCURVE",
"491 136 OFFCURVE",
"490 95 CURVE SMOOTH",
"489 58 OFFCURVE",
"466 26 OFFCURVE",
"383 26 CURVE SMOOTH",
"78 26 LINE",
"78 13 LINE",
"477 633 LINE SMOOTH",
"485 646 OFFCURVE",
"492 663 OFFCURVE",
"492 685 CURVE",
"475 694 LINE",
"453 689 OFFCURVE",
"416 689 OFFCURVE",
"347 689 CURVE SMOOTH",
"173 689 LINE SMOOTH",
"100 689 OFFCURVE",
"59 649 OFFCURVE",
"59 603 CURVE SMOOTH",
"59 564 OFFCURVE",
"82 519 OFFCURVE",
"116 519 CURVE SMOOTH",
"126 519 OFFCURVE",
"133 523 OFFCURVE",
"136 529 CURVE",
"104 548 OFFCURVE",
"87 568 OFFCURVE",
"87 602 CURVE SMOOTH",
"87 635 OFFCURVE",
"111 663 OFFCURVE",
"176 663 CURVE SMOOTH",
"475 663 LINE",
"463 665 LINE",
"71 53 LINE SMOOTH",
"61 38 OFFCURVE",
"52 21 OFFCURVE",
"52 9 CURVE",
"63 -5 LINE"
);
}
);
width = 553;
},
{
associatedMasterId = "60CFBDE8-BC08-4808-BF41-F011F3E03A54";
layerId = "6086FCA0-3F07-4762-9817-07E4259C666F";
name = "Bold Aug 24 15, 12:39";
paths = (
{
closed = 1;
nodes = (
"73 0 OFFCURVE",
"108 1 OFFCURVE",
"136 0 CURVE SMOOTH",
"360 -6 LINE SMOOTH",
"456 -9 OFFCURVE",
"507 33 OFFCURVE",
"507 87 CURVE SMOOTH",
"507 113 OFFCURVE",
"489 154 OFFCURVE",
"445 177 CURVE SMOOTH",
"435 182 OFFCURVE",
"424 186 OFFCURVE",
"411 189 CURVE",
"411 175 OFFCURVE",
"405 162 OFFCURVE",
"393 151 CURVE SMOOTH",
"379 138 OFFCURVE",
"357 127 OFFCURVE",
"329 125 CURVE SMOOTH",
"136 114 LINE",
"180 105 LINE",
"446 400 LINE SMOOTH",
"475 429 OFFCURVE",
"477 454 OFFCURVE",
"477 492 CURVE",
"463 530 LINE",
"435 520 OFFCURVE",
"400 519 OFFCURVE",
"372 520 CURVE SMOOTH",
"177 527 LINE SMOOTH",
"64 531 OFFCURVE",
"20 488 OFFCURVE",
"20 434 CURVE SMOOTH",
"20 411 OFFCURVE",
"38 372 OFFCURVE",
"80 349 CURVE SMOOTH",
"91 343 OFFCURVE",
"103 339 OFFCURVE",
"116 336 CURVE",
"116 352 OFFCURVE",
"125 368 OFFCURVE",
"141 379 CURVE SMOOTH",
"155 390 OFFCURVE",
"176 400 OFFCURVE",
"198 402 CURVE SMOOTH",
"387 423 LINE",
"349 425 LINE",
"59 115 LINE SMOOTH",
"31 86 OFFCURVE",
"28 61 OFFCURVE",
"28 19 CURVE",
"45 -11 LINE"
);
}
);
width = 600;
},
{
associatedMasterId = "60CFBDE8-BC08-4808-BF41-F011F3E03A54";
layerId = "C5D037FC-425F-446F-8188-15E85C49E7F0";
name = "Bold Aug 24 15, 16:26";
paths = (
{
closed = 1;
nodes = (
"87 6 OFFCURVE",
"131 7 OFFCURVE",
"168 6 CURVE SMOOTH",
"453 -2 LINE SMOOTH",
"575 -6 OFFCURVE",
"641 48 OFFCURVE",
"641 116 CURVE SMOOTH",
"641 150 OFFCURVE",
"618 202 OFFCURVE",
"562 232 CURVE SMOOTH",
"549 238 OFFCURVE",
"535 243 OFFCURVE",
"518 247 CURVE",
"518 229 OFFCURVE",
"511 213 OFFCURVE",
"495 198 CURVE SMOOTH",
"477 182 OFFCURVE",
"450 168 OFFCURVE",
"413 165 CURVE SMOOTH",
"168 152 LINE",
"224 139 LINE",
"563 541 LINE SMOOTH",
"597 582 OFFCURVE",
"603 610 OFFCURVE",
"603 659 CURVE",
"585 707 LINE",
"549 695 OFFCURVE",
"504 694 OFFCURVE",
"469 695 CURVE SMOOTH",
"220 703 LINE SMOOTH",
"75 708 OFFCURVE",
"19 654 OFFCURVE",
"19 584 CURVE SMOOTH",
"19 556 OFFCURVE",
"42 505 OFFCURVE",
"96 476 CURVE SMOOTH",
"110 468 OFFCURVE",
"125 463 OFFCURVE",
"142 459 CURVE",
"142 479 OFFCURVE",
"153 500 OFFCURVE",
"173 515 CURVE SMOOTH",
"191 528 OFFCURVE",
"218 540 OFFCURVE",
"247 543 CURVE SMOOTH",
"488 571 LINE",
"439 573 LINE",
"69 153 LINE SMOOTH",
"34 114 OFFCURVE",
"30 83 OFFCURVE",
"30 30 CURVE",
"51 -8 LINE"
);
}
);
width = 600;
},
{
associatedMasterId = "60CFBDE8-BC08-4808-BF41-F011F3E03A54";
layerId = "08C7E995-A1F7-43FE-A06F-A4AE9895050B";
name = "Bold Aug 24 15, 16:29";
paths = (
{
closed = 1;
nodes = (
"117 6 OFFCURVE",
"131 7 OFFCURVE",
"168 6 CURVE SMOOTH",
"455 -2 LINE SMOOTH",
"577 -5 OFFCURVE",
"632 43 OFFCURVE",
"632 111 CURVE SMOOTH",
"632 166 OFFCURVE",
"603 195 OFFCURVE",
"562 215 CURVE SMOOTH",
"553 219 OFFCURVE",
"539 225 OFFCURVE",
"518 230 CURVE",
"518 212 OFFCURVE",
"511 196 OFFCURVE",
"495 181 CURVE SMOOTH",
"480 167 OFFCURVE",
"451 151 OFFCURVE",
"413 148 CURVE SMOOTH",
"150 125 LINE",
"172 79 LINE",
"563 541 LINE SMOOTH",
"597 581 OFFCURVE",
"603 610 OFFCURVE",
"603 659 CURVE",
"585 707 LINE",
"549 695 OFFCURVE",
"502 694 OFFCURVE",
"469 695 CURVE SMOOTH",
"250 703 LINE SMOOTH",
"105 708 OFFCURVE",
"49 654 OFFCURVE",
"49 584 CURVE SMOOTH",
"49 548 OFFCURVE",
"63 523 OFFCURVE",
"85 505 CURVE SMOOTH",
"105 489 OFFCURVE",
"132 478 OFFCURVE",
"160 471 CURVE",
"160 489 OFFCURVE",
"166 505 OFFCURVE",
"182 521 CURVE SMOOTH",
"203 542 OFFCURVE",
"234 552 OFFCURVE",
"265 555 CURVE SMOOTH",
"498 578 LINE",
"498 618 LINE",
"99 153 LINE SMOOTH",
"64 113 OFFCURVE",
"60 83 OFFCURVE",
"60 30 CURVE",
"81 -8 LINE"
);
}
);
width = 681;
},
{
associatedMasterId = "60CFBDE8-BC08-4808-BF41-F011F3E03A54";
layerId = "870A4E15-21D4-417A-ACC3-1B6B5D39CB1F";
name = "Bold Aug 24 15, 16:45";
paths = (
{
closed = 1;
nodes = (
"96 6 OFFCURVE",
"109 7 OFFCURVE",
"145 6 CURVE SMOOTH",
"421 -2 LINE SMOOTH",
"538 -5 OFFCURVE",
"591 43 OFFCURVE",
"591 111 CURVE SMOOTH",
"591 161 OFFCURVE",
"563 190 OFFCURVE",
"523 210 CURVE SMOOTH",
"515 214 OFFCURVE",
"501 220 OFFCURVE",
"481 225 CURVE",
"481 207 OFFCURVE",
"474 191 OFFCURVE",
"459 176 CURVE SMOOTH",
"445 162 OFFCURVE",
"417 146 OFFCURVE",
"380 143 CURVE SMOOTH",
"127 120 LINE",
"149 79 LINE",
"524 541 LINE SMOOTH",
"557 581 OFFCURVE",
"563 610 OFFCURVE",
"563 659 CURVE",
"546 707 LINE",
"511 695 OFFCURVE",
"466 694 OFFCURVE",
"434 695 CURVE SMOOTH",
"224 703 LINE SMOOTH",
"84 708 OFFCURVE",
"30 654 OFFCURVE",
"30 584 CURVE SMOOTH",
"30 552 OFFCURVE",
"44 527 OFFCURVE",
"65 509 CURVE SMOOTH",
"84 493 OFFCURVE",
"110 482 OFFCURVE",
"137 475 CURVE",
"137 493 OFFCURVE",
"143 509 OFFCURVE",
"158 529 CURVE SMOOTH",
"174 550 OFFCURVE",
"208 556 OFFCURVE",
"238 559 CURVE SMOOTH",
"462 582 LINE",
"450 628 LINE",
"78 153 LINE SMOOTH",
"46 113 OFFCURVE",
"41 83 OFFCURVE",
"41 30 CURVE",
"61 -8 LINE"
);
}
);
width = 621;
},
{
associatedMasterId = "60CFBDE8-BC08-4808-BF41-F011F3E03A54";
layerId = "9A94C8F2-784F-48FD-AE45-3C1463D41141";
name = "Light Aug 24 15, 17:04";
paths = (
{
closed = 1;
nodes = (
"81 0 OFFCURVE",
"131 0 OFFCURVE",
"171 0 CURVE SMOOTH",
"421 0 LINE SMOOTH",
"507 0 OFFCURVE",
"564 51 OFFCURVE",
"564 126 CURVE SMOOTH",
"564 161 OFFCURVE",
"552 220 OFFCURVE",
"505 220 CURVE SMOOTH",
"498 220 OFFCURVE",
"490 217 OFFCURVE",
"480 212 CURVE",
"505 198 OFFCURVE",
"524 166 OFFCURVE",
"524 130 CURVE SMOOTH",
"524 83 OFFCURVE",
"496 37 OFFCURVE",
"407 37 CURVE SMOOTH",
"62 37 LINE",
"69 23 LINE",
"507 620 LINE SMOOTH",
"524 644 OFFCURVE",
"528 663 OFFCURVE",
"528 685 CURVE",
"515 694 LINE",
"493 689 OFFCURVE",
"456 689 OFFCURVE",
"387 689 CURVE SMOOTH",
"158 689 LINE SMOOTH",
"72 689 OFFCURVE",
"24 640 OFFCURVE",
"24 582 CURVE SMOOTH",
"24 543 OFFCURVE",
"46 499 OFFCURVE",
"86 499 CURVE SMOOTH",
"94 499 OFFCURVE",
"102 503 OFFCURVE",
"105 509 CURVE",
"83 525 OFFCURVE",
"64 547 OFFCURVE",
"64 579 CURVE SMOOTH",
"64 615 OFFCURVE",
"89 651 OFFCURVE",
"161 651 CURVE SMOOTH",
"504 651 LINE",
"497 665 LINE",
"49 54 LINE SMOOTH",
"38 39 OFFCURVE",
"30 21 OFFCURVE",
"30 9 CURVE",
"41 -5 LINE"
);
}
);
width = 600;
},
{
associatedMasterId = "60CFBDE8-BC08-4808-BF41-F011F3E03A54";
layerId = "FD353DC1-FB06-463E-88CE-7651A2AC541F";
name = "Light Aug 25 15, 14:05";
paths = (
{
closed = 1;
nodes = (
"87 0 OFFCURVE",
"131 0 OFFCURVE",
"171 0 CURVE SMOOTH",
"407 0 LINE SMOOTH",
"493 0 OFFCURVE",
"550 53 OFFCURVE",
"550 123 CURVE SMOOTH",
"550 162 OFFCURVE",
"532 220 OFFCURVE",
"493 220 CURVE SMOOTH",
"485 220 OFFCURVE",
"483 217 OFFCURVE",
"474 212 CURVE",
"498 198 OFFCURVE",
"518 167 OFFCURVE",
"520 124 CURVE SMOOTH",
"520 73 OFFCURVE",
"492 26 OFFCURVE",
"393 26 CURVE SMOOTH",
"62 26 LINE",
"62 13 LINE",
"504 633 LINE SMOOTH",
"513 646 OFFCURVE",
"519 663 OFFCURVE",
"519 685 CURVE",
"502 694 LINE",
"480 689 OFFCURVE",
"443 689 OFFCURVE",
"374 689 CURVE SMOOTH",
"164 689 LINE SMOOTH",
"78 689 OFFCURVE",
"30 640 OFFCURVE",
"30 583 CURVE SMOOTH",
"30 544 OFFCURVE",
"53 499 OFFCURVE",
"87 499 CURVE SMOOTH",
"97 499 OFFCURVE",
"104 503 OFFCURVE",
"107 509 CURVE",
"75 528 OFFCURVE",
"58 548 OFFCURVE",
"58 582 CURVE SMOOTH",
"58 626 OFFCURVE",
"87 663 OFFCURVE",
"167 663 CURVE SMOOTH",
"502 663 LINE",
"490 665 LINE",
"55 53 LINE SMOOTH",
"44 38 OFFCURVE",
"36 21 OFFCURVE",
"36 9 CURVE",
"47 -5 LINE"
);
}
);
width = 600;
},
{
associatedMasterId = "60CFBDE8-BC08-4808-BF41-F011F3E03A54";
layerId = "691624EA-7F09-425F-8D6E-B6BF8709FC88";
name = "Light Aug 26 15, 11:02";
paths = (
{
closed = 1;
nodes = (
"71 0 OFFCURVE",
"115 0 OFFCURVE",
"155 0 CURVE SMOOTH",
"381 0 LINE SMOOTH",
"467 0 OFFCURVE",
"524 53 OFFCURVE",
"524 123 CURVE SMOOTH",
"524 162 OFFCURVE",
"506 220 OFFCURVE",
"467 220 CURVE SMOOTH",
"459 220 OFFCURVE",
"457 217 OFFCURVE",
"448 212 CURVE",
"472 198 OFFCURVE",
"492 167 OFFCURVE",
"494 124 CURVE SMOOTH",
"494 73 OFFCURVE",
"466 26 OFFCURVE",
"367 26 CURVE SMOOTH",
"46 26 LINE",
"46 13 LINE",
"474 633 LINE SMOOTH",
"483 646 OFFCURVE",
"489 663 OFFCURVE",
"489 685 CURVE",
"472 694 LINE",
"450 689 OFFCURVE",
"413 689 OFFCURVE",
"344 689 CURVE SMOOTH",
"154 689 LINE SMOOTH",
"68 689 OFFCURVE",
"20 640 OFFCURVE",
"20 583 CURVE SMOOTH",
"20 544 OFFCURVE",
"43 499 OFFCURVE",
"77 499 CURVE SMOOTH",
"87 499 OFFCURVE",
"94 503 OFFCURVE",
"97 509 CURVE",
"65 528 OFFCURVE",
"48 548 OFFCURVE",
"48 582 CURVE SMOOTH",
"48 626 OFFCURVE",
"77 663 OFFCURVE",
"157 663 CURVE SMOOTH",
"472 663 LINE",
"460 665 LINE",
"39 53 LINE SMOOTH",
"28 38 OFFCURVE",
"20 21 OFFCURVE",
"20 9 CURVE",
"31 -5 LINE"
);
}
);
width = 544;
},
{
associatedMasterId = "60CFBDE8-BC08-4808-BF41-F011F3E03A54";
layerId = "74BA34CF-4905-4CBB-8A1B-2D4120369D78";
name = "Light Aug 26 15, 11:02";
paths = (
{
closed = 1;
nodes = (
"71 0 OFFCURVE",
"115 0 OFFCURVE",
"155 0 CURVE SMOOTH",
"381 0 LINE SMOOTH",
"467 0 OFFCURVE",
"524 53 OFFCURVE",
"524 123 CURVE SMOOTH",
"524 162 OFFCURVE",
"506 220 OFFCURVE",
"467 220 CURVE SMOOTH",
"459 220 OFFCURVE",
"457 217 OFFCURVE",
"448 212 CURVE",
"472 198 OFFCURVE",
"492 167 OFFCURVE",
"494 124 CURVE SMOOTH",
"494 73 OFFCURVE",
"466 26 OFFCURVE",
"367 26 CURVE SMOOTH",
"46 26 LINE",
"46 13 LINE",
"474 633 LINE SMOOTH",
"483 646 OFFCURVE",
"489 663 OFFCURVE",
"489 685 CURVE",
"472 694 LINE",
"450 689 OFFCURVE",
"413 689 OFFCURVE",
"344 689 CURVE SMOOTH",
"154 689 LINE SMOOTH",
"68 689 OFFCURVE",
"20 640 OFFCURVE",
"20 583 CURVE SMOOTH",
"20 544 OFFCURVE",
"43 499 OFFCURVE",
"77 499 CURVE SMOOTH",
"87 499 OFFCURVE",
"94 503 OFFCURVE",
"97 509 CURVE",
"65 528 OFFCURVE",
"48 548 OFFCURVE",
"48 582 CURVE SMOOTH",
"48 626 OFFCURVE",
"77 663 OFFCURVE",
"157 663 CURVE SMOOTH",
"472 663 LINE",
"460 665 LINE",
"39 53 LINE SMOOTH",
"28 38 OFFCURVE",
"20 21 OFFCURVE",
"20 9 CURVE",
"31 -5 LINE"
);
}
);
width = 544;
},
{
anchors = (
{
name = bottom;
position = "{299, 0}";
},
{
name = top;
position = "{299, 698}";
}
);
layerId = "EBFFFCD3-BAE4-48A5-9442-B72A90AD34A8";
paths = (
{
closed = 1;
nodes = (
"98 5 OFFCURVE",
"116 6 OFFCURVE",
"153 5 CURVE SMOOTH",
"417 -2 LINE SMOOTH",
"524 -4 OFFCURVE",
"574 43 OFFCURVE",
"574 109 CURVE SMOOTH",
"574 156 OFFCURVE",
"548 190 OFFCURVE",
"508 206 CURVE SMOOTH",
"500 210 OFFCURVE",
"493 214 OFFCURVE",
"475 217 CURVE",
"479 200 OFFCURVE",
"478 181 OFFCURVE",
"465 162 CURVE SMOOTH",
"454 144 OFFCURVE",
"426 125 OFFCURVE",
"381 122 CURVE SMOOTH",
"119 103 LINE",
"137 67 LINE",
"516 557 LINE SMOOTH",
"545 593 OFFCURVE",
"551 619 OFFCURVE",
"551 664 CURVE",
"534 705 LINE",
"501 694 OFFCURVE",
"458 693 OFFCURVE",
"419 694 CURVE SMOOTH",
"216 701 LINE SMOOTH",
"92 705 OFFCURVE",
"40 653 OFFCURVE",
"40 587 CURVE SMOOTH",
"40 554 OFFCURVE",
"56 526 OFFCURVE",
"79 511 CURVE SMOOTH",
"96 498 OFFCURVE",
"119 489 OFFCURVE",
"142 485 CURVE",
"136 503 OFFCURVE",
"138 519 OFFCURVE",
"150 542 CURVE SMOOTH",
"163 565 OFFCURVE",
"196 575 OFFCURVE",
"228 577 CURVE SMOOTH",
"465 596 LINE",
"453 635 LINE",
"78 135 LINE SMOOTH",
"49 100 OFFCURVE",
"44 72 OFFCURVE",
"44 26 CURVE",
"62 -7 LINE"
);
}
);
width = 597;
}
);
leftKerningGroup = Z;
rightKerningGroup = Z;
unicode = 005A;
},
